<svg width="190" height="2010" xmlns="http://www.w3.org/2000/svg"><path d="M40 1600 L40 2000" style="stroke:#000;stroke-width:1px"/><path d="M40 1400 L40 1600" style="stroke:#000;stroke-width:1px"/><path d="M40 1400 L70 1600" style="stroke:#000;stroke-width:1px"/><path d="M40 1200 L40 1400" style="stroke:#000;stroke-width:1px"/><path d="M70 1200 L40 1200" style="stroke:#000;stroke-width:1px"/><path d="M70 1000 L70 1200" style="stroke:#000;stroke-width:1px"/><path d="M40 600 L40 1000" style="stroke:#000;stroke-width:1px"/><path d="M40 600 L40 800" style="stroke:#000;stroke-width:1px"/><path d="M40 600 L70 1000" style="stroke:#000;stroke-width:1px"/><path d="M100 1000 L70 1400" style="stroke:#000;stroke-width:1px"/><path d="M100 1600 L70 2000" style="stroke:#000;stroke-width:1px"/><path d="M100 1400 L100 1600" style="stroke:#000;stroke-width:1px"/><path d="M100 1400 L70 1800" style="stroke:#000;stroke-width:1px"/><path d="M130 1600 L100 1800" style="stroke:#000;stroke-width:1px"/><path d="M130 1400 L130 1600" style="stroke:#000;stroke-width:1px"/><path d="M130 1400 L160 1600" style="stroke:#000;stroke-width:1px"/><path d="M100 1200 L100 1400" style="stroke:#000;stroke-width:1px"/><path d="M100 1200 L130 1400" style="stroke:#000;stroke-width:1px"/><path d="M160 1200 L40 1000" style="stroke:#000;stroke-width:1px"/><path d="M130 1000 L100 1200" style="stroke:#000;stroke-width:1px"/><path d="M130 1000 L130 1200" style="stroke:#000;stroke-width:1px"/><path d="M130 1000 L160 1200" style="stroke:#000;stroke-width:1px"/><path d="M130 1000 L190 1200" style="stroke:#000;stroke-width:1px"/><path d="M70 800 L100 1000" style="stroke:#000;stroke-width:1px"/><path d="M70 800 L130 1000" style="stroke:#000;stroke-width:1px"/><path d="M70 600 L70 800" style="stroke:#000;stroke-width:1px"/><path d="M100 600 L40 600" style="stroke:#000;stroke-width:1px"/><path d="M100 600 L70 600" style="stroke:#000;stroke-width:1px"/><path d="M40 400 L100 600" style="stroke:#000;stroke-width:1px"/><path d="M70 400 L40 400" style="stroke:#000;stroke-width:1px"/><path d="M40 200 L70 400" style="stroke:#000;stroke-width:1px"/><path d="M40 200 L40 1800" style="stroke:#000;stroke-width:1px"/><path d="M40 0 L40 200" style="stroke:#000;stroke-width:1px"/><ellipse cx="40" cy="1000" rx="10" ry="10" style="fill:#6BF178"/><ellipse cx="40" cy="800" rx="10" ry="10" style="fill:#000000"/><ellipse cx="40" cy="2000" rx="10" ry="10" style="fill:#6BF178"/><ellipse cx="40" cy="1600" rx="10" ry="10" style="fill:#da4167"/><ellipse cx="40" cy="1800" rx="10" ry="10" style="fill:#6BF178"/><ellipse cx="70" cy="1600" rx="10" ry="10" style="fill:#000000"/><ellipse cx="40" cy="1400" rx="10" ry="10" style="fill:#ceb992"/><ellipse cx="40" cy="1200" rx="10" ry="10" style="fill:#b00b31"/><ellipse cx="70" cy="1200" rx="10" ry="10" style="fill:#a6e1fa"/><ellipse cx="70" cy="1000" rx="10" ry="10" style="fill:#0e6ba8"/><ellipse cx="40" cy="600" rx="10" ry="10" style="fill:#4d243d"/><ellipse cx="70" cy="1400" rx="10" ry="10" style="fill:#6BF178"/><ellipse cx="100" cy="1000" rx="10" ry="10" style="fill:#da4167"/><ellipse cx="70" cy="2000" rx="10" ry="10" style="fill:#6BF178"/><ellipse cx="100" cy="1600" rx="10" ry="10" style="fill:#da4167"/><ellipse cx="70" cy="1800" rx="10" ry="10" style="fill:#6BF178"/><ellipse cx="100" cy="1400" rx="10" ry="10" style="fill:#ef8a17"/><ellipse cx="100" cy="1800" rx="10" ry="10" style="fill:#6BF178"/><ellipse cx="130" cy="1600" rx="10" ry="10" style="fill:#3d2645"/><ellipse cx="160" cy="1600" rx="10" ry="10" style="fill:#832161"/><ellipse cx="130" cy="1400" rx="10" ry="10" style="fill:#000000"/><ellipse cx="100" cy="1200" rx="10" ry="10" style="fill:#ceb992"/><ellipse cx="130" cy="1200" rx="10" ry="10" style="fill:#832161"/><ellipse cx="160" cy="1200" rx="10" ry="10" style="fill:#da4167"/><ellipse cx="190" cy="1200" rx="10" ry="10" style="fill:#832161"/><ellipse cx="130" cy="1000" rx="10" ry="10" style="fill:#000000"/><ellipse cx="70" cy="800" rx="10" ry="10" style="fill:#ceb992"/><ellipse cx="70" cy="600" rx="10" ry="10" style="fill:#b00b31"/><ellipse cx="100" cy="600" rx="10" ry="10" style="fill:#a6e1fa"/><ellipse cx="40" cy="400" rx="10" ry="10" style="fill:#0e6ba8"/><ellipse cx="70" cy="400" rx="10" ry="10" style="fill:#0e6ba8"/><ellipse cx="40" cy="200" rx="10" ry="10" style="fill:#001c55"/><ellipse cx="40" cy="0" rx="10" ry="10" style="fill:#ce8147"/></svg>