<svg width="1456" height="1336" xmlns="http://www.w3.org/2000/svg"><path d="M10 10 L22 211" style="stroke:#000;stroke-width:1px"/><path d="M22 211 L34 412" style="stroke:#000;stroke-width:1px"/><path d="M34 412 L46 613" style="stroke:#000;stroke-width:1px"/><path d="M46 613 L58 814" style="stroke:#000;stroke-width:1px"/><path d="M58 814 L70 1015" style="stroke:#000;stroke-width:1px"/><path d="M70 1015 L82 1216" style="stroke:#000;stroke-width:1px"/><ellipse cx="82" cy="1216" rx="5" ry="5" style="fill:#6BF178"/><ellipse cx="70" cy="1015" rx="5" ry="5" style="fill:#832161"/><ellipse cx="58" cy="814" rx="5" ry="5" style="fill:#3d2645"/><ellipse cx="46" cy="613" rx="5" ry="5" style="fill:#000000"/><path d="M34 412 L94 613" style="stroke:#000;stroke-width:1px"/><ellipse cx="94" cy="613" rx="5" ry="5" style="fill:#b00b31"/><ellipse cx="34" cy="412" rx="5" ry="5" style="fill:#ff01fb"/><path d="M22 211 L106 412" style="stroke:#000;stroke-width:1px"/><path d="M106 412 L118 613" style="stroke:#000;stroke-width:1px"/><path d="M118 613 L130 814" style="stroke:#000;stroke-width:1px"/><ellipse cx="130" cy="814" rx="5" ry="5" style="fill:#0e6ba8"/><path d="M118 613 L142 814" style="stroke:#000;stroke-width:1px"/><ellipse cx="142" cy="814" rx="5" ry="5" style="fill:#99ddc8"/><ellipse cx="118" cy="613" rx="5" ry="5" style="fill:#0a2472"/><path d="M106 412 L154 613" style="stroke:#000;stroke-width:1px"/><path d="M154 613 L166 814" style="stroke:#000;stroke-width:1px"/><path d="M166 814 L178 1015" style="stroke:#000;stroke-width:1px"/><ellipse cx="178" cy="1015" rx="5" ry="5" style="fill:#0e6ba8"/><path d="M166 814 L190 1015" style="stroke:#000;stroke-width:1px"/><path d="M190 1015 L202 1216" style="stroke:#000;stroke-width:1px"/><ellipse cx="202" cy="1216" rx="5" ry="5" style="fill:#6BF178"/><path d="M190 1015 L214 1216" style="stroke:#000;stroke-width:1px"/><ellipse cx="214" cy="1216" rx="5" ry="5" style="fill:#0e6ba8"/><ellipse cx="190" cy="1015" rx="5" ry="5" style="fill:#4d243d"/><path d="M166 814 L226 1015" style="stroke:#000;stroke-width:1px"/><ellipse cx="226" cy="1015" rx="5" ry="5" style="fill:#0e6ba8"/><ellipse cx="166" cy="814" rx="5" ry="5" style="fill:#832161"/><path d="M154 613 L238 814" style="stroke:#000;stroke-width:1px"/><path d="M238 814 L250 1015" style="stroke:#000;stroke-width:1px"/><path d="M250 1015 L262 1216" style="stroke:#000;stroke-width:1px"/><path d="M262 1216 L274 1417" style="stroke:#000;stroke-width:1px"/><path d="M274 1417 L286 1618" style="stroke:#000;stroke-width:1px"/><path d="M286 1618 L298 1819" style="stroke:#000;stroke-width:1px"/><ellipse cx="298" cy="1819" rx="5" ry="5" style="fill:#6BF178"/><path d="M286 1618 L310 1819" style="stroke:#000;stroke-width:1px"/><ellipse cx="310" cy="1819" rx="5" ry="5" style="fill:#0e6ba8"/><ellipse cx="286" cy="1618" rx="5" ry="5" style="fill:#561d25"/><ellipse cx="274" cy="1417" rx="5" ry="5" style="fill:#832161"/><ellipse cx="262" cy="1216" rx="5" ry="5" style="fill:#3d2645"/><ellipse cx="250" cy="1015" rx="5" ry="5" style="fill:#000000"/><path d="M238 814 L322 1015" style="stroke:#000;stroke-width:1px"/><path d="M322 1015 L334 1216" style="stroke:#000;stroke-width:1px"/><path d="M334 1216 L346 1417" style="stroke:#000;stroke-width:1px"/><path d="M346 1417 L358 1618" style="stroke:#000;stroke-width:1px"/><path d="M358 1618 L370 1819" style="stroke:#000;stroke-width:1px"/><ellipse cx="370" cy="1819" rx="5" ry="5" style="fill:#0e6ba8"/><path d="M358 1618 L382 1819" style="stroke:#000;stroke-width:1px"/><ellipse cx="382" cy="1819" rx="5" ry="5" style="fill:#0e6ba8"/><ellipse cx="358" cy="1618" rx="5" ry="5" style="fill:#561d25"/><ellipse cx="346" cy="1417" rx="5" ry="5" style="fill:#832161"/><ellipse cx="334" cy="1216" rx="5" ry="5" style="fill:#3d2645"/><ellipse cx="322" cy="1015" rx="5" ry="5" style="fill:#000000"/><path d="M238 814 L394 1015" style="stroke:#000;stroke-width:1px"/><path d="M394 1015 L406 1216" style="stroke:#000;stroke-width:1px"/><path d="M406 1216 L418 1417" style="stroke:#000;stroke-width:1px"/><path d="M418 1417 L430 1618" style="stroke:#000;stroke-width:1px"/><path d="M430 1618 L442 1819" style="stroke:#000;stroke-width:1px"/><ellipse cx="442" cy="1819" rx="5" ry="5" style="fill:#6BF178"/><path d="M430 1618 L454 1819" style="stroke:#000;stroke-width:1px"/><ellipse cx="454" cy="1819" rx="5" ry="5" style="fill:#0e6ba8"/><ellipse cx="430" cy="1618" rx="5" ry="5" style="fill:#561d25"/><ellipse cx="418" cy="1417" rx="5" ry="5" style="fill:#832161"/><ellipse cx="406" cy="1216" rx="5" ry="5" style="fill:#3d2645"/><ellipse cx="394" cy="1015" rx="5" ry="5" style="fill:#000000"/><path d="M238 814 L466 1015" style="stroke:#000;stroke-width:1px"/><path d="M466 1015 L478 1216" style="stroke:#000;stroke-width:1px"/><path d="M478 1216 L490 1417" style="stroke:#000;stroke-width:1px"/><path d="M490 1417 L502 1618" style="stroke:#000;stroke-width:1px"/><path d="M502 1618 L514 1819" style="stroke:#000;stroke-width:1px"/><path d="M514 1819 L526 2020" style="stroke:#000;stroke-width:1px"/><ellipse cx="526" cy="2020" rx="5" ry="5" style="fill:#da4167"/><path d="M514 1819 L538 2020" style="stroke:#000;stroke-width:1px"/><ellipse cx="538" cy="2020" rx="5" ry="5" style="fill:#da4167"/><ellipse cx="514" cy="1819" rx="5" ry="5" style="fill:#561d25"/><path d="M502 1618 L550 1819" style="stroke:#000;stroke-width:1px"/><ellipse cx="550" cy="1819" rx="5" ry="5" style="fill:#0e6ba8"/><ellipse cx="502" cy="1618" rx="5" ry="5" style="fill:#561d25"/><ellipse cx="490" cy="1417" rx="5" ry="5" style="fill:#832161"/><ellipse cx="478" cy="1216" rx="5" ry="5" style="fill:#3d2645"/><ellipse cx="466" cy="1015" rx="5" ry="5" style="fill:#000000"/><path d="M238 814 L562 1015" style="stroke:#000;stroke-width:1px"/><ellipse cx="562" cy="1015" rx="5" ry="5" style="fill:#b55300"/><path d="M238 814 L574 1015" style="stroke:#000;stroke-width:1px"/><ellipse cx="574" cy="1015" rx="5" ry="5" style="fill:#b00b31"/><ellipse cx="238" cy="814" rx="5" ry="5" style="fill:#ff01fb"/><ellipse cx="154" cy="613" rx="5" ry="5" style="fill:#ce8147"/><path d="M106 412 L586 613" style="stroke:#000;stroke-width:1px"/><ellipse cx="586" cy="613" rx="5" ry="5" style="fill:#b55300"/><ellipse cx="106" cy="412" rx="5" ry="5" style="fill:#ff01fb"/><path d="M22 211 L598 412" style="stroke:#000;stroke-width:1px"/><path d="M598 412 L610 613" style="stroke:#000;stroke-width:1px"/><path d="M610 613 L622 814" style="stroke:#000;stroke-width:1px"/><path d="M622 814 L634 1015" style="stroke:#000;stroke-width:1px"/><path d="M634 1015 L646 1216" style="stroke:#000;stroke-width:1px"/><ellipse cx="646" cy="1216" rx="5" ry="5" style="fill:#6BF178"/><ellipse cx="634" cy="1015" rx="5" ry="5" style="fill:#832161"/><ellipse cx="622" cy="814" rx="5" ry="5" style="fill:#3d2645"/><ellipse cx="610" cy="613" rx="5" ry="5" style="fill:#000000"/><ellipse cx="598" cy="412" rx="5" ry="5" style="fill:#ff01fb"/><ellipse cx="22" cy="211" rx="5" ry="5" style="fill:#a6e1fa"/><path d="M10 10 L658 211" style="stroke:#000;stroke-width:1px"/><path d="M658 211 L670 412" style="stroke:#000;stroke-width:1px"/><path d="M670 412 L682 613" style="stroke:#000;stroke-width:1px"/><path d="M682 613 L694 814" style="stroke:#000;stroke-width:1px"/><ellipse cx="694" cy="814" rx="5" ry="5" style="fill:#0e6ba8"/><path d="M682 613 L706 814" style="stroke:#000;stroke-width:1px"/><ellipse cx="706" cy="814" rx="5" ry="5" style="fill:#da4167"/><ellipse cx="682" cy="613" rx="5" ry="5" style="fill:#0a2472"/><path d="M670 412 L718 613" style="stroke:#000;stroke-width:1px"/><path d="M718 613 L730 814" style="stroke:#000;stroke-width:1px"/><path d="M730 814 L742 1015" style="stroke:#000;stroke-width:1px"/><ellipse cx="742" cy="1015" rx="5" ry="5" style="fill:#6BF178"/><path d="M730 814 L754 1015" style="stroke:#000;stroke-width:1px"/><path d="M754 1015 L766 1216" style="stroke:#000;stroke-width:1px"/><ellipse cx="766" cy="1216" rx="5" ry="5" style="fill:#0e6ba8"/><path d="M754 1015 L778 1216" style="stroke:#000;stroke-width:1px"/><ellipse cx="778" cy="1216" rx="5" ry="5" style="fill:#da4167"/><ellipse cx="754" cy="1015" rx="5" ry="5" style="fill:#561d25"/><ellipse cx="730" cy="814" rx="5" ry="5" style="fill:#561d25"/><ellipse cx="718" cy="613" rx="5" ry="5" style="fill:#b55300"/><path d="M670 412 L790 613" style="stroke:#000;stroke-width:1px"/><path d="M790 613 L802 814" style="stroke:#000;stroke-width:1px"/><path d="M802 814 L814 1015" style="stroke:#000;stroke-width:1px"/><path d="M814 1015 L826 1216" style="stroke:#000;stroke-width:1px"/><ellipse cx="826" cy="1216" rx="5" ry="5" style="fill:#6BF178"/><ellipse cx="814" cy="1015" rx="5" ry="5" style="fill:#832161"/><ellipse cx="802" cy="814" rx="5" ry="5" style="fill:#3d2645"/><ellipse cx="790" cy="613" rx="5" ry="5" style="fill:#000000"/><ellipse cx="670" cy="412" rx="5" ry="5" style="fill:#ff01fb"/><ellipse cx="658" cy="211" rx="5" ry="5" style="fill:#a6e1fa"/><path d="M10 10 L838 211" style="stroke:#000;stroke-width:1px"/><path d="M838 211 L850 412" style="stroke:#000;stroke-width:1px"/><path d="M850 412 L862 613" style="stroke:#000;stroke-width:1px"/><path d="M862 613 L874 814" style="stroke:#000;stroke-width:1px"/><path d="M874 814 L886 1015" style="stroke:#000;stroke-width:1px"/><path d="M886 1015 L898 1216" style="stroke:#000;stroke-width:1px"/><ellipse cx="898" cy="1216" rx="5" ry="5" style="fill:#6BF178"/><ellipse cx="886" cy="1015" rx="5" ry="5" style="fill:#832161"/><ellipse cx="874" cy="814" rx="5" ry="5" style="fill:#3d2645"/><ellipse cx="862" cy="613" rx="5" ry="5" style="fill:#000000"/><ellipse cx="850" cy="412" rx="5" ry="5" style="fill:#ff01fb"/><ellipse cx="838" cy="211" rx="5" ry="5" style="fill:#a6e1fa"/><path d="M10 10 L910 211" style="stroke:#000;stroke-width:1px"/><path d="M910 211 L922 412" style="stroke:#000;stroke-width:1px"/><path d="M922 412 L934 613" style="stroke:#000;stroke-width:1px"/><path d="M934 613 L946 814" style="stroke:#000;stroke-width:1px"/><path d="M946 814 L958 1015" style="stroke:#000;stroke-width:1px"/><ellipse cx="958" cy="1015" rx="5" ry="5" style="fill:#832161"/><ellipse cx="946" cy="814" rx="5" ry="5" style="fill:#3d2645"/><ellipse cx="934" cy="613" rx="5" ry="5" style="fill:#000000"/><path d="M922 412 L970 613" style="stroke:#000;stroke-width:1px"/><path d="M970 613 L982 814" style="stroke:#000;stroke-width:1px"/><ellipse cx="982" cy="814" rx="5" ry="5" style="fill:#99ddc8"/><path d="M970 613 L994 814" style="stroke:#000;stroke-width:1px"/><path d="M994 814 L1006 1015" style="stroke:#000;stroke-width:1px"/><path d="M1006 1015 L1018 1216" style="stroke:#000;stroke-width:1px"/><path d="M1018 1216 L1030 1417" style="stroke:#000;stroke-width:1px"/><path d="M1030 1417 L1042 1618" style="stroke:#000;stroke-width:1px"/><ellipse cx="1042" cy="1618" rx="5" ry="5" style="fill:#6BF178"/><ellipse cx="1030" cy="1417" rx="5" ry="5" style="fill:#832161"/><ellipse cx="1018" cy="1216" rx="5" ry="5" style="fill:#3d2645"/><ellipse cx="1006" cy="1015" rx="5" ry="5" style="fill:#000000"/><path d="M994 814 L1054 1015" style="stroke:#000;stroke-width:1px"/><ellipse cx="1054" cy="1015" rx="5" ry="5" style="fill:#b00b31"/><ellipse cx="994" cy="814" rx="5" ry="5" style="fill:#ff01fb"/><ellipse cx="970" cy="613" rx="5" ry="5" style="fill:#00072d"/><ellipse cx="922" cy="412" rx="5" ry="5" style="fill:#ff01fb"/><path d="M910 211 L1066 412" style="stroke:#000;stroke-width:1px"/><path d="M1066 412 L1078 613" style="stroke:#000;stroke-width:1px"/><path d="M1078 613 L1090 814" style="stroke:#000;stroke-width:1px"/><path d="M1090 814 L1102 1015" style="stroke:#000;stroke-width:1px"/><path d="M1102 1015 L1114 1216" style="stroke:#000;stroke-width:1px"/><ellipse cx="1114" cy="1216" rx="5" ry="5" style="fill:#6BF178"/><path d="M1102 1015 L1126 1216" style="stroke:#000;stroke-width:1px"/><path d="M1126 1216 L1138 1417" style="stroke:#000;stroke-width:1px"/><ellipse cx="1138" cy="1417" rx="5" ry="5" style="fill:#da4167"/><path d="M1126 1216 L1150 1417" style="stroke:#000;stroke-width:1px"/><ellipse cx="1150" cy="1417" rx="5" ry="5" style="fill:#0e6ba8"/><ellipse cx="1126" cy="1216" rx="5" ry="5" style="fill:#4d243d"/><ellipse cx="1102" cy="1015" rx="5" ry="5" style="fill:#832161"/><ellipse cx="1090" cy="814" rx="5" ry="5" style="fill:#3d2645"/><ellipse cx="1078" cy="613" rx="5" ry="5" style="fill:#000000"/><path d="M1066 412 L1162 613" style="stroke:#000;stroke-width:1px"/><ellipse cx="1162" cy="613" rx="5" ry="5" style="fill:#b00b31"/><ellipse cx="1066" cy="412" rx="5" ry="5" style="fill:#ff01fb"/><path d="M910 211 L1174 412" style="stroke:#000;stroke-width:1px"/><path d="M1174 412 L1186 613" style="stroke:#000;stroke-width:1px"/><ellipse cx="1186" cy="613" rx="5" ry="5" style="fill:#b55300"/><ellipse cx="1174" cy="412" rx="5" ry="5" style="fill:#ff01fb"/><ellipse cx="910" cy="211" rx="5" ry="5" style="fill:#a6e1fa"/><path d="M10 10 L1198 211" style="stroke:#000;stroke-width:1px"/><path d="M1198 211 L1210 412" style="stroke:#000;stroke-width:1px"/><path d="M1210 412 L1222 613" style="stroke:#000;stroke-width:1px"/><path d="M1222 613 L1234 814" style="stroke:#000;stroke-width:1px"/><ellipse cx="1234" cy="814" rx="5" ry="5" style="fill:#0e6ba8"/><ellipse cx="1222" cy="613" rx="5" ry="5" style="fill:#000000"/><ellipse cx="1210" cy="412" rx="5" ry="5" style="fill:#ff01fb"/><ellipse cx="1198" cy="211" rx="5" ry="5" style="fill:#a6e1fa"/><path d="M10 10 L1246 211" style="stroke:#000;stroke-width:1px"/><path d="M1246 211 L1258 412" style="stroke:#000;stroke-width:1px"/><path d="M1258 412 L1270 613" style="stroke:#000;stroke-width:1px"/><path d="M1270 613 L1282 814" style="stroke:#000;stroke-width:1px"/><ellipse cx="1282" cy="814" rx="5" ry="5" style="fill:#0e6ba8"/><ellipse cx="1270" cy="613" rx="5" ry="5" style="fill:#000000"/><ellipse cx="1258" cy="412" rx="5" ry="5" style="fill:#ff01fb"/><ellipse cx="1246" cy="211" rx="5" ry="5" style="fill:#a6e1fa"/><path d="M10 10 L1294 211" style="stroke:#000;stroke-width:1px"/><path d="M1294 211 L1306 412" style="stroke:#000;stroke-width:1px"/><path d="M1306 412 L1318 613" style="stroke:#000;stroke-width:1px"/><path d="M1318 613 L1330 814" style="stroke:#000;stroke-width:1px"/><path d="M1330 814 L1342 1015" style="stroke:#000;stroke-width:1px"/><path d="M1342 1015 L1354 1216" style="stroke:#000;stroke-width:1px"/><ellipse cx="1354" cy="1216" rx="5" ry="5" style="fill:#6BF178"/><ellipse cx="1342" cy="1015" rx="5" ry="5" style="fill:#832161"/><ellipse cx="1330" cy="814" rx="5" ry="5" style="fill:#3d2645"/><ellipse cx="1318" cy="613" rx="5" ry="5" style="fill:#000000"/><path d="M1306 412 L1366 613" style="stroke:#000;stroke-width:1px"/><ellipse cx="1366" cy="613" rx="5" ry="5" style="fill:#b00b31"/><ellipse cx="1306" cy="412" rx="5" ry="5" style="fill:#ff01fb"/><path d="M1294 211 L1378 412" style="stroke:#000;stroke-width:1px"/><path d="M1378 412 L1390 613" style="stroke:#000;stroke-width:1px"/><path d="M1390 613 L1402 814" style="stroke:#000;stroke-width:1px"/><ellipse cx="1402" cy="814" rx="5" ry="5" style="fill:#99ddc8"/><path d="M1390 613 L1414 814" style="stroke:#000;stroke-width:1px"/><path d="M1414 814 L1426 1015" style="stroke:#000;stroke-width:1px"/><path d="M1426 1015 L1438 1216" style="stroke:#000;stroke-width:1px"/><path d="M1438 1216 L1450 1417" style="stroke:#000;stroke-width:1px"/><ellipse cx="1450" cy="1417" rx="5" ry="5" style="fill:#da4167"/><ellipse cx="1438" cy="1216" rx="5" ry="5" style="fill:#832161"/><ellipse cx="1426" cy="1015" rx="5" ry="5" style="fill:#3d2645"/><ellipse cx="1414" cy="814" rx="5" ry="5" style="fill:#000000"/><ellipse cx="1390" cy="613" rx="5" ry="5" style="fill:#00072d"/><ellipse cx="1378" cy="412" rx="5" ry="5" style="fill:#ff01fb"/><ellipse cx="1294" cy="211" rx="5" ry="5" style="fill:#a6e1fa"/><ellipse cx="10" cy="10" rx="5" ry="5" style="fill:#f6511d"/><ellipse cx="10" cy="1197.9" rx="10" ry="10" style="fill:#f6511d"/><ellipse cx="31" cy="1197.9" rx="10" ry="10" style="fill:#a6e1fa"/><ellipse cx="52" cy="1197.9" rx="10" ry="10" style="fill:#ff01fb"/><ellipse cx="73" cy="1197.9" rx="10" ry="10" style="fill:#000000"/><ellipse cx="94" cy="1197.9" rx="10" ry="10" style="fill:#3d2645"/><ellipse cx="115" cy="1197.9" rx="10" ry="10" style="fill:#832161"/><ellipse cx="136" cy="1197.9" rx="10" ry="10" style="fill:#6BF178"/><ellipse cx="157" cy="1197.9" rx="10" ry="10" style="fill:#b00b31"/><ellipse cx="178" cy="1197.9" rx="10" ry="10" style="fill:#ff01fb"/><ellipse cx="199" cy="1197.9" rx="10" ry="10" style="fill:#0a2472"/><ellipse cx="220" cy="1197.9" rx="10" ry="10" style="fill:#0e6ba8"/><ellipse cx="241" cy="1197.9" rx="10" ry="10" style="fill:#99ddc8"/><ellipse cx="262" cy="1197.9" rx="10" ry="10" style="fill:#ce8147"/><ellipse cx="283" cy="1197.9" rx="10" ry="10" style="fill:#832161"/><ellipse cx="304" cy="1197.9" rx="10" ry="10" style="fill:#0e6ba8"/><ellipse cx="325" cy="1197.9" rx="10" ry="10" style="fill:#4d243d"/><ellipse cx="346" cy="1197.9" rx="10" ry="10" style="fill:#6BF178"/><ellipse cx="367" cy="1197.9" rx="10" ry="10" style="fill:#0e6ba8"/><ellipse cx="388" cy="1197.9" rx="10" ry="10" style="fill:#0e6ba8"/><ellipse cx="409" cy="1197.9" rx="10" ry="10" style="fill:#ff01fb"/><ellipse cx="430" cy="1197.9" rx="10" ry="10" style="fill:#000000"/><ellipse cx="451" cy="1197.9" rx="10" ry="10" style="fill:#3d2645"/><ellipse cx="472" cy="1197.9" rx="10" ry="10" style="fill:#832161"/><ellipse cx="493" cy="1197.9" rx="10" ry="10" style="fill:#561d25"/><ellipse cx="514" cy="1197.9" rx="10" ry="10" style="fill:#6BF178"/><ellipse cx="535" cy="1197.9" rx="10" ry="10" style="fill:#0e6ba8"/><ellipse cx="556" cy="1197.9" rx="10" ry="10" style="fill:#000000"/><ellipse cx="577" cy="1197.9" rx="10" ry="10" style="fill:#3d2645"/><ellipse cx="598" cy="1197.9" rx="10" ry="10" style="fill:#832161"/><ellipse cx="619" cy="1197.9" rx="10" ry="10" style="fill:#561d25"/><ellipse cx="640" cy="1197.9" rx="10" ry="10" style="fill:#0e6ba8"/><ellipse cx="661" cy="1197.9" rx="10" ry="10" style="fill:#0e6ba8"/><ellipse cx="682" cy="1197.9" rx="10" ry="10" style="fill:#000000"/><ellipse cx="703" cy="1197.9" rx="10" ry="10" style="fill:#3d2645"/><ellipse cx="724" cy="1197.9" rx="10" ry="10" style="fill:#832161"/><ellipse cx="745" cy="1197.9" rx="10" ry="10" style="fill:#561d25"/><ellipse cx="766" cy="1197.9" rx="10" ry="10" style="fill:#6BF178"/><ellipse cx="787" cy="1197.9" rx="10" ry="10" style="fill:#0e6ba8"/><ellipse cx="808" cy="1197.9" rx="10" ry="10" style="fill:#000000"/><ellipse cx="829" cy="1197.9" rx="10" ry="10" style="fill:#3d2645"/><ellipse cx="850" cy="1197.9" rx="10" ry="10" style="fill:#832161"/><ellipse cx="871" cy="1197.9" rx="10" ry="10" style="fill:#561d25"/><ellipse cx="892" cy="1197.9" rx="10" ry="10" style="fill:#561d25"/><ellipse cx="913" cy="1197.9" rx="10" ry="10" style="fill:#da4167"/><ellipse cx="934" cy="1197.9" rx="10" ry="10" style="fill:#da4167"/><ellipse cx="955" cy="1197.9" rx="10" ry="10" style="fill:#0e6ba8"/><ellipse cx="976" cy="1197.9" rx="10" ry="10" style="fill:#b55300"/><ellipse cx="997" cy="1197.9" rx="10" ry="10" style="fill:#b00b31"/><ellipse cx="1018" cy="1197.9" rx="10" ry="10" style="fill:#b55300"/><ellipse cx="1039" cy="1197.9" rx="10" ry="10" style="fill:#ff01fb"/><ellipse cx="1060" cy="1197.9" rx="10" ry="10" style="fill:#000000"/><ellipse cx="1081" cy="1197.9" rx="10" ry="10" style="fill:#3d2645"/><ellipse cx="1102" cy="1197.9" rx="10" ry="10" style="fill:#832161"/><ellipse cx="1123" cy="1197.9" rx="10" ry="10" style="fill:#6BF178"/><ellipse cx="1144" cy="1197.9" rx="10" ry="10" style="fill:#a6e1fa"/><ellipse cx="1165" cy="1197.9" rx="10" ry="10" style="fill:#ff01fb"/><ellipse cx="1186" cy="1197.9" rx="10" ry="10" style="fill:#0a2472"/><ellipse cx="1207" cy="1197.9" rx="10" ry="10" style="fill:#0e6ba8"/><ellipse cx="1228" cy="1197.9" rx="10" ry="10" style="fill:#da4167"/><ellipse cx="1249" cy="1197.9" rx="10" ry="10" style="fill:#b55300"/><ellipse cx="1270" cy="1197.9" rx="10" ry="10" style="fill:#561d25"/><ellipse cx="1291" cy="1197.9" rx="10" ry="10" style="fill:#6BF178"/><ellipse cx="1312" cy="1197.9" rx="10" ry="10" style="fill:#561d25"/><ellipse cx="1333" cy="1197.9" rx="10" ry="10" style="fill:#0e6ba8"/><ellipse cx="1354" cy="1197.9" rx="10" ry="10" style="fill:#da4167"/><ellipse cx="1375" cy="1197.9" rx="10" ry="10" style="fill:#000000"/><ellipse cx="1396" cy="1197.9" rx="10" ry="10" style="fill:#3d2645"/><ellipse cx="1417" cy="1197.9" rx="10" ry="10" style="fill:#832161"/><ellipse cx="1438" cy="1197.9" rx="10" ry="10" style="fill:#6BF178"/><ellipse cx="10" cy="1218.9" rx="10" ry="10" style="fill:#a6e1fa"/><ellipse cx="31" cy="1218.9" rx="10" ry="10" style="fill:#ff01fb"/><ellipse cx="52" cy="1218.9" rx="10" ry="10" style="fill:#000000"/><ellipse cx="73" cy="1218.9" rx="10" ry="10" style="fill:#3d2645"/><ellipse cx="94" cy="1218.9" rx="10" ry="10" style="fill:#832161"/><ellipse cx="115" cy="1218.9" rx="10" ry="10" style="fill:#6BF178"/><ellipse cx="136" cy="1218.9" rx="10" ry="10" style="fill:#a6e1fa"/><ellipse cx="157" cy="1218.9" rx="10" ry="10" style="fill:#ff01fb"/><ellipse cx="178" cy="1218.9" rx="10" ry="10" style="fill:#000000"/><ellipse cx="199" cy="1218.9" rx="10" ry="10" style="fill:#3d2645"/><ellipse cx="220" cy="1218.9" rx="10" ry="10" style="fill:#832161"/><ellipse cx="241" cy="1218.9" rx="10" ry="10" style="fill:#00072d"/><ellipse cx="262" cy="1218.9" rx="10" ry="10" style="fill:#99ddc8"/><ellipse cx="283" cy="1218.9" rx="10" ry="10" style="fill:#ff01fb"/><ellipse cx="304" cy="1218.9" rx="10" ry="10" style="fill:#000000"/><ellipse cx="325" cy="1218.9" rx="10" ry="10" style="fill:#3d2645"/><ellipse cx="346" cy="1218.9" rx="10" ry="10" style="fill:#832161"/><ellipse cx="367" cy="1218.9" rx="10" ry="10" style="fill:#6BF178"/><ellipse cx="388" cy="1218.9" rx="10" ry="10" style="fill:#b00b31"/><ellipse cx="409" cy="1218.9" rx="10" ry="10" style="fill:#ff01fb"/><ellipse cx="430" cy="1218.9" rx="10" ry="10" style="fill:#000000"/><ellipse cx="451" cy="1218.9" rx="10" ry="10" style="fill:#3d2645"/><ellipse cx="472" cy="1218.9" rx="10" ry="10" style="fill:#832161"/><ellipse cx="493" cy="1218.9" rx="10" ry="10" style="fill:#6BF178"/><ellipse cx="514" cy="1218.9" rx="10" ry="10" style="fill:#4d243d"/><ellipse cx="535" cy="1218.9" rx="10" ry="10" style="fill:#da4167"/><ellipse cx="556" cy="1218.9" rx="10" ry="10" style="fill:#0e6ba8"/><ellipse cx="577" cy="1218.9" rx="10" ry="10" style="fill:#b00b31"/><ellipse cx="598" cy="1218.9" rx="10" ry="10" style="fill:#ff01fb"/><ellipse cx="619" cy="1218.9" rx="10" ry="10" style="fill:#b55300"/><ellipse cx="640" cy="1218.9" rx="10" ry="10" style="fill:#a6e1fa"/><ellipse cx="661" cy="1218.9" rx="10" ry="10" style="fill:#ff01fb"/><ellipse cx="682" cy="1218.9" rx="10" ry="10" style="fill:#000000"/><ellipse cx="703" cy="1218.9" rx="10" ry="10" style="fill:#0e6ba8"/><ellipse cx="724" cy="1218.9" rx="10" ry="10" style="fill:#a6e1fa"/><ellipse cx="745" cy="1218.9" rx="10" ry="10" style="fill:#ff01fb"/><ellipse cx="766" cy="1218.9" rx="10" ry="10" style="fill:#000000"/><ellipse cx="787" cy="1218.9" rx="10" ry="10" style="fill:#0e6ba8"/><ellipse cx="808" cy="1218.9" rx="10" ry="10" style="fill:#a6e1fa"/><ellipse cx="829" cy="1218.9" rx="10" ry="10" style="fill:#ff01fb"/><ellipse cx="850" cy="1218.9" rx="10" ry="10" style="fill:#000000"/><ellipse cx="871" cy="1218.9" rx="10" ry="10" style="fill:#3d2645"/><ellipse cx="892" cy="1218.9" rx="10" ry="10" style="fill:#832161"/><ellipse cx="913" cy="1218.9" rx="10" ry="10" style="fill:#6BF178"/><ellipse cx="934" cy="1218.9" rx="10" ry="10" style="fill:#b00b31"/><ellipse cx="955" cy="1218.9" rx="10" ry="10" style="fill:#ff01fb"/><ellipse cx="976" cy="1218.9" rx="10" ry="10" style="fill:#00072d"/><ellipse cx="997" cy="1218.9" rx="10" ry="10" style="fill:#99ddc8"/><ellipse cx="1018" cy="1218.9" rx="10" ry="10" style="fill:#000000"/><ellipse cx="1039" cy="1218.9" rx="10" ry="10" style="fill:#3d2645"/><ellipse cx="1060" cy="1218.9" rx="10" ry="10" style="fill:#832161"/><ellipse cx="1081" cy="1218.9" rx="10" ry="10" style="fill:#da4167"/><ellipse cx="10" cy="1264.45" rx="10" ry="10" style="fill:#f6511d"/><ellipse cx="31" cy="1264.45" rx="10" ry="10" style="fill:#832161"/><ellipse cx="52" cy="1264.45" rx="10" ry="10" style="fill:#832161"/><ellipse cx="73" cy="1264.45" rx="10" ry="10" style="fill:#832161"/><ellipse cx="94" cy="1264.45" rx="10" ry="10" style="fill:#832161"/><ellipse cx="115" cy="1264.45" rx="10" ry="10" style="fill:#832161"/><ellipse cx="136" cy="1264.45" rx="10" ry="10" style="fill:#832161"/><ellipse cx="157" cy="1264.45" rx="10" ry="10" style="fill:#832161"/><ellipse cx="178" cy="1264.45" rx="10" ry="10" style="fill:#832161"/><ellipse cx="199" cy="1264.45" rx="10" ry="10" style="fill:#832161"/><ellipse cx="220" cy="1264.45" rx="10" ry="10" style="fill:#832161"/><ellipse cx="241" cy="1264.45" rx="10" ry="10" style="fill:#832161"/><ellipse cx="262" cy="1264.45" rx="10" ry="10" style="fill:#832161"/><ellipse cx="283" cy="1264.45" rx="10" ry="10" style="fill:#832161"/><ellipse cx="304" cy="1264.45" rx="10" ry="10" style="fill:#832161"/><ellipse cx="325" cy="1264.45" rx="10" ry="10" style="fill:#ff01fb"/><ellipse cx="346" cy="1264.45" rx="10" ry="10" style="fill:#ff01fb"/><ellipse cx="367" cy="1264.45" rx="10" ry="10" style="fill:#ff01fb"/><ellipse cx="388" cy="1264.45" rx="10" ry="10" style="fill:#ff01fb"/><ellipse cx="409" cy="1264.45" rx="10" ry="10" style="fill:#ff01fb"/><ellipse cx="430" cy="1264.45" rx="10" ry="10" style="fill:#ff01fb"/><ellipse cx="451" cy="1264.45" rx="10" ry="10" style="fill:#ff01fb"/><ellipse cx="472" cy="1264.45" rx="10" ry="10" style="fill:#ff01fb"/><ellipse cx="493" cy="1264.45" rx="10" ry="10" style="fill:#ff01fb"/><ellipse cx="514" cy="1264.45" rx="10" ry="10" style="fill:#ff01fb"/><ellipse cx="535" cy="1264.45" rx="10" ry="10" style="fill:#ff01fb"/><ellipse cx="556" cy="1264.45" rx="10" ry="10" style="fill:#ff01fb"/><ellipse cx="577" cy="1264.45" rx="10" ry="10" style="fill:#ff01fb"/><ellipse cx="598" cy="1264.45" rx="10" ry="10" style="fill:#ff01fb"/><ellipse cx="619" cy="1264.45" rx="10" ry="10" style="fill:#99ddc8"/><ellipse cx="640" cy="1264.45" rx="10" ry="10" style="fill:#99ddc8"/><ellipse cx="661" cy="1264.45" rx="10" ry="10" style="fill:#99ddc8"/><ellipse cx="682" cy="1264.45" rx="10" ry="10" style="fill:#da4167"/><ellipse cx="703" cy="1264.45" rx="10" ry="10" style="fill:#da4167"/><ellipse cx="724" cy="1264.45" rx="10" ry="10" style="fill:#da4167"/><ellipse cx="745" cy="1264.45" rx="10" ry="10" style="fill:#da4167"/><ellipse cx="766" cy="1264.45" rx="10" ry="10" style="fill:#da4167"/><ellipse cx="787" cy="1264.45" rx="10" ry="10" style="fill:#da4167"/><ellipse cx="808" cy="1264.45" rx="10" ry="10" style="fill:#0a2472"/><ellipse cx="829" cy="1264.45" rx="10" ry="10" style="fill:#0a2472"/><ellipse cx="850" cy="1264.45" rx="10" ry="10" style="fill:#000000"/><ellipse cx="871" cy="1264.45" rx="10" ry="10" style="fill:#000000"/><ellipse cx="892" cy="1264.45" rx="10" ry="10" style="fill:#000000"/><ellipse cx="913" cy="1264.45" rx="10" ry="10" style="fill:#000000"/><ellipse cx="934" cy="1264.45" rx="10" ry="10" style="fill:#000000"/><ellipse cx="955" cy="1264.45" rx="10" ry="10" style="fill:#000000"/><ellipse cx="976" cy="1264.45" rx="10" ry="10" style="fill:#000000"/><ellipse cx="997" cy="1264.45" rx="10" ry="10" style="fill:#000000"/><ellipse cx="1018" cy="1264.45" rx="10" ry="10" style="fill:#000000"/><ellipse cx="1039" cy="1264.45" rx="10" ry="10" style="fill:#000000"/><ellipse cx="1060" cy="1264.45" rx="10" ry="10" style="fill:#000000"/><ellipse cx="1081" cy="1264.45" rx="10" ry="10" style="fill:#000000"/><ellipse cx="1102" cy="1264.45" rx="10" ry="10" style="fill:#000000"/><ellipse cx="1123" cy="1264.45" rx="10" ry="10" style="fill:#000000"/><ellipse cx="1144" cy="1264.45" rx="10" ry="10" style="fill:#000000"/><ellipse cx="1165" cy="1264.45" rx="10" ry="10" style="fill:#b55300"/><ellipse cx="1186" cy="1264.45" rx="10" ry="10" style="fill:#b55300"/><ellipse cx="1207" cy="1264.45" rx="10" ry="10" style="fill:#b55300"/><ellipse cx="1228" cy="1264.45" rx="10" ry="10" style="fill:#b55300"/><ellipse cx="1249" cy="1264.45" rx="10" ry="10" style="fill:#0e6ba8"/><ellipse cx="1270" cy="1264.45" rx="10" ry="10" style="fill:#0e6ba8"/><ellipse cx="1291" cy="1264.45" rx="10" ry="10" style="fill:#0e6ba8"/><ellipse cx="1312" cy="1264.45" rx="10" ry="10" style="fill:#0e6ba8"/><ellipse cx="1333" cy="1264.45" rx="10" ry="10" style="fill:#0e6ba8"/><ellipse cx="1354" cy="1264.45" rx="10" ry="10" style="fill:#0e6ba8"/><ellipse cx="1375" cy="1264.45" rx="10" ry="10" style="fill:#0e6ba8"/><ellipse cx="1396" cy="1264.45" rx="10" ry="10" style="fill:#0e6ba8"/><ellipse cx="1417" cy="1264.45" rx="10" ry="10" style="fill:#0e6ba8"/><ellipse cx="1438" cy="1264.45" rx="10" ry="10" style="fill:#0e6ba8"/><ellipse cx="10" cy="1285.45" rx="10" ry="10" style="fill:#0e6ba8"/><ellipse cx="31" cy="1285.45" rx="10" ry="10" style="fill:#0e6ba8"/><ellipse cx="52" cy="1285.45" rx="10" ry="10" style="fill:#0e6ba8"/><ellipse cx="73" cy="1285.45" rx="10" ry="10" style="fill:#0e6ba8"/><ellipse cx="94" cy="1285.45" rx="10" ry="10" style="fill:#00072d"/><ellipse cx="115" cy="1285.45" rx="10" ry="10" style="fill:#00072d"/><ellipse cx="136" cy="1285.45" rx="10" ry="10" style="fill:#ce8147"/><ellipse cx="157" cy="1285.45" rx="10" ry="10" style="fill:#3d2645"/><ellipse cx="178" cy="1285.45" rx="10" ry="10" style="fill:#3d2645"/><ellipse cx="199" cy="1285.45" rx="10" ry="10" style="fill:#3d2645"/><ellipse cx="220" cy="1285.45" rx="10" ry="10" style="fill:#3d2645"/><ellipse cx="241" cy="1285.45" rx="10" ry="10" style="fill:#3d2645"/><ellipse cx="262" cy="1285.45" rx="10" ry="10" style="fill:#3d2645"/><ellipse cx="283" cy="1285.45" rx="10" ry="10" style="fill:#3d2645"/><ellipse cx="304" cy="1285.45" rx="10" ry="10" style="fill:#3d2645"/><ellipse cx="325" cy="1285.45" rx="10" ry="10" style="fill:#3d2645"/><ellipse cx="346" cy="1285.45" rx="10" ry="10" style="fill:#3d2645"/><ellipse cx="367" cy="1285.45" rx="10" ry="10" style="fill:#3d2645"/><ellipse cx="388" cy="1285.45" rx="10" ry="10" style="fill:#3d2645"/><ellipse cx="409" cy="1285.45" rx="10" ry="10" style="fill:#3d2645"/><ellipse cx="430" cy="1285.45" rx="10" ry="10" style="fill:#b00b31"/><ellipse cx="451" cy="1285.45" rx="10" ry="10" style="fill:#b00b31"/><ellipse cx="472" cy="1285.45" rx="10" ry="10" style="fill:#b00b31"/><ellipse cx="493" cy="1285.45" rx="10" ry="10" style="fill:#b00b31"/><ellipse cx="514" cy="1285.45" rx="10" ry="10" style="fill:#b00b31"/><ellipse cx="535" cy="1285.45" rx="10" ry="10" style="fill:#561d25"/><ellipse cx="556" cy="1285.45" rx="10" ry="10" style="fill:#561d25"/><ellipse cx="577" cy="1285.45" rx="10" ry="10" style="fill:#561d25"/><ellipse cx="598" cy="1285.45" rx="10" ry="10" style="fill:#561d25"/><ellipse cx="619" cy="1285.45" rx="10" ry="10" style="fill:#561d25"/><ellipse cx="640" cy="1285.45" rx="10" ry="10" style="fill:#561d25"/><ellipse cx="661" cy="1285.45" rx="10" ry="10" style="fill:#561d25"/><ellipse cx="682" cy="1285.45" rx="10" ry="10" style="fill:#a6e1fa"/><ellipse cx="703" cy="1285.45" rx="10" ry="10" style="fill:#a6e1fa"/><ellipse cx="724" cy="1285.45" rx="10" ry="10" style="fill:#a6e1fa"/><ellipse cx="745" cy="1285.45" rx="10" ry="10" style="fill:#a6e1fa"/><ellipse cx="766" cy="1285.45" rx="10" ry="10" style="fill:#a6e1fa"/><ellipse cx="787" cy="1285.45" rx="10" ry="10" style="fill:#a6e1fa"/><ellipse cx="808" cy="1285.45" rx="10" ry="10" style="fill:#a6e1fa"/><ellipse cx="829" cy="1285.45" rx="10" ry="10" style="fill:#6BF178"/><ellipse cx="850" cy="1285.45" rx="10" ry="10" style="fill:#6BF178"/><ellipse cx="871" cy="1285.45" rx="10" ry="10" style="fill:#6BF178"/><ellipse cx="892" cy="1285.45" rx="10" ry="10" style="fill:#6BF178"/><ellipse cx="913" cy="1285.45" rx="10" ry="10" style="fill:#6BF178"/><ellipse cx="934" cy="1285.45" rx="10" ry="10" style="fill:#6BF178"/><ellipse cx="955" cy="1285.45" rx="10" ry="10" style="fill:#6BF178"/><ellipse cx="976" cy="1285.45" rx="10" ry="10" style="fill:#6BF178"/><ellipse cx="997" cy="1285.45" rx="10" ry="10" style="fill:#6BF178"/><ellipse cx="1018" cy="1285.45" rx="10" ry="10" style="fill:#6BF178"/><ellipse cx="1039" cy="1285.45" rx="10" ry="10" style="fill:#6BF178"/><ellipse cx="1060" cy="1285.45" rx="10" ry="10" style="fill:#4d243d"/><ellipse cx="1081" cy="1285.45" rx="10" ry="10" style="fill:#4d243d"/></svg>