<svg width="316" height="291" xmlns="http://www.w3.org/2000/svg"><path d="M10 10 L22 211" style="stroke:#000;stroke-width:1px"/><path d="M22 211 L34 412" style="stroke:#000;stroke-width:1px"/><path d="M34 412 L46 613" style="stroke:#000;stroke-width:1px"/><path d="M46 613 L58 814" style="stroke:#000;stroke-width:1px"/><path d="M58 814 L70 1015" style="stroke:#000;stroke-width:1px"/><path d="M70 1015 L82 1216" style="stroke:#000;stroke-width:1px"/><ellipse cx="82" cy="1216" rx="5" ry="5" style="fill:#6BF178"/><ellipse cx="70" cy="1015" rx="5" ry="5" style="fill:#832161"/><ellipse cx="58" cy="814" rx="5" ry="5" style="fill:#3d2645"/><ellipse cx="46" cy="613" rx="5" ry="5" style="fill:#000000"/><path d="M34 412 L94 613" style="stroke:#000;stroke-width:1px"/><ellipse cx="94" cy="613" rx="5" ry="5" style="fill:#b00b31"/><ellipse cx="34" cy="412" rx="5" ry="5" style="fill:#ff01fb"/><path d="M22 211 L106 412" style="stroke:#000;stroke-width:1px"/><path d="M106 412 L118 613" style="stroke:#000;stroke-width:1px"/><path d="M118 613 L130 814" style="stroke:#000;stroke-width:1px"/><path d="M130 814 L142 1015" style="stroke:#000;stroke-width:1px"/><path d="M142 1015 L154 1216" style="stroke:#000;stroke-width:1px"/><ellipse cx="154" cy="1216" rx="5" ry="5" style="fill:#6BF178"/><ellipse cx="142" cy="1015" rx="5" ry="5" style="fill:#832161"/><ellipse cx="130" cy="814" rx="5" ry="5" style="fill:#3d2645"/><ellipse cx="118" cy="613" rx="5" ry="5" style="fill:#000000"/><path d="M106 412 L166 613" style="stroke:#000;stroke-width:1px"/><path d="M166 613 L178 814" style="stroke:#000;stroke-width:1px"/><path d="M178 814 L190 1015" style="stroke:#000;stroke-width:1px"/><ellipse cx="190" cy="1015" rx="5" ry="5" style="fill:#832161"/><ellipse cx="178" cy="814" rx="5" ry="5" style="fill:#3d2645"/><ellipse cx="166" cy="613" rx="5" ry="5" style="fill:#000000"/><path d="M106 412 L202 613" style="stroke:#000;stroke-width:1px"/><path d="M202 613 L214 814" style="stroke:#000;stroke-width:1px"/><path d="M214 814 L226 1015" style="stroke:#000;stroke-width:1px"/><path d="M226 1015 L238 1216" style="stroke:#000;stroke-width:1px"/><ellipse cx="238" cy="1216" rx="5" ry="5" style="fill:#6BF178"/><ellipse cx="226" cy="1015" rx="5" ry="5" style="fill:#832161"/><ellipse cx="214" cy="814" rx="5" ry="5" style="fill:#3d2645"/><ellipse cx="202" cy="613" rx="5" ry="5" style="fill:#000000"/><path d="M106 412 L250 613" style="stroke:#000;stroke-width:1px"/><ellipse cx="250" cy="613" rx="5" ry="5" style="fill:#b00b31"/><ellipse cx="106" cy="412" rx="5" ry="5" style="fill:#ff01fb"/><path d="M22 211 L262 412" style="stroke:#000;stroke-width:1px"/><path d="M262 412 L274 613" style="stroke:#000;stroke-width:1px"/><path d="M274 613 L286 814" style="stroke:#000;stroke-width:1px"/><path d="M286 814 L298 1015" style="stroke:#000;stroke-width:1px"/><path d="M298 1015 L310 1216" style="stroke:#000;stroke-width:1px"/><ellipse cx="310" cy="1216" rx="5" ry="5" style="fill:#6BF178"/><ellipse cx="298" cy="1015" rx="5" ry="5" style="fill:#832161"/><ellipse cx="286" cy="814" rx="5" ry="5" style="fill:#3d2645"/><ellipse cx="274" cy="613" rx="5" ry="5" style="fill:#000000"/><ellipse cx="262" cy="412" rx="5" ry="5" style="fill:#ff01fb"/><ellipse cx="22" cy="211" rx="5" ry="5" style="fill:#a6e1fa"/><ellipse cx="10" cy="10" rx="5" ry="5" style="fill:#f6511d"/><ellipse cx="10" cy="257.40000000000003" rx="10" ry="10" style="fill:#f6511d"/><ellipse cx="31" cy="257.40000000000003" rx="10" ry="10" style="fill:#a6e1fa"/><ellipse cx="52" cy="257.40000000000003" rx="10" ry="10" style="fill:#ff01fb"/><ellipse cx="73" cy="257.40000000000003" rx="10" ry="10" style="fill:#000000"/><ellipse cx="94" cy="257.40000000000003" rx="10" ry="10" style="fill:#3d2645"/><ellipse cx="115" cy="257.40000000000003" rx="10" ry="10" style="fill:#832161"/><ellipse cx="136" cy="257.40000000000003" rx="10" ry="10" style="fill:#6BF178"/><ellipse cx="157" cy="257.40000000000003" rx="10" ry="10" style="fill:#b00b31"/><ellipse cx="178" cy="257.40000000000003" rx="10" ry="10" style="fill:#ff01fb"/><ellipse cx="199" cy="257.40000000000003" rx="10" ry="10" style="fill:#000000"/><ellipse cx="220" cy="257.40000000000003" rx="10" ry="10" style="fill:#3d2645"/><ellipse cx="241" cy="257.40000000000003" rx="10" ry="10" style="fill:#832161"/><ellipse cx="262" cy="257.40000000000003" rx="10" ry="10" style="fill:#6BF178"/><ellipse cx="283" cy="257.40000000000003" rx="10" ry="10" style="fill:#000000"/><ellipse cx="10" cy="278.40000000000003" rx="10" ry="10" style="fill:#3d2645"/><ellipse cx="31" cy="278.40000000000003" rx="10" ry="10" style="fill:#832161"/><ellipse cx="52" cy="278.40000000000003" rx="10" ry="10" style="fill:#000000"/><ellipse cx="73" cy="278.40000000000003" rx="10" ry="10" style="fill:#3d2645"/><ellipse cx="94" cy="278.40000000000003" rx="10" ry="10" style="fill:#832161"/><ellipse cx="115" cy="278.40000000000003" rx="10" ry="10" style="fill:#6BF178"/><ellipse cx="136" cy="278.40000000000003" rx="10" ry="10" style="fill:#b00b31"/><ellipse cx="157" cy="278.40000000000003" rx="10" ry="10" style="fill:#ff01fb"/><ellipse cx="178" cy="278.40000000000003" rx="10" ry="10" style="fill:#000000"/><ellipse cx="199" cy="278.40000000000003" rx="10" ry="10" style="fill:#3d2645"/><ellipse cx="220" cy="278.40000000000003" rx="10" ry="10" style="fill:#832161"/><ellipse cx="241" cy="278.40000000000003" rx="10" ry="10" style="fill:#6BF178"/><ellipse cx="10" cy="271.7" rx="10" ry="10" style="fill:#f6511d"/><ellipse cx="31" cy="271.7" rx="10" ry="10" style="fill:#832161"/><ellipse cx="52" cy="271.7" rx="10" ry="10" style="fill:#832161"/><ellipse cx="73" cy="271.7" rx="10" ry="10" style="fill:#832161"/><ellipse cx="94" cy="271.7" rx="10" ry="10" style="fill:#832161"/><ellipse cx="115" cy="271.7" rx="10" ry="10" style="fill:#832161"/><ellipse cx="136" cy="271.7" rx="10" ry="10" style="fill:#ff01fb"/><ellipse cx="157" cy="271.7" rx="10" ry="10" style="fill:#ff01fb"/><ellipse cx="178" cy="271.7" rx="10" ry="10" style="fill:#ff01fb"/><ellipse cx="199" cy="271.7" rx="10" ry="10" style="fill:#000000"/><ellipse cx="220" cy="271.7" rx="10" ry="10" style="fill:#000000"/><ellipse cx="241" cy="271.7" rx="10" ry="10" style="fill:#000000"/><ellipse cx="262" cy="271.7" rx="10" ry="10" style="fill:#000000"/><ellipse cx="283" cy="271.7" rx="10" ry="10" style="fill:#000000"/><ellipse cx="10" cy="292.7" rx="10" ry="10" style="fill:#3d2645"/><ellipse cx="31" cy="292.7" rx="10" ry="10" style="fill:#3d2645"/><ellipse cx="52" cy="292.7" rx="10" ry="10" style="fill:#3d2645"/><ellipse cx="73" cy="292.7" rx="10" ry="10" style="fill:#3d2645"/><ellipse cx="94" cy="292.7" rx="10" ry="10" style="fill:#3d2645"/><ellipse cx="115" cy="292.7" rx="10" ry="10" style="fill:#b00b31"/><ellipse cx="136" cy="292.7" rx="10" ry="10" style="fill:#b00b31"/><ellipse cx="157" cy="292.7" rx="10" ry="10" style="fill:#a6e1fa"/><ellipse cx="178" cy="292.7" rx="10" ry="10" style="fill:#6BF178"/><ellipse cx="199" cy="292.7" rx="10" ry="10" style="fill:#6BF178"/><ellipse cx="220" cy="292.7" rx="10" ry="10" style="fill:#6BF178"/><ellipse cx="241" cy="292.7" rx="10" ry="10" style="fill:#6BF178"/></svg>