<svg width="310" height="1410" xmlns="http://www.w3.org/2000/svg"><path d="M70 1200 L40 1400" style="stroke:#000;stroke-width:1px"/><path d="M40 1000 L70 1200" style="stroke:#000;stroke-width:1px"/><path d="M40 800 L40 1200" style="stroke:#000;stroke-width:1px"/><path d="M40 800 L40 1000" style="stroke:#000;stroke-width:1px"/><path d="M40 600 L40 800" style="stroke:#000;stroke-width:1px"/><path d="M100 600 L40 600" style="stroke:#000;stroke-width:1px"/><path d="M100 600 L70 600" style="stroke:#000;stroke-width:1px"/><path d="M40 400 L100 600" style="stroke:#000;stroke-width:1px"/><path d="M100 1200 L100 1400" style="stroke:#000;stroke-width:1px"/><path d="M70 1000 L100 1200" style="stroke:#000;stroke-width:1px"/><path d="M70 800 L40 1200" style="stroke:#000;stroke-width:1px"/><path d="M70 800 L70 1000" style="stroke:#000;stroke-width:1px"/><path d="M130 600 L70 800" style="stroke:#000;stroke-width:1px"/><path d="M100 800 L130 1200" style="stroke:#000;stroke-width:1px"/><path d="M100 800 L100 1000" style="stroke:#000;stroke-width:1px"/><path d="M160 600 L100 800" style="stroke:#000;stroke-width:1px"/><path d="M160 1200 L130 1400" style="stroke:#000;stroke-width:1px"/><path d="M130 1000 L160 1200" style="stroke:#000;stroke-width:1px"/><path d="M130 800 L40 1200" style="stroke:#000;stroke-width:1px"/><path d="M130 800 L130 1000" style="stroke:#000;stroke-width:1px"/><path d="M190 600 L130 800" style="stroke:#000;stroke-width:1px"/><path d="M250 600 L130 600" style="stroke:#000;stroke-width:1px"/><path d="M250 600 L160 600" style="stroke:#000;stroke-width:1px"/><path d="M250 600 L190 600" style="stroke:#000;stroke-width:1px"/><path d="M250 600 L220 600" style="stroke:#000;stroke-width:1px"/><path d="M70 400 L250 600" style="stroke:#000;stroke-width:1px"/><path d="M190 1200 L160 1400" style="stroke:#000;stroke-width:1px"/><path d="M160 1000 L190 1200" style="stroke:#000;stroke-width:1px"/><path d="M160 800 L40 1200" style="stroke:#000;stroke-width:1px"/><path d="M160 800 L160 1000" style="stroke:#000;stroke-width:1px"/><path d="M280 600 L160 800" style="stroke:#000;stroke-width:1px"/><path d="M310 600 L280 600" style="stroke:#000;stroke-width:1px"/><path d="M100 400 L310 600" style="stroke:#000;stroke-width:1px"/><path d="M130 400 L40 400" style="stroke:#000;stroke-width:1px"/><path d="M130 400 L70 400" style="stroke:#000;stroke-width:1px"/><path d="M130 400 L100 400" style="stroke:#000;stroke-width:1px"/><path d="M40 200 L130 400" style="stroke:#000;stroke-width:1px"/><path d="M40 200 L70 1400" style="stroke:#000;stroke-width:1px"/><path d="M40 0 L40 200" style="stroke:#000;stroke-width:1px"/><ellipse cx="40" cy="1200" rx="10" ry="10" style="fill:#6BF178"/><ellipse cx="40" cy="1400" rx="10" ry="10" style="fill:#6BF178"/><ellipse cx="70" cy="1200" rx="10" ry="10" style="fill:#da4167"/><ellipse cx="70" cy="1400" rx="10" ry="10" style="fill:#6BF178"/><ellipse cx="40" cy="1000" rx="10" ry="10" style="fill:#3d2645"/><ellipse cx="40" cy="800" rx="10" ry="10" style="fill:#000000"/><ellipse cx="40" cy="600" rx="10" ry="10" style="fill:#ceb992"/><ellipse cx="70" cy="600" rx="10" ry="10" style="fill:#02a9ea"/><ellipse cx="100" cy="600" rx="10" ry="10" style="fill:#b55300"/><ellipse cx="40" cy="400" rx="10" ry="10" style="fill:#a6e1fa"/><ellipse cx="100" cy="1400" rx="10" ry="10" style="fill:#6BF178"/><ellipse cx="100" cy="1200" rx="10" ry="10" style="fill:#da4167"/><ellipse cx="70" cy="1000" rx="10" ry="10" style="fill:#3d2645"/><ellipse cx="70" cy="800" rx="10" ry="10" style="fill:#000000"/><ellipse cx="130" cy="600" rx="10" ry="10" style="fill:#ceb992"/><ellipse cx="130" cy="1200" rx="10" ry="10" style="fill:#6BF178"/><ellipse cx="100" cy="1000" rx="10" ry="10" style="fill:#3d2645"/><ellipse cx="100" cy="800" rx="10" ry="10" style="fill:#000000"/><ellipse cx="160" cy="600" rx="10" ry="10" style="fill:#ceb992"/><ellipse cx="130" cy="1400" rx="10" ry="10" style="fill:#6BF178"/><ellipse cx="160" cy="1200" rx="10" ry="10" style="fill:#da4167"/><ellipse cx="130" cy="1000" rx="10" ry="10" style="fill:#3d2645"/><ellipse cx="130" cy="800" rx="10" ry="10" style="fill:#000000"/><ellipse cx="190" cy="600" rx="10" ry="10" style="fill:#ceb992"/><ellipse cx="220" cy="600" rx="10" ry="10" style="fill:#02a9ea"/><ellipse cx="250" cy="600" rx="10" ry="10" style="fill:#b55300"/><ellipse cx="70" cy="400" rx="10" ry="10" style="fill:#a6e1fa"/><ellipse cx="160" cy="1400" rx="10" ry="10" style="fill:#6BF178"/><ellipse cx="190" cy="1200" rx="10" ry="10" style="fill:#da4167"/><ellipse cx="160" cy="1000" rx="10" ry="10" style="fill:#3d2645"/><ellipse cx="160" cy="800" rx="10" ry="10" style="fill:#000000"/><ellipse cx="280" cy="600" rx="10" ry="10" style="fill:#ceb992"/><ellipse cx="310" cy="600" rx="10" ry="10" style="fill:#b55300"/><ellipse cx="100" cy="400" rx="10" ry="10" style="fill:#a6e1fa"/><ellipse cx="130" cy="400" rx="10" ry="10" style="fill:#a6e1fa"/><ellipse cx="40" cy="200" rx="10" ry="10" style="fill:#0a2472"/><ellipse cx="40" cy="0" rx="10" ry="10" style="fill:#ce8147"/></svg>