<svg width="532" height="489" xmlns="http://www.w3.org/2000/svg"><path d="M10 10 L22 211" style="stroke:#000;stroke-width:1px"/><path d="M22 211 L34 412" style="stroke:#000;stroke-width:1px"/><path d="M34 412 L46 613" style="stroke:#000;stroke-width:1px"/><ellipse cx="46" cy="613" rx="5" ry="5" style="fill:#b55300"/><ellipse cx="34" cy="412" rx="5" ry="5" style="fill:#ff01fb"/><ellipse cx="22" cy="211" rx="5" ry="5" style="fill:#a6e1fa"/><path d="M10 10 L58 211" style="stroke:#000;stroke-width:1px"/><path d="M58 211 L70 412" style="stroke:#000;stroke-width:1px"/><path d="M70 412 L82 613" style="stroke:#000;stroke-width:1px"/><path d="M82 613 L94 814" style="stroke:#000;stroke-width:1px"/><path d="M94 814 L106 1015" style="stroke:#000;stroke-width:1px"/><path d="M106 1015 L118 1216" style="stroke:#000;stroke-width:1px"/><ellipse cx="118" cy="1216" rx="5" ry="5" style="fill:#6BF178"/><path d="M106 1015 L130 1216" style="stroke:#000;stroke-width:1px"/><ellipse cx="130" cy="1216" rx="5" ry="5" style="fill:#da4167"/><ellipse cx="106" cy="1015" rx="5" ry="5" style="fill:#832161"/><ellipse cx="94" cy="814" rx="5" ry="5" style="fill:#3d2645"/><ellipse cx="82" cy="613" rx="5" ry="5" style="fill:#000000"/><path d="M70 412 L142 613" style="stroke:#000;stroke-width:1px"/><path d="M142 613 L154 814" style="stroke:#000;stroke-width:1px"/><path d="M154 814 L166 1015" style="stroke:#000;stroke-width:1px"/><path d="M166 1015 L178 1216" style="stroke:#000;stroke-width:1px"/><ellipse cx="178" cy="1216" rx="5" ry="5" style="fill:#6BF178"/><path d="M166 1015 L190 1216" style="stroke:#000;stroke-width:1px"/><ellipse cx="190" cy="1216" rx="5" ry="5" style="fill:#da4167"/><ellipse cx="166" cy="1015" rx="5" ry="5" style="fill:#832161"/><ellipse cx="154" cy="814" rx="5" ry="5" style="fill:#3d2645"/><ellipse cx="142" cy="613" rx="5" ry="5" style="fill:#000000"/><path d="M70 412 L202 613" style="stroke:#000;stroke-width:1px"/><path d="M202 613 L214 814" style="stroke:#000;stroke-width:1px"/><ellipse cx="214" cy="814" rx="5" ry="5" style="fill:#ceb992"/><path d="M202 613 L226 814" style="stroke:#000;stroke-width:1px"/><ellipse cx="226" cy="814" rx="5" ry="5" style="fill:#b00b31"/><ellipse cx="202" cy="613" rx="5" ry="5" style="fill:#02a9ea"/><ellipse cx="70" cy="412" rx="5" ry="5" style="fill:#ff01fb"/><path d="M58 211 L238 412" style="stroke:#000;stroke-width:1px"/><path d="M238 412 L250 613" style="stroke:#000;stroke-width:1px"/><path d="M250 613 L262 814" style="stroke:#000;stroke-width:1px"/><path d="M262 814 L274 1015" style="stroke:#000;stroke-width:1px"/><path d="M274 1015 L286 1216" style="stroke:#000;stroke-width:1px"/><ellipse cx="286" cy="1216" rx="5" ry="5" style="fill:#6BF178"/><path d="M274 1015 L298 1216" style="stroke:#000;stroke-width:1px"/><ellipse cx="298" cy="1216" rx="5" ry="5" style="fill:#da4167"/><ellipse cx="274" cy="1015" rx="5" ry="5" style="fill:#832161"/><ellipse cx="262" cy="814" rx="5" ry="5" style="fill:#3d2645"/><ellipse cx="250" cy="613" rx="5" ry="5" style="fill:#000000"/><path d="M238 412 L310 613" style="stroke:#000;stroke-width:1px"/><path d="M310 613 L322 814" style="stroke:#000;stroke-width:1px"/><path d="M322 814 L334 1015" style="stroke:#000;stroke-width:1px"/><path d="M334 1015 L346 1216" style="stroke:#000;stroke-width:1px"/><ellipse cx="346" cy="1216" rx="5" ry="5" style="fill:#6BF178"/><path d="M334 1015 L358 1216" style="stroke:#000;stroke-width:1px"/><ellipse cx="358" cy="1216" rx="5" ry="5" style="fill:#da4167"/><ellipse cx="334" cy="1015" rx="5" ry="5" style="fill:#832161"/><ellipse cx="322" cy="814" rx="5" ry="5" style="fill:#3d2645"/><ellipse cx="310" cy="613" rx="5" ry="5" style="fill:#000000"/><path d="M238 412 L370 613" style="stroke:#000;stroke-width:1px"/><ellipse cx="370" cy="613" rx="5" ry="5" style="fill:#b00b31"/><ellipse cx="238" cy="412" rx="5" ry="5" style="fill:#ff01fb"/><path d="M58 211 L382 412" style="stroke:#000;stroke-width:1px"/><path d="M382 412 L394 613" style="stroke:#000;stroke-width:1px"/><path d="M394 613 L406 814" style="stroke:#000;stroke-width:1px"/><path d="M406 814 L418 1015" style="stroke:#000;stroke-width:1px"/><ellipse cx="418" cy="1015" rx="5" ry="5" style="fill:#832161"/><ellipse cx="406" cy="814" rx="5" ry="5" style="fill:#3d2645"/><ellipse cx="394" cy="613" rx="5" ry="5" style="fill:#000000"/><path d="M382 412 L430 613" style="stroke:#000;stroke-width:1px"/><path d="M430 613 L442 814" style="stroke:#000;stroke-width:1px"/><ellipse cx="442" cy="814" rx="5" ry="5" style="fill:#ceb992"/><path d="M430 613 L454 814" style="stroke:#000;stroke-width:1px"/><ellipse cx="454" cy="814" rx="5" ry="5" style="fill:#b55300"/><ellipse cx="430" cy="613" rx="5" ry="5" style="fill:#02a9ea"/><ellipse cx="382" cy="412" rx="5" ry="5" style="fill:#ff01fb"/><ellipse cx="58" cy="211" rx="5" ry="5" style="fill:#a6e1fa"/><path d="M10 10 L466 211" style="stroke:#000;stroke-width:1px"/><path d="M466 211 L478 412" style="stroke:#000;stroke-width:1px"/><path d="M478 412 L490 613" style="stroke:#000;stroke-width:1px"/><path d="M490 613 L502 814" style="stroke:#000;stroke-width:1px"/><path d="M502 814 L514 1015" style="stroke:#000;stroke-width:1px"/><path d="M514 1015 L526 1216" style="stroke:#000;stroke-width:1px"/><ellipse cx="526" cy="1216" rx="5" ry="5" style="fill:#6BF178"/><ellipse cx="514" cy="1015" rx="5" ry="5" style="fill:#832161"/><ellipse cx="502" cy="814" rx="5" ry="5" style="fill:#3d2645"/><ellipse cx="490" cy="613" rx="5" ry="5" style="fill:#000000"/><ellipse cx="478" cy="412" rx="5" ry="5" style="fill:#ff01fb"/><ellipse cx="466" cy="211" rx="5" ry="5" style="fill:#a6e1fa"/><ellipse cx="10" cy="10" rx="5" ry="5" style="fill:#f6511d"/><ellipse cx="10" cy="435.6" rx="10" ry="10" style="fill:#f6511d"/><ellipse cx="31" cy="435.6" rx="10" ry="10" style="fill:#a6e1fa"/><ellipse cx="52" cy="435.6" rx="10" ry="10" style="fill:#ff01fb"/><ellipse cx="73" cy="435.6" rx="10" ry="10" style="fill:#b55300"/><ellipse cx="94" cy="435.6" rx="10" ry="10" style="fill:#a6e1fa"/><ellipse cx="115" cy="435.6" rx="10" ry="10" style="fill:#ff01fb"/><ellipse cx="136" cy="435.6" rx="10" ry="10" style="fill:#000000"/><ellipse cx="157" cy="435.6" rx="10" ry="10" style="fill:#3d2645"/><ellipse cx="178" cy="435.6" rx="10" ry="10" style="fill:#832161"/><ellipse cx="199" cy="435.6" rx="10" ry="10" style="fill:#6BF178"/><ellipse cx="220" cy="435.6" rx="10" ry="10" style="fill:#da4167"/><ellipse cx="241" cy="435.6" rx="10" ry="10" style="fill:#000000"/><ellipse cx="262" cy="435.6" rx="10" ry="10" style="fill:#3d2645"/><ellipse cx="283" cy="435.6" rx="10" ry="10" style="fill:#832161"/><ellipse cx="304" cy="435.6" rx="10" ry="10" style="fill:#6BF178"/><ellipse cx="325" cy="435.6" rx="10" ry="10" style="fill:#da4167"/><ellipse cx="346" cy="435.6" rx="10" ry="10" style="fill:#02a9ea"/><ellipse cx="367" cy="435.6" rx="10" ry="10" style="fill:#ceb992"/><ellipse cx="388" cy="435.6" rx="10" ry="10" style="fill:#b00b31"/><ellipse cx="409" cy="435.6" rx="10" ry="10" style="fill:#ff01fb"/><ellipse cx="430" cy="435.6" rx="10" ry="10" style="fill:#000000"/><ellipse cx="451" cy="435.6" rx="10" ry="10" style="fill:#3d2645"/><ellipse cx="472" cy="435.6" rx="10" ry="10" style="fill:#832161"/><ellipse cx="493" cy="435.6" rx="10" ry="10" style="fill:#6BF178"/><ellipse cx="514" cy="435.6" rx="10" ry="10" style="fill:#da4167"/><ellipse cx="10" cy="456.6" rx="10" ry="10" style="fill:#000000"/><ellipse cx="31" cy="456.6" rx="10" ry="10" style="fill:#3d2645"/><ellipse cx="52" cy="456.6" rx="10" ry="10" style="fill:#832161"/><ellipse cx="73" cy="456.6" rx="10" ry="10" style="fill:#6BF178"/><ellipse cx="94" cy="456.6" rx="10" ry="10" style="fill:#da4167"/><ellipse cx="115" cy="456.6" rx="10" ry="10" style="fill:#b00b31"/><ellipse cx="136" cy="456.6" rx="10" ry="10" style="fill:#ff01fb"/><ellipse cx="157" cy="456.6" rx="10" ry="10" style="fill:#000000"/><ellipse cx="178" cy="456.6" rx="10" ry="10" style="fill:#3d2645"/><ellipse cx="199" cy="456.6" rx="10" ry="10" style="fill:#832161"/><ellipse cx="220" cy="456.6" rx="10" ry="10" style="fill:#02a9ea"/><ellipse cx="241" cy="456.6" rx="10" ry="10" style="fill:#ceb992"/><ellipse cx="262" cy="456.6" rx="10" ry="10" style="fill:#b55300"/><ellipse cx="283" cy="456.6" rx="10" ry="10" style="fill:#a6e1fa"/><ellipse cx="304" cy="456.6" rx="10" ry="10" style="fill:#ff01fb"/><ellipse cx="325" cy="456.6" rx="10" ry="10" style="fill:#000000"/><ellipse cx="346" cy="456.6" rx="10" ry="10" style="fill:#3d2645"/><ellipse cx="367" cy="456.6" rx="10" ry="10" style="fill:#832161"/><ellipse cx="388" cy="456.6" rx="10" ry="10" style="fill:#6BF178"/><ellipse cx="10" cy="459.79999999999995" rx="10" ry="10" style="fill:#f6511d"/><ellipse cx="31" cy="459.79999999999995" rx="10" ry="10" style="fill:#832161"/><ellipse cx="52" cy="459.79999999999995" rx="10" ry="10" style="fill:#832161"/><ellipse cx="73" cy="459.79999999999995" rx="10" ry="10" style="fill:#832161"/><ellipse cx="94" cy="459.79999999999995" rx="10" ry="10" style="fill:#832161"/><ellipse cx="115" cy="459.79999999999995" rx="10" ry="10" style="fill:#832161"/><ellipse cx="136" cy="459.79999999999995" rx="10" ry="10" style="fill:#832161"/><ellipse cx="157" cy="459.79999999999995" rx="10" ry="10" style="fill:#ff01fb"/><ellipse cx="178" cy="459.79999999999995" rx="10" ry="10" style="fill:#ff01fb"/><ellipse cx="199" cy="459.79999999999995" rx="10" ry="10" style="fill:#ff01fb"/><ellipse cx="220" cy="459.79999999999995" rx="10" ry="10" style="fill:#ff01fb"/><ellipse cx="241" cy="459.79999999999995" rx="10" ry="10" style="fill:#ff01fb"/><ellipse cx="262" cy="459.79999999999995" rx="10" ry="10" style="fill:#da4167"/><ellipse cx="283" cy="459.79999999999995" rx="10" ry="10" style="fill:#da4167"/><ellipse cx="304" cy="459.79999999999995" rx="10" ry="10" style="fill:#da4167"/><ellipse cx="325" cy="459.79999999999995" rx="10" ry="10" style="fill:#da4167"/><ellipse cx="346" cy="459.79999999999995" rx="10" ry="10" style="fill:#ceb992"/><ellipse cx="367" cy="459.79999999999995" rx="10" ry="10" style="fill:#ceb992"/><ellipse cx="388" cy="459.79999999999995" rx="10" ry="10" style="fill:#000000"/><ellipse cx="409" cy="459.79999999999995" rx="10" ry="10" style="fill:#000000"/><ellipse cx="430" cy="459.79999999999995" rx="10" ry="10" style="fill:#000000"/><ellipse cx="451" cy="459.79999999999995" rx="10" ry="10" style="fill:#000000"/><ellipse cx="472" cy="459.79999999999995" rx="10" ry="10" style="fill:#000000"/><ellipse cx="493" cy="459.79999999999995" rx="10" ry="10" style="fill:#000000"/><ellipse cx="514" cy="459.79999999999995" rx="10" ry="10" style="fill:#b55300"/><ellipse cx="10" cy="480.79999999999995" rx="10" ry="10" style="fill:#b55300"/><ellipse cx="31" cy="480.79999999999995" rx="10" ry="10" style="fill:#3d2645"/><ellipse cx="52" cy="480.79999999999995" rx="10" ry="10" style="fill:#3d2645"/><ellipse cx="73" cy="480.79999999999995" rx="10" ry="10" style="fill:#3d2645"/><ellipse cx="94" cy="480.79999999999995" rx="10" ry="10" style="fill:#3d2645"/><ellipse cx="115" cy="480.79999999999995" rx="10" ry="10" style="fill:#3d2645"/><ellipse cx="136" cy="480.79999999999995" rx="10" ry="10" style="fill:#3d2645"/><ellipse cx="157" cy="480.79999999999995" rx="10" ry="10" style="fill:#b00b31"/><ellipse cx="178" cy="480.79999999999995" rx="10" ry="10" style="fill:#b00b31"/><ellipse cx="199" cy="480.79999999999995" rx="10" ry="10" style="fill:#a6e1fa"/><ellipse cx="220" cy="480.79999999999995" rx="10" ry="10" style="fill:#a6e1fa"/><ellipse cx="241" cy="480.79999999999995" rx="10" ry="10" style="fill:#a6e1fa"/><ellipse cx="262" cy="480.79999999999995" rx="10" ry="10" style="fill:#6BF178"/><ellipse cx="283" cy="480.79999999999995" rx="10" ry="10" style="fill:#6BF178"/><ellipse cx="304" cy="480.79999999999995" rx="10" ry="10" style="fill:#6BF178"/><ellipse cx="325" cy="480.79999999999995" rx="10" ry="10" style="fill:#6BF178"/><ellipse cx="346" cy="480.79999999999995" rx="10" ry="10" style="fill:#6BF178"/><ellipse cx="367" cy="480.79999999999995" rx="10" ry="10" style="fill:#02a9ea"/><ellipse cx="388" cy="480.79999999999995" rx="10" ry="10" style="fill:#02a9ea"/></svg>