<svg width="1420" height="1303" xmlns="http://www.w3.org/2000/svg"><path d="M10 10 L22 211" style="stroke:#000;stroke-width:1px"/><path d="M22 211 L34 412" style="stroke:#000;stroke-width:1px"/><path d="M34 412 L46 613" style="stroke:#000;stroke-width:1px"/><path d="M46 613 L58 814" style="stroke:#000;stroke-width:1px"/><ellipse cx="58" cy="814" rx="5" ry="5" style="fill:#0e6ba8"/><path d="M46 613 L70 814" style="stroke:#000;stroke-width:1px"/><ellipse cx="70" cy="814" rx="5" ry="5" style="fill:#99ddc8"/><ellipse cx="46" cy="613" rx="5" ry="5" style="fill:#0a2472"/><path d="M34 412 L82 613" style="stroke:#000;stroke-width:1px"/><path d="M82 613 L94 814" style="stroke:#000;stroke-width:1px"/><path d="M94 814 L106 1015" style="stroke:#000;stroke-width:1px"/><ellipse cx="106" cy="1015" rx="5" ry="5" style="fill:#0e6ba8"/><path d="M94 814 L118 1015" style="stroke:#000;stroke-width:1px"/><ellipse cx="118" cy="1015" rx="5" ry="5" style="fill:#0e6ba8"/><path d="M94 814 L130 1015" style="stroke:#000;stroke-width:1px"/><ellipse cx="130" cy="1015" rx="5" ry="5" style="fill:#0e6ba8"/><ellipse cx="94" cy="814" rx="5" ry="5" style="fill:#832161"/><path d="M82 613 L142 814" style="stroke:#000;stroke-width:1px"/><path d="M142 814 L154 1015" style="stroke:#000;stroke-width:1px"/><path d="M154 1015 L166 1216" style="stroke:#000;stroke-width:1px"/><path d="M166 1216 L178 1417" style="stroke:#000;stroke-width:1px"/><path d="M178 1417 L190 1618" style="stroke:#000;stroke-width:1px"/><ellipse cx="190" cy="1618" rx="5" ry="5" style="fill:#832161"/><ellipse cx="178" cy="1417" rx="5" ry="5" style="fill:#3d2645"/><path d="M166 1216 L202 1417" style="stroke:#000;stroke-width:1px"/><ellipse cx="202" cy="1417" rx="5" ry="5" style="fill:#0e6ba8"/><ellipse cx="166" cy="1216" rx="5" ry="5" style="fill:#001c55"/><path d="M154 1015 L214 1216" style="stroke:#000;stroke-width:1px"/><path d="M214 1216 L226 1417" style="stroke:#000;stroke-width:1px"/><path d="M226 1417 L238 1618" style="stroke:#000;stroke-width:1px"/><ellipse cx="238" cy="1618" rx="5" ry="5" style="fill:#832161"/><ellipse cx="226" cy="1417" rx="5" ry="5" style="fill:#3d2645"/><ellipse cx="214" cy="1216" rx="5" ry="5" style="fill:#000000"/><ellipse cx="154" cy="1015" rx="5" ry="5" style="fill:#00072d"/><path d="M142 814 L250 1015" style="stroke:#000;stroke-width:1px"/><path d="M250 1015 L262 1216" style="stroke:#000;stroke-width:1px"/><path d="M262 1216 L274 1417" style="stroke:#000;stroke-width:1px"/><path d="M274 1417 L286 1618" style="stroke:#000;stroke-width:1px"/><path d="M286 1618 L298 1819" style="stroke:#000;stroke-width:1px"/><ellipse cx="298" cy="1819" rx="5" ry="5" style="fill:#832161"/><ellipse cx="286" cy="1618" rx="5" ry="5" style="fill:#3d2645"/><ellipse cx="274" cy="1417" rx="5" ry="5" style="fill:#832161"/><ellipse cx="262" cy="1216" rx="5" ry="5" style="fill:#3d2645"/><ellipse cx="250" cy="1015" rx="5" ry="5" style="fill:#000000"/><ellipse cx="142" cy="814" rx="5" ry="5" style="fill:#ff01fb"/><ellipse cx="82" cy="613" rx="5" ry="5" style="fill:#ce8147"/><path d="M34 412 L310 613" style="stroke:#000;stroke-width:1px"/><ellipse cx="310" cy="613" rx="5" ry="5" style="fill:#b55300"/><ellipse cx="34" cy="412" rx="5" ry="5" style="fill:#ff01fb"/><ellipse cx="22" cy="211" rx="5" ry="5" style="fill:#a6e1fa"/><path d="M10 10 L322 211" style="stroke:#000;stroke-width:1px"/><path d="M322 211 L334 412" style="stroke:#000;stroke-width:1px"/><path d="M334 412 L346 613" style="stroke:#000;stroke-width:1px"/><path d="M346 613 L358 814" style="stroke:#000;stroke-width:1px"/><ellipse cx="358" cy="814" rx="5" ry="5" style="fill:#0e6ba8"/><path d="M346 613 L370 814" style="stroke:#000;stroke-width:1px"/><path d="M370 814 L382 1015" style="stroke:#000;stroke-width:1px"/><ellipse cx="382" cy="1015" rx="5" ry="5" style="fill:#832161"/><ellipse cx="370" cy="814" rx="5" ry="5" style="fill:#3d2645"/><ellipse cx="346" cy="613" rx="5" ry="5" style="fill:#0a2472"/><path d="M334 412 L394 613" style="stroke:#000;stroke-width:1px"/><path d="M394 613 L406 814" style="stroke:#000;stroke-width:1px"/><path d="M406 814 L418 1015" style="stroke:#000;stroke-width:1px"/><ellipse cx="418" cy="1015" rx="5" ry="5" style="fill:#6BF178"/><path d="M406 814 L430 1015" style="stroke:#000;stroke-width:1px"/><path d="M430 1015 L442 1216" style="stroke:#000;stroke-width:1px"/><ellipse cx="442" cy="1216" rx="5" ry="5" style="fill:#0e6ba8"/><path d="M430 1015 L454 1216" style="stroke:#000;stroke-width:1px"/><ellipse cx="454" cy="1216" rx="5" ry="5" style="fill:#da4167"/><ellipse cx="430" cy="1015" rx="5" ry="5" style="fill:#561d25"/><ellipse cx="406" cy="814" rx="5" ry="5" style="fill:#561d25"/><ellipse cx="394" cy="613" rx="5" ry="5" style="fill:#b55300"/><ellipse cx="334" cy="412" rx="5" ry="5" style="fill:#ff01fb"/><ellipse cx="322" cy="211" rx="5" ry="5" style="fill:#a6e1fa"/><path d="M10 10 L466 211" style="stroke:#000;stroke-width:1px"/><path d="M466 211 L478 412" style="stroke:#000;stroke-width:1px"/><path d="M478 412 L490 613" style="stroke:#000;stroke-width:1px"/><path d="M490 613 L502 814" style="stroke:#000;stroke-width:1px"/><path d="M502 814 L514 1015" style="stroke:#000;stroke-width:1px"/><ellipse cx="514" cy="1015" rx="5" ry="5" style="fill:#832161"/><ellipse cx="502" cy="814" rx="5" ry="5" style="fill:#3d2645"/><ellipse cx="490" cy="613" rx="5" ry="5" style="fill:#000000"/><path d="M478 412 L526 613" style="stroke:#000;stroke-width:1px"/><path d="M526 613 L538 814" style="stroke:#000;stroke-width:1px"/><path d="M538 814 L550 1015" style="stroke:#000;stroke-width:1px"/><path d="M550 1015 L562 1216" style="stroke:#000;stroke-width:1px"/><path d="M562 1216 L574 1417" style="stroke:#000;stroke-width:1px"/><ellipse cx="574" cy="1417" rx="5" ry="5" style="fill:#6BF178"/><ellipse cx="562" cy="1216" rx="5" ry="5" style="fill:#832161"/><ellipse cx="550" cy="1015" rx="5" ry="5" style="fill:#3d2645"/><path d="M538 814 L586 1015" style="stroke:#000;stroke-width:1px"/><ellipse cx="586" cy="1015" rx="5" ry="5" style="fill:#0e6ba8"/><ellipse cx="538" cy="814" rx="5" ry="5" style="fill:#001c55"/><path d="M526 613 L598 814" style="stroke:#000;stroke-width:1px"/><path d="M598 814 L610 1015" style="stroke:#000;stroke-width:1px"/><path d="M610 1015 L622 1216" style="stroke:#000;stroke-width:1px"/><path d="M622 1216 L634 1417" style="stroke:#000;stroke-width:1px"/><path d="M634 1417 L646 1618" style="stroke:#000;stroke-width:1px"/><ellipse cx="646" cy="1618" rx="5" ry="5" style="fill:#6BF178"/><ellipse cx="634" cy="1417" rx="5" ry="5" style="fill:#832161"/><ellipse cx="622" cy="1216" rx="5" ry="5" style="fill:#3d2645"/><ellipse cx="610" cy="1015" rx="5" ry="5" style="fill:#000000"/><path d="M598 814 L658 1015" style="stroke:#000;stroke-width:1px"/><ellipse cx="658" cy="1015" rx="5" ry="5" style="fill:#b00b31"/><ellipse cx="598" cy="814" rx="5" ry="5" style="fill:#ff01fb"/><ellipse cx="526" cy="613" rx="5" ry="5" style="fill:#00072d"/><ellipse cx="478" cy="412" rx="5" ry="5" style="fill:#ff01fb"/><path d="M466 211 L670 412" style="stroke:#000;stroke-width:1px"/><path d="M670 412 L682 613" style="stroke:#000;stroke-width:1px"/><path d="M682 613 L694 814" style="stroke:#000;stroke-width:1px"/><path d="M694 814 L706 1015" style="stroke:#000;stroke-width:1px"/><ellipse cx="706" cy="1015" rx="5" ry="5" style="fill:#832161"/><ellipse cx="694" cy="814" rx="5" ry="5" style="fill:#3d2645"/><ellipse cx="682" cy="613" rx="5" ry="5" style="fill:#000000"/><path d="M670 412 L718 613" style="stroke:#000;stroke-width:1px"/><ellipse cx="718" cy="613" rx="5" ry="5" style="fill:#b00b31"/><ellipse cx="670" cy="412" rx="5" ry="5" style="fill:#ff01fb"/><path d="M466 211 L730 412" style="stroke:#000;stroke-width:1px"/><path d="M730 412 L742 613" style="stroke:#000;stroke-width:1px"/><ellipse cx="742" cy="613" rx="5" ry="5" style="fill:#b55300"/><ellipse cx="730" cy="412" rx="5" ry="5" style="fill:#ff01fb"/><ellipse cx="466" cy="211" rx="5" ry="5" style="fill:#a6e1fa"/><path d="M10 10 L754 211" style="stroke:#000;stroke-width:1px"/><path d="M754 211 L766 412" style="stroke:#000;stroke-width:1px"/><path d="M766 412 L778 613" style="stroke:#000;stroke-width:1px"/><path d="M778 613 L790 814" style="stroke:#000;stroke-width:1px"/><path d="M790 814 L802 1015" style="stroke:#000;stroke-width:1px"/><ellipse cx="802" cy="1015" rx="5" ry="5" style="fill:#832161"/><ellipse cx="790" cy="814" rx="5" ry="5" style="fill:#3d2645"/><ellipse cx="778" cy="613" rx="5" ry="5" style="fill:#000000"/><path d="M766 412 L814 613" style="stroke:#000;stroke-width:1px"/><path d="M814 613 L826 814" style="stroke:#000;stroke-width:1px"/><path d="M826 814 L838 1015" style="stroke:#000;stroke-width:1px"/><path d="M838 1015 L850 1216" style="stroke:#000;stroke-width:1px"/><path d="M850 1216 L862 1417" style="stroke:#000;stroke-width:1px"/><ellipse cx="862" cy="1417" rx="5" ry="5" style="fill:#6BF178"/><ellipse cx="850" cy="1216" rx="5" ry="5" style="fill:#832161"/><ellipse cx="838" cy="1015" rx="5" ry="5" style="fill:#3d2645"/><path d="M826 814 L874 1015" style="stroke:#000;stroke-width:1px"/><ellipse cx="874" cy="1015" rx="5" ry="5" style="fill:#0e6ba8"/><ellipse cx="826" cy="814" rx="5" ry="5" style="fill:#001c55"/><path d="M814 613 L886 814" style="stroke:#000;stroke-width:1px"/><path d="M886 814 L898 1015" style="stroke:#000;stroke-width:1px"/><path d="M898 1015 L910 1216" style="stroke:#000;stroke-width:1px"/><path d="M910 1216 L922 1417" style="stroke:#000;stroke-width:1px"/><path d="M922 1417 L934 1618" style="stroke:#000;stroke-width:1px"/><ellipse cx="934" cy="1618" rx="5" ry="5" style="fill:#6BF178"/><ellipse cx="922" cy="1417" rx="5" ry="5" style="fill:#832161"/><ellipse cx="910" cy="1216" rx="5" ry="5" style="fill:#3d2645"/><ellipse cx="898" cy="1015" rx="5" ry="5" style="fill:#000000"/><path d="M886 814 L946 1015" style="stroke:#000;stroke-width:1px"/><ellipse cx="946" cy="1015" rx="5" ry="5" style="fill:#b00b31"/><ellipse cx="886" cy="814" rx="5" ry="5" style="fill:#ff01fb"/><ellipse cx="814" cy="613" rx="5" ry="5" style="fill:#00072d"/><ellipse cx="766" cy="412" rx="5" ry="5" style="fill:#ff01fb"/><path d="M754 211 L958 412" style="stroke:#000;stroke-width:1px"/><path d="M958 412 L970 613" style="stroke:#000;stroke-width:1px"/><path d="M970 613 L982 814" style="stroke:#000;stroke-width:1px"/><path d="M982 814 L994 1015" style="stroke:#000;stroke-width:1px"/><ellipse cx="994" cy="1015" rx="5" ry="5" style="fill:#832161"/><ellipse cx="982" cy="814" rx="5" ry="5" style="fill:#3d2645"/><ellipse cx="970" cy="613" rx="5" ry="5" style="fill:#000000"/><path d="M958 412 L1006 613" style="stroke:#000;stroke-width:1px"/><ellipse cx="1006" cy="613" rx="5" ry="5" style="fill:#b00b31"/><ellipse cx="958" cy="412" rx="5" ry="5" style="fill:#ff01fb"/><path d="M754 211 L1018 412" style="stroke:#000;stroke-width:1px"/><path d="M1018 412 L1030 613" style="stroke:#000;stroke-width:1px"/><ellipse cx="1030" cy="613" rx="5" ry="5" style="fill:#b55300"/><ellipse cx="1018" cy="412" rx="5" ry="5" style="fill:#ff01fb"/><ellipse cx="754" cy="211" rx="5" ry="5" style="fill:#a6e1fa"/><path d="M10 10 L1042 211" style="stroke:#000;stroke-width:1px"/><path d="M1042 211 L1054 412" style="stroke:#000;stroke-width:1px"/><path d="M1054 412 L1066 613" style="stroke:#000;stroke-width:1px"/><path d="M1066 613 L1078 814" style="stroke:#000;stroke-width:1px"/><path d="M1078 814 L1090 1015" style="stroke:#000;stroke-width:1px"/><ellipse cx="1090" cy="1015" rx="5" ry="5" style="fill:#832161"/><ellipse cx="1078" cy="814" rx="5" ry="5" style="fill:#3d2645"/><ellipse cx="1066" cy="613" rx="5" ry="5" style="fill:#000000"/><path d="M1054 412 L1102 613" style="stroke:#000;stroke-width:1px"/><path d="M1102 613 L1114 814" style="stroke:#000;stroke-width:1px"/><path d="M1114 814 L1126 1015" style="stroke:#000;stroke-width:1px"/><path d="M1126 1015 L1138 1216" style="stroke:#000;stroke-width:1px"/><path d="M1138 1216 L1150 1417" style="stroke:#000;stroke-width:1px"/><ellipse cx="1150" cy="1417" rx="5" ry="5" style="fill:#6BF178"/><ellipse cx="1138" cy="1216" rx="5" ry="5" style="fill:#832161"/><ellipse cx="1126" cy="1015" rx="5" ry="5" style="fill:#3d2645"/><path d="M1114 814 L1162 1015" style="stroke:#000;stroke-width:1px"/><ellipse cx="1162" cy="1015" rx="5" ry="5" style="fill:#0e6ba8"/><ellipse cx="1114" cy="814" rx="5" ry="5" style="fill:#001c55"/><path d="M1102 613 L1174 814" style="stroke:#000;stroke-width:1px"/><path d="M1174 814 L1186 1015" style="stroke:#000;stroke-width:1px"/><path d="M1186 1015 L1198 1216" style="stroke:#000;stroke-width:1px"/><path d="M1198 1216 L1210 1417" style="stroke:#000;stroke-width:1px"/><path d="M1210 1417 L1222 1618" style="stroke:#000;stroke-width:1px"/><ellipse cx="1222" cy="1618" rx="5" ry="5" style="fill:#6BF178"/><ellipse cx="1210" cy="1417" rx="5" ry="5" style="fill:#832161"/><ellipse cx="1198" cy="1216" rx="5" ry="5" style="fill:#3d2645"/><ellipse cx="1186" cy="1015" rx="5" ry="5" style="fill:#000000"/><path d="M1174 814 L1234 1015" style="stroke:#000;stroke-width:1px"/><ellipse cx="1234" cy="1015" rx="5" ry="5" style="fill:#b00b31"/><ellipse cx="1174" cy="814" rx="5" ry="5" style="fill:#ff01fb"/><ellipse cx="1102" cy="613" rx="5" ry="5" style="fill:#00072d"/><ellipse cx="1054" cy="412" rx="5" ry="5" style="fill:#ff01fb"/><path d="M1042 211 L1246 412" style="stroke:#000;stroke-width:1px"/><path d="M1246 412 L1258 613" style="stroke:#000;stroke-width:1px"/><path d="M1258 613 L1270 814" style="stroke:#000;stroke-width:1px"/><path d="M1270 814 L1282 1015" style="stroke:#000;stroke-width:1px"/><ellipse cx="1282" cy="1015" rx="5" ry="5" style="fill:#832161"/><ellipse cx="1270" cy="814" rx="5" ry="5" style="fill:#3d2645"/><ellipse cx="1258" cy="613" rx="5" ry="5" style="fill:#000000"/><path d="M1246 412 L1294 613" style="stroke:#000;stroke-width:1px"/><ellipse cx="1294" cy="613" rx="5" ry="5" style="fill:#b00b31"/><ellipse cx="1246" cy="412" rx="5" ry="5" style="fill:#ff01fb"/><path d="M1042 211 L1306 412" style="stroke:#000;stroke-width:1px"/><path d="M1306 412 L1318 613" style="stroke:#000;stroke-width:1px"/><ellipse cx="1318" cy="613" rx="5" ry="5" style="fill:#b55300"/><ellipse cx="1306" cy="412" rx="5" ry="5" style="fill:#ff01fb"/><ellipse cx="1042" cy="211" rx="5" ry="5" style="fill:#a6e1fa"/><path d="M10 10 L1330 211" style="stroke:#000;stroke-width:1px"/><path d="M1330 211 L1342 412" style="stroke:#000;stroke-width:1px"/><path d="M1342 412 L1354 613" style="stroke:#000;stroke-width:1px"/><path d="M1354 613 L1366 814" style="stroke:#000;stroke-width:1px"/><path d="M1366 814 L1378 1015" style="stroke:#000;stroke-width:1px"/><path d="M1378 1015 L1390 1216" style="stroke:#000;stroke-width:1px"/><ellipse cx="1390" cy="1216" rx="5" ry="5" style="fill:#da4167"/><path d="M1378 1015 L1402 1216" style="stroke:#000;stroke-width:1px"/><ellipse cx="1402" cy="1216" rx="5" ry="5" style="fill:#da4167"/><path d="M1378 1015 L1414 1216" style="stroke:#000;stroke-width:1px"/><ellipse cx="1414" cy="1216" rx="5" ry="5" style="fill:#da4167"/><ellipse cx="1378" cy="1015" rx="5" ry="5" style="fill:#832161"/><ellipse cx="1366" cy="814" rx="5" ry="5" style="fill:#3d2645"/><ellipse cx="1354" cy="613" rx="5" ry="5" style="fill:#000000"/><ellipse cx="1342" cy="412" rx="5" ry="5" style="fill:#ff01fb"/><ellipse cx="1330" cy="211" rx="5" ry="5" style="fill:#a6e1fa"/><ellipse cx="10" cy="10" rx="5" ry="5" style="fill:#f6511d"/><ellipse cx="10" cy="1168.2" rx="10" ry="10" style="fill:#f6511d"/><ellipse cx="31" cy="1168.2" rx="10" ry="10" style="fill:#a6e1fa"/><ellipse cx="52" cy="1168.2" rx="10" ry="10" style="fill:#ff01fb"/><ellipse cx="73" cy="1168.2" rx="10" ry="10" style="fill:#0a2472"/><ellipse cx="94" cy="1168.2" rx="10" ry="10" style="fill:#0e6ba8"/><ellipse cx="115" cy="1168.2" rx="10" ry="10" style="fill:#99ddc8"/><ellipse cx="136" cy="1168.2" rx="10" ry="10" style="fill:#ce8147"/><ellipse cx="157" cy="1168.2" rx="10" ry="10" style="fill:#832161"/><ellipse cx="178" cy="1168.2" rx="10" ry="10" style="fill:#0e6ba8"/><ellipse cx="199" cy="1168.2" rx="10" ry="10" style="fill:#0e6ba8"/><ellipse cx="220" cy="1168.2" rx="10" ry="10" style="fill:#0e6ba8"/><ellipse cx="241" cy="1168.2" rx="10" ry="10" style="fill:#ff01fb"/><ellipse cx="262" cy="1168.2" rx="10" ry="10" style="fill:#00072d"/><ellipse cx="283" cy="1168.2" rx="10" ry="10" style="fill:#001c55"/><ellipse cx="304" cy="1168.2" rx="10" ry="10" style="fill:#3d2645"/><ellipse cx="325" cy="1168.2" rx="10" ry="10" style="fill:#832161"/><ellipse cx="346" cy="1168.2" rx="10" ry="10" style="fill:#0e6ba8"/><ellipse cx="367" cy="1168.2" rx="10" ry="10" style="fill:#000000"/><ellipse cx="388" cy="1168.2" rx="10" ry="10" style="fill:#3d2645"/><ellipse cx="409" cy="1168.2" rx="10" ry="10" style="fill:#832161"/><ellipse cx="430" cy="1168.2" rx="10" ry="10" style="fill:#000000"/><ellipse cx="451" cy="1168.2" rx="10" ry="10" style="fill:#3d2645"/><ellipse cx="472" cy="1168.2" rx="10" ry="10" style="fill:#832161"/><ellipse cx="493" cy="1168.2" rx="10" ry="10" style="fill:#3d2645"/><ellipse cx="514" cy="1168.2" rx="10" ry="10" style="fill:#832161"/><ellipse cx="535" cy="1168.2" rx="10" ry="10" style="fill:#b55300"/><ellipse cx="556" cy="1168.2" rx="10" ry="10" style="fill:#a6e1fa"/><ellipse cx="577" cy="1168.2" rx="10" ry="10" style="fill:#ff01fb"/><ellipse cx="598" cy="1168.2" rx="10" ry="10" style="fill:#0a2472"/><ellipse cx="619" cy="1168.2" rx="10" ry="10" style="fill:#0e6ba8"/><ellipse cx="640" cy="1168.2" rx="10" ry="10" style="fill:#3d2645"/><ellipse cx="661" cy="1168.2" rx="10" ry="10" style="fill:#832161"/><ellipse cx="682" cy="1168.2" rx="10" ry="10" style="fill:#b55300"/><ellipse cx="703" cy="1168.2" rx="10" ry="10" style="fill:#561d25"/><ellipse cx="724" cy="1168.2" rx="10" ry="10" style="fill:#6BF178"/><ellipse cx="745" cy="1168.2" rx="10" ry="10" style="fill:#561d25"/><ellipse cx="766" cy="1168.2" rx="10" ry="10" style="fill:#0e6ba8"/><ellipse cx="787" cy="1168.2" rx="10" ry="10" style="fill:#da4167"/><ellipse cx="808" cy="1168.2" rx="10" ry="10" style="fill:#a6e1fa"/><ellipse cx="829" cy="1168.2" rx="10" ry="10" style="fill:#ff01fb"/><ellipse cx="850" cy="1168.2" rx="10" ry="10" style="fill:#000000"/><ellipse cx="871" cy="1168.2" rx="10" ry="10" style="fill:#3d2645"/><ellipse cx="892" cy="1168.2" rx="10" ry="10" style="fill:#832161"/><ellipse cx="913" cy="1168.2" rx="10" ry="10" style="fill:#00072d"/><ellipse cx="934" cy="1168.2" rx="10" ry="10" style="fill:#001c55"/><ellipse cx="955" cy="1168.2" rx="10" ry="10" style="fill:#3d2645"/><ellipse cx="976" cy="1168.2" rx="10" ry="10" style="fill:#832161"/><ellipse cx="997" cy="1168.2" rx="10" ry="10" style="fill:#6BF178"/><ellipse cx="1018" cy="1168.2" rx="10" ry="10" style="fill:#0e6ba8"/><ellipse cx="1039" cy="1168.2" rx="10" ry="10" style="fill:#ff01fb"/><ellipse cx="1060" cy="1168.2" rx="10" ry="10" style="fill:#000000"/><ellipse cx="1081" cy="1168.2" rx="10" ry="10" style="fill:#3d2645"/><ellipse cx="1102" cy="1168.2" rx="10" ry="10" style="fill:#832161"/><ellipse cx="1123" cy="1168.2" rx="10" ry="10" style="fill:#6BF178"/><ellipse cx="1144" cy="1168.2" rx="10" ry="10" style="fill:#b00b31"/><ellipse cx="1165" cy="1168.2" rx="10" ry="10" style="fill:#ff01fb"/><ellipse cx="1186" cy="1168.2" rx="10" ry="10" style="fill:#000000"/><ellipse cx="1207" cy="1168.2" rx="10" ry="10" style="fill:#3d2645"/><ellipse cx="1228" cy="1168.2" rx="10" ry="10" style="fill:#832161"/><ellipse cx="1249" cy="1168.2" rx="10" ry="10" style="fill:#b00b31"/><ellipse cx="1270" cy="1168.2" rx="10" ry="10" style="fill:#ff01fb"/><ellipse cx="1291" cy="1168.2" rx="10" ry="10" style="fill:#b55300"/><ellipse cx="1312" cy="1168.2" rx="10" ry="10" style="fill:#a6e1fa"/><ellipse cx="1333" cy="1168.2" rx="10" ry="10" style="fill:#ff01fb"/><ellipse cx="1354" cy="1168.2" rx="10" ry="10" style="fill:#000000"/><ellipse cx="1375" cy="1168.2" rx="10" ry="10" style="fill:#3d2645"/><ellipse cx="1396" cy="1168.2" rx="10" ry="10" style="fill:#832161"/><ellipse cx="10" cy="1189.2" rx="10" ry="10" style="fill:#00072d"/><ellipse cx="31" cy="1189.2" rx="10" ry="10" style="fill:#001c55"/><ellipse cx="52" cy="1189.2" rx="10" ry="10" style="fill:#3d2645"/><ellipse cx="73" cy="1189.2" rx="10" ry="10" style="fill:#832161"/><ellipse cx="94" cy="1189.2" rx="10" ry="10" style="fill:#6BF178"/><ellipse cx="115" cy="1189.2" rx="10" ry="10" style="fill:#0e6ba8"/><ellipse cx="136" cy="1189.2" rx="10" ry="10" style="fill:#ff01fb"/><ellipse cx="157" cy="1189.2" rx="10" ry="10" style="fill:#000000"/><ellipse cx="178" cy="1189.2" rx="10" ry="10" style="fill:#3d2645"/><ellipse cx="199" cy="1189.2" rx="10" ry="10" style="fill:#832161"/><ellipse cx="220" cy="1189.2" rx="10" ry="10" style="fill:#6BF178"/><ellipse cx="241" cy="1189.2" rx="10" ry="10" style="fill:#b00b31"/><ellipse cx="262" cy="1189.2" rx="10" ry="10" style="fill:#ff01fb"/><ellipse cx="283" cy="1189.2" rx="10" ry="10" style="fill:#000000"/><ellipse cx="304" cy="1189.2" rx="10" ry="10" style="fill:#3d2645"/><ellipse cx="325" cy="1189.2" rx="10" ry="10" style="fill:#832161"/><ellipse cx="346" cy="1189.2" rx="10" ry="10" style="fill:#b00b31"/><ellipse cx="367" cy="1189.2" rx="10" ry="10" style="fill:#ff01fb"/><ellipse cx="388" cy="1189.2" rx="10" ry="10" style="fill:#b55300"/><ellipse cx="409" cy="1189.2" rx="10" ry="10" style="fill:#a6e1fa"/><ellipse cx="430" cy="1189.2" rx="10" ry="10" style="fill:#ff01fb"/><ellipse cx="451" cy="1189.2" rx="10" ry="10" style="fill:#000000"/><ellipse cx="472" cy="1189.2" rx="10" ry="10" style="fill:#3d2645"/><ellipse cx="493" cy="1189.2" rx="10" ry="10" style="fill:#832161"/><ellipse cx="514" cy="1189.2" rx="10" ry="10" style="fill:#00072d"/><ellipse cx="535" cy="1189.2" rx="10" ry="10" style="fill:#001c55"/><ellipse cx="556" cy="1189.2" rx="10" ry="10" style="fill:#3d2645"/><ellipse cx="577" cy="1189.2" rx="10" ry="10" style="fill:#832161"/><ellipse cx="598" cy="1189.2" rx="10" ry="10" style="fill:#6BF178"/><ellipse cx="619" cy="1189.2" rx="10" ry="10" style="fill:#0e6ba8"/><ellipse cx="640" cy="1189.2" rx="10" ry="10" style="fill:#ff01fb"/><ellipse cx="661" cy="1189.2" rx="10" ry="10" style="fill:#000000"/><ellipse cx="682" cy="1189.2" rx="10" ry="10" style="fill:#3d2645"/><ellipse cx="703" cy="1189.2" rx="10" ry="10" style="fill:#832161"/><ellipse cx="724" cy="1189.2" rx="10" ry="10" style="fill:#6BF178"/><ellipse cx="745" cy="1189.2" rx="10" ry="10" style="fill:#b00b31"/><ellipse cx="766" cy="1189.2" rx="10" ry="10" style="fill:#ff01fb"/><ellipse cx="787" cy="1189.2" rx="10" ry="10" style="fill:#000000"/><ellipse cx="808" cy="1189.2" rx="10" ry="10" style="fill:#3d2645"/><ellipse cx="829" cy="1189.2" rx="10" ry="10" style="fill:#832161"/><ellipse cx="850" cy="1189.2" rx="10" ry="10" style="fill:#b00b31"/><ellipse cx="871" cy="1189.2" rx="10" ry="10" style="fill:#ff01fb"/><ellipse cx="892" cy="1189.2" rx="10" ry="10" style="fill:#b55300"/><ellipse cx="913" cy="1189.2" rx="10" ry="10" style="fill:#a6e1fa"/><ellipse cx="934" cy="1189.2" rx="10" ry="10" style="fill:#ff01fb"/><ellipse cx="955" cy="1189.2" rx="10" ry="10" style="fill:#000000"/><ellipse cx="976" cy="1189.2" rx="10" ry="10" style="fill:#3d2645"/><ellipse cx="997" cy="1189.2" rx="10" ry="10" style="fill:#832161"/><ellipse cx="1018" cy="1189.2" rx="10" ry="10" style="fill:#da4167"/><ellipse cx="1039" cy="1189.2" rx="10" ry="10" style="fill:#da4167"/><ellipse cx="1060" cy="1189.2" rx="10" ry="10" style="fill:#da4167"/><ellipse cx="10" cy="1233.1" rx="10" ry="10" style="fill:#f6511d"/><ellipse cx="31" cy="1233.1" rx="10" ry="10" style="fill:#832161"/><ellipse cx="52" cy="1233.1" rx="10" ry="10" style="fill:#832161"/><ellipse cx="73" cy="1233.1" rx="10" ry="10" style="fill:#832161"/><ellipse cx="94" cy="1233.1" rx="10" ry="10" style="fill:#832161"/><ellipse cx="115" cy="1233.1" rx="10" ry="10" style="fill:#832161"/><ellipse cx="136" cy="1233.1" rx="10" ry="10" style="fill:#832161"/><ellipse cx="157" cy="1233.1" rx="10" ry="10" style="fill:#832161"/><ellipse cx="178" cy="1233.1" rx="10" ry="10" style="fill:#832161"/><ellipse cx="199" cy="1233.1" rx="10" ry="10" style="fill:#832161"/><ellipse cx="220" cy="1233.1" rx="10" ry="10" style="fill:#832161"/><ellipse cx="241" cy="1233.1" rx="10" ry="10" style="fill:#832161"/><ellipse cx="262" cy="1233.1" rx="10" ry="10" style="fill:#832161"/><ellipse cx="283" cy="1233.1" rx="10" ry="10" style="fill:#832161"/><ellipse cx="304" cy="1233.1" rx="10" ry="10" style="fill:#832161"/><ellipse cx="325" cy="1233.1" rx="10" ry="10" style="fill:#832161"/><ellipse cx="346" cy="1233.1" rx="10" ry="10" style="fill:#832161"/><ellipse cx="367" cy="1233.1" rx="10" ry="10" style="fill:#832161"/><ellipse cx="388" cy="1233.1" rx="10" ry="10" style="fill:#832161"/><ellipse cx="409" cy="1233.1" rx="10" ry="10" style="fill:#832161"/><ellipse cx="430" cy="1233.1" rx="10" ry="10" style="fill:#ff01fb"/><ellipse cx="451" cy="1233.1" rx="10" ry="10" style="fill:#ff01fb"/><ellipse cx="472" cy="1233.1" rx="10" ry="10" style="fill:#ff01fb"/><ellipse cx="493" cy="1233.1" rx="10" ry="10" style="fill:#ff01fb"/><ellipse cx="514" cy="1233.1" rx="10" ry="10" style="fill:#ff01fb"/><ellipse cx="535" cy="1233.1" rx="10" ry="10" style="fill:#ff01fb"/><ellipse cx="556" cy="1233.1" rx="10" ry="10" style="fill:#ff01fb"/><ellipse cx="577" cy="1233.1" rx="10" ry="10" style="fill:#ff01fb"/><ellipse cx="598" cy="1233.1" rx="10" ry="10" style="fill:#ff01fb"/><ellipse cx="619" cy="1233.1" rx="10" ry="10" style="fill:#ff01fb"/><ellipse cx="640" cy="1233.1" rx="10" ry="10" style="fill:#ff01fb"/><ellipse cx="661" cy="1233.1" rx="10" ry="10" style="fill:#ff01fb"/><ellipse cx="682" cy="1233.1" rx="10" ry="10" style="fill:#ff01fb"/><ellipse cx="703" cy="1233.1" rx="10" ry="10" style="fill:#ff01fb"/><ellipse cx="724" cy="1233.1" rx="10" ry="10" style="fill:#ff01fb"/><ellipse cx="745" cy="1233.1" rx="10" ry="10" style="fill:#ff01fb"/><ellipse cx="766" cy="1233.1" rx="10" ry="10" style="fill:#99ddc8"/><ellipse cx="787" cy="1233.1" rx="10" ry="10" style="fill:#da4167"/><ellipse cx="808" cy="1233.1" rx="10" ry="10" style="fill:#da4167"/><ellipse cx="829" cy="1233.1" rx="10" ry="10" style="fill:#da4167"/><ellipse cx="850" cy="1233.1" rx="10" ry="10" style="fill:#da4167"/><ellipse cx="871" cy="1233.1" rx="10" ry="10" style="fill:#0a2472"/><ellipse cx="892" cy="1233.1" rx="10" ry="10" style="fill:#0a2472"/><ellipse cx="913" cy="1233.1" rx="10" ry="10" style="fill:#000000"/><ellipse cx="934" cy="1233.1" rx="10" ry="10" style="fill:#000000"/><ellipse cx="955" cy="1233.1" rx="10" ry="10" style="fill:#000000"/><ellipse cx="976" cy="1233.1" rx="10" ry="10" style="fill:#000000"/><ellipse cx="997" cy="1233.1" rx="10" ry="10" style="fill:#000000"/><ellipse cx="1018" cy="1233.1" rx="10" ry="10" style="fill:#000000"/><ellipse cx="1039" cy="1233.1" rx="10" ry="10" style="fill:#000000"/><ellipse cx="1060" cy="1233.1" rx="10" ry="10" style="fill:#000000"/><ellipse cx="1081" cy="1233.1" rx="10" ry="10" style="fill:#000000"/><ellipse cx="1102" cy="1233.1" rx="10" ry="10" style="fill:#000000"/><ellipse cx="1123" cy="1233.1" rx="10" ry="10" style="fill:#000000"/><ellipse cx="1144" cy="1233.1" rx="10" ry="10" style="fill:#000000"/><ellipse cx="1165" cy="1233.1" rx="10" ry="10" style="fill:#b55300"/><ellipse cx="1186" cy="1233.1" rx="10" ry="10" style="fill:#b55300"/><ellipse cx="1207" cy="1233.1" rx="10" ry="10" style="fill:#b55300"/><ellipse cx="1228" cy="1233.1" rx="10" ry="10" style="fill:#b55300"/><ellipse cx="1249" cy="1233.1" rx="10" ry="10" style="fill:#b55300"/><ellipse cx="1270" cy="1233.1" rx="10" ry="10" style="fill:#0e6ba8"/><ellipse cx="1291" cy="1233.1" rx="10" ry="10" style="fill:#0e6ba8"/><ellipse cx="1312" cy="1233.1" rx="10" ry="10" style="fill:#0e6ba8"/><ellipse cx="1333" cy="1233.1" rx="10" ry="10" style="fill:#0e6ba8"/><ellipse cx="1354" cy="1233.1" rx="10" ry="10" style="fill:#0e6ba8"/><ellipse cx="1375" cy="1233.1" rx="10" ry="10" style="fill:#0e6ba8"/><ellipse cx="1396" cy="1233.1" rx="10" ry="10" style="fill:#0e6ba8"/><ellipse cx="10" cy="1254.1" rx="10" ry="10" style="fill:#0e6ba8"/><ellipse cx="31" cy="1254.1" rx="10" ry="10" style="fill:#0e6ba8"/><ellipse cx="52" cy="1254.1" rx="10" ry="10" style="fill:#0e6ba8"/><ellipse cx="73" cy="1254.1" rx="10" ry="10" style="fill:#00072d"/><ellipse cx="94" cy="1254.1" rx="10" ry="10" style="fill:#00072d"/><ellipse cx="115" cy="1254.1" rx="10" ry="10" style="fill:#00072d"/><ellipse cx="136" cy="1254.1" rx="10" ry="10" style="fill:#00072d"/><ellipse cx="157" cy="1254.1" rx="10" ry="10" style="fill:#ce8147"/><ellipse cx="178" cy="1254.1" rx="10" ry="10" style="fill:#3d2645"/><ellipse cx="199" cy="1254.1" rx="10" ry="10" style="fill:#3d2645"/><ellipse cx="220" cy="1254.1" rx="10" ry="10" style="fill:#3d2645"/><ellipse cx="241" cy="1254.1" rx="10" ry="10" style="fill:#3d2645"/><ellipse cx="262" cy="1254.1" rx="10" ry="10" style="fill:#3d2645"/><ellipse cx="283" cy="1254.1" rx="10" ry="10" style="fill:#3d2645"/><ellipse cx="304" cy="1254.1" rx="10" ry="10" style="fill:#3d2645"/><ellipse cx="325" cy="1254.1" rx="10" ry="10" style="fill:#3d2645"/><ellipse cx="346" cy="1254.1" rx="10" ry="10" style="fill:#3d2645"/><ellipse cx="367" cy="1254.1" rx="10" ry="10" style="fill:#3d2645"/><ellipse cx="388" cy="1254.1" rx="10" ry="10" style="fill:#3d2645"/><ellipse cx="409" cy="1254.1" rx="10" ry="10" style="fill:#3d2645"/><ellipse cx="430" cy="1254.1" rx="10" ry="10" style="fill:#3d2645"/><ellipse cx="451" cy="1254.1" rx="10" ry="10" style="fill:#3d2645"/><ellipse cx="472" cy="1254.1" rx="10" ry="10" style="fill:#3d2645"/><ellipse cx="493" cy="1254.1" rx="10" ry="10" style="fill:#3d2645"/><ellipse cx="514" cy="1254.1" rx="10" ry="10" style="fill:#3d2645"/><ellipse cx="535" cy="1254.1" rx="10" ry="10" style="fill:#3d2645"/><ellipse cx="556" cy="1254.1" rx="10" ry="10" style="fill:#b00b31"/><ellipse cx="577" cy="1254.1" rx="10" ry="10" style="fill:#b00b31"/><ellipse cx="598" cy="1254.1" rx="10" ry="10" style="fill:#b00b31"/><ellipse cx="619" cy="1254.1" rx="10" ry="10" style="fill:#b00b31"/><ellipse cx="640" cy="1254.1" rx="10" ry="10" style="fill:#b00b31"/><ellipse cx="661" cy="1254.1" rx="10" ry="10" style="fill:#b00b31"/><ellipse cx="682" cy="1254.1" rx="10" ry="10" style="fill:#561d25"/><ellipse cx="703" cy="1254.1" rx="10" ry="10" style="fill:#561d25"/><ellipse cx="724" cy="1254.1" rx="10" ry="10" style="fill:#a6e1fa"/><ellipse cx="745" cy="1254.1" rx="10" ry="10" style="fill:#a6e1fa"/><ellipse cx="766" cy="1254.1" rx="10" ry="10" style="fill:#a6e1fa"/><ellipse cx="787" cy="1254.1" rx="10" ry="10" style="fill:#a6e1fa"/><ellipse cx="808" cy="1254.1" rx="10" ry="10" style="fill:#a6e1fa"/><ellipse cx="829" cy="1254.1" rx="10" ry="10" style="fill:#a6e1fa"/><ellipse cx="850" cy="1254.1" rx="10" ry="10" style="fill:#001c55"/><ellipse cx="871" cy="1254.1" rx="10" ry="10" style="fill:#001c55"/><ellipse cx="892" cy="1254.1" rx="10" ry="10" style="fill:#001c55"/><ellipse cx="913" cy="1254.1" rx="10" ry="10" style="fill:#001c55"/><ellipse cx="934" cy="1254.1" rx="10" ry="10" style="fill:#6BF178"/><ellipse cx="955" cy="1254.1" rx="10" ry="10" style="fill:#6BF178"/><ellipse cx="976" cy="1254.1" rx="10" ry="10" style="fill:#6BF178"/><ellipse cx="997" cy="1254.1" rx="10" ry="10" style="fill:#6BF178"/><ellipse cx="1018" cy="1254.1" rx="10" ry="10" style="fill:#6BF178"/><ellipse cx="1039" cy="1254.1" rx="10" ry="10" style="fill:#6BF178"/><ellipse cx="1060" cy="1254.1" rx="10" ry="10" style="fill:#6BF178"/></svg>