<svg width="280" height="258" xmlns="http://www.w3.org/2000/svg"><path d="M10 10 L22 211" style="stroke:#000;stroke-width:1px"/><path d="M22 211 L34 412" style="stroke:#000;stroke-width:1px"/><path d="M34 412 L46 613" style="stroke:#000;stroke-width:1px"/><ellipse cx="46" cy="613" rx="5" ry="5" style="fill:#b55300"/><ellipse cx="34" cy="412" rx="5" ry="5" style="fill:#ff01fb"/><ellipse cx="22" cy="211" rx="5" ry="5" style="fill:#a6e1fa"/><path d="M10 10 L58 211" style="stroke:#000;stroke-width:1px"/><path d="M58 211 L70 412" style="stroke:#000;stroke-width:1px"/><path d="M70 412 L82 613" style="stroke:#000;stroke-width:1px"/><path d="M82 613 L94 814" style="stroke:#000;stroke-width:1px"/><path d="M94 814 L106 1015" style="stroke:#000;stroke-width:1px"/><path d="M106 1015 L118 1216" style="stroke:#000;stroke-width:1px"/><ellipse cx="118" cy="1216" rx="5" ry="5" style="fill:#da4167"/><path d="M106 1015 L130 1216" style="stroke:#000;stroke-width:1px"/><ellipse cx="130" cy="1216" rx="5" ry="5" style="fill:#da4167"/><path d="M106 1015 L142 1216" style="stroke:#000;stroke-width:1px"/><ellipse cx="142" cy="1216" rx="5" ry="5" style="fill:#da4167"/><ellipse cx="106" cy="1015" rx="5" ry="5" style="fill:#832161"/><ellipse cx="94" cy="814" rx="5" ry="5" style="fill:#3d2645"/><ellipse cx="82" cy="613" rx="5" ry="5" style="fill:#000000"/><path d="M70 412 L154 613" style="stroke:#000;stroke-width:1px"/><path d="M154 613 L166 814" style="stroke:#000;stroke-width:1px"/><ellipse cx="166" cy="814" rx="5" ry="5" style="fill:#ceb992"/><path d="M154 613 L178 814" style="stroke:#000;stroke-width:1px"/><ellipse cx="178" cy="814" rx="5" ry="5" style="fill:#b55300"/><ellipse cx="154" cy="613" rx="5" ry="5" style="fill:#02a9ea"/><ellipse cx="70" cy="412" rx="5" ry="5" style="fill:#ff01fb"/><ellipse cx="58" cy="211" rx="5" ry="5" style="fill:#a6e1fa"/><path d="M10 10 L190 211" style="stroke:#000;stroke-width:1px"/><path d="M190 211 L202 412" style="stroke:#000;stroke-width:1px"/><path d="M202 412 L214 613" style="stroke:#000;stroke-width:1px"/><path d="M214 613 L226 814" style="stroke:#000;stroke-width:1px"/><path d="M226 814 L238 1015" style="stroke:#000;stroke-width:1px"/><path d="M238 1015 L250 1216" style="stroke:#000;stroke-width:1px"/><ellipse cx="250" cy="1216" rx="5" ry="5" style="fill:#da4167"/><path d="M238 1015 L262 1216" style="stroke:#000;stroke-width:1px"/><ellipse cx="262" cy="1216" rx="5" ry="5" style="fill:#da4167"/><path d="M238 1015 L274 1216" style="stroke:#000;stroke-width:1px"/><ellipse cx="274" cy="1216" rx="5" ry="5" style="fill:#da4167"/><ellipse cx="238" cy="1015" rx="5" ry="5" style="fill:#832161"/><ellipse cx="226" cy="814" rx="5" ry="5" style="fill:#3d2645"/><ellipse cx="214" cy="613" rx="5" ry="5" style="fill:#000000"/><ellipse cx="202" cy="412" rx="5" ry="5" style="fill:#ff01fb"/><ellipse cx="190" cy="211" rx="5" ry="5" style="fill:#a6e1fa"/><ellipse cx="10" cy="10" rx="5" ry="5" style="fill:#f6511d"/><ellipse cx="10" cy="227.70000000000002" rx="10" ry="10" style="fill:#f6511d"/><ellipse cx="31" cy="227.70000000000002" rx="10" ry="10" style="fill:#a6e1fa"/><ellipse cx="52" cy="227.70000000000002" rx="10" ry="10" style="fill:#ff01fb"/><ellipse cx="73" cy="227.70000000000002" rx="10" ry="10" style="fill:#b55300"/><ellipse cx="94" cy="227.70000000000002" rx="10" ry="10" style="fill:#a6e1fa"/><ellipse cx="115" cy="227.70000000000002" rx="10" ry="10" style="fill:#ff01fb"/><ellipse cx="136" cy="227.70000000000002" rx="10" ry="10" style="fill:#000000"/><ellipse cx="157" cy="227.70000000000002" rx="10" ry="10" style="fill:#3d2645"/><ellipse cx="178" cy="227.70000000000002" rx="10" ry="10" style="fill:#832161"/><ellipse cx="199" cy="227.70000000000002" rx="10" ry="10" style="fill:#da4167"/><ellipse cx="220" cy="227.70000000000002" rx="10" ry="10" style="fill:#da4167"/><ellipse cx="241" cy="227.70000000000002" rx="10" ry="10" style="fill:#da4167"/><ellipse cx="262" cy="227.70000000000002" rx="10" ry="10" style="fill:#02a9ea"/><ellipse cx="10" cy="248.70000000000002" rx="10" ry="10" style="fill:#ceb992"/><ellipse cx="31" cy="248.70000000000002" rx="10" ry="10" style="fill:#b55300"/><ellipse cx="52" cy="248.70000000000002" rx="10" ry="10" style="fill:#a6e1fa"/><ellipse cx="73" cy="248.70000000000002" rx="10" ry="10" style="fill:#ff01fb"/><ellipse cx="94" cy="248.70000000000002" rx="10" ry="10" style="fill:#000000"/><ellipse cx="115" cy="248.70000000000002" rx="10" ry="10" style="fill:#3d2645"/><ellipse cx="136" cy="248.70000000000002" rx="10" ry="10" style="fill:#832161"/><ellipse cx="157" cy="248.70000000000002" rx="10" ry="10" style="fill:#da4167"/><ellipse cx="178" cy="248.70000000000002" rx="10" ry="10" style="fill:#da4167"/><ellipse cx="199" cy="248.70000000000002" rx="10" ry="10" style="fill:#da4167"/><ellipse cx="10" cy="240.35" rx="10" ry="10" style="fill:#f6511d"/><ellipse cx="31" cy="240.35" rx="10" ry="10" style="fill:#832161"/><ellipse cx="52" cy="240.35" rx="10" ry="10" style="fill:#832161"/><ellipse cx="73" cy="240.35" rx="10" ry="10" style="fill:#ff01fb"/><ellipse cx="94" cy="240.35" rx="10" ry="10" style="fill:#ff01fb"/><ellipse cx="115" cy="240.35" rx="10" ry="10" style="fill:#ff01fb"/><ellipse cx="136" cy="240.35" rx="10" ry="10" style="fill:#da4167"/><ellipse cx="157" cy="240.35" rx="10" ry="10" style="fill:#da4167"/><ellipse cx="178" cy="240.35" rx="10" ry="10" style="fill:#da4167"/><ellipse cx="199" cy="240.35" rx="10" ry="10" style="fill:#da4167"/><ellipse cx="220" cy="240.35" rx="10" ry="10" style="fill:#da4167"/><ellipse cx="241" cy="240.35" rx="10" ry="10" style="fill:#da4167"/><ellipse cx="262" cy="240.35" rx="10" ry="10" style="fill:#ceb992"/><ellipse cx="10" cy="261.35" rx="10" ry="10" style="fill:#000000"/><ellipse cx="31" cy="261.35" rx="10" ry="10" style="fill:#000000"/><ellipse cx="52" cy="261.35" rx="10" ry="10" style="fill:#b55300"/><ellipse cx="73" cy="261.35" rx="10" ry="10" style="fill:#b55300"/><ellipse cx="94" cy="261.35" rx="10" ry="10" style="fill:#3d2645"/><ellipse cx="115" cy="261.35" rx="10" ry="10" style="fill:#3d2645"/><ellipse cx="136" cy="261.35" rx="10" ry="10" style="fill:#a6e1fa"/><ellipse cx="157" cy="261.35" rx="10" ry="10" style="fill:#a6e1fa"/><ellipse cx="178" cy="261.35" rx="10" ry="10" style="fill:#a6e1fa"/><ellipse cx="199" cy="261.35" rx="10" ry="10" style="fill:#02a9ea"/></svg>