<svg width="1720" height="1610" xmlns="http://www.w3.org/2000/svg"><path d="M40 600 L40 1000" style="stroke:#000;stroke-width:1px"/><path d="M70 600 L40 600" style="stroke:#000;stroke-width:1px"/><path d="M40 400 L70 600" style="stroke:#000;stroke-width:1px"/><path d="M70 400 L40 400" style="stroke:#000;stroke-width:1px"/><path d="M40 200 L70 400" style="stroke:#000;stroke-width:1px"/><path d="M40 200 L40 800" style="stroke:#000;stroke-width:1px"/><path d="M70 800 L40 1200" style="stroke:#000;stroke-width:1px"/><path d="M70 1000 L40 1400" style="stroke:#000;stroke-width:1px"/><path d="M100 800 L70 1000" style="stroke:#000;stroke-width:1px"/><path d="M100 800 L100 1000" style="stroke:#000;stroke-width:1px"/><path d="M100 600 L70 800" style="stroke:#000;stroke-width:1px"/><path d="M100 600 L100 800" style="stroke:#000;stroke-width:1px"/><path d="M160 600 L100 600" style="stroke:#000;stroke-width:1px"/><path d="M160 600 L130 600" style="stroke:#000;stroke-width:1px"/><path d="M100 400 L160 600" style="stroke:#000;stroke-width:1px"/><path d="M130 1000 L70 1400" style="stroke:#000;stroke-width:1px"/><path d="M160 1000 L70 1200" style="stroke:#000;stroke-width:1px"/><path d="M160 1000 L100 1200" style="stroke:#000;stroke-width:1px"/><path d="M160 1000 L130 1200" style="stroke:#000;stroke-width:1px"/><path d="M160 1000 L160 1200" style="stroke:#000;stroke-width:1px"/><path d="M130 800 L130 1000" style="stroke:#000;stroke-width:1px"/><path d="M130 800 L160 1000" style="stroke:#000;stroke-width:1px"/><path d="M190 600 L130 800" style="stroke:#000;stroke-width:1px"/><path d="M160 800 L190 1200" style="stroke:#000;stroke-width:1px"/><path d="M220 1200 L70 1400" style="stroke:#000;stroke-width:1px"/><path d="M250 1200 L100 1400" style="stroke:#000;stroke-width:1px"/><path d="M250 1200 L130 1400" style="stroke:#000;stroke-width:1px"/><path d="M250 1200 L160 1400" style="stroke:#000;stroke-width:1px"/><path d="M250 1200 L190 1400" style="stroke:#000;stroke-width:1px"/><path d="M190 1000 L220 1200" style="stroke:#000;stroke-width:1px"/><path d="M190 1000 L250 1200" style="stroke:#000;stroke-width:1px"/><path d="M190 800 L190 1000" style="stroke:#000;stroke-width:1px"/><path d="M220 600 L160 800" style="stroke:#000;stroke-width:1px"/><path d="M220 600 L190 800" style="stroke:#000;stroke-width:1px"/><path d="M280 600 L190 600" style="stroke:#000;stroke-width:1px"/><path d="M280 600 L220 600" style="stroke:#000;stroke-width:1px"/><path d="M280 600 L250 600" style="stroke:#000;stroke-width:1px"/><path d="M130 400 L280 600" style="stroke:#000;stroke-width:1px"/><path d="M220 1000 L40 1200" style="stroke:#000;stroke-width:1px"/><path d="M220 800 L220 1000" style="stroke:#000;stroke-width:1px"/><path d="M220 800 L250 1000" style="stroke:#000;stroke-width:1px"/><path d="M220 800 L280 1000" style="stroke:#000;stroke-width:1px"/><path d="M250 800 L280 1200" style="stroke:#000;stroke-width:1px"/><path d="M310 600 L220 800" style="stroke:#000;stroke-width:1px"/><path d="M310 600 L250 800" style="stroke:#000;stroke-width:1px"/><path d="M310 1000 L40 1200" style="stroke:#000;stroke-width:1px"/><path d="M280 800 L310 1000" style="stroke:#000;stroke-width:1px"/><path d="M280 800 L340 1000" style="stroke:#000;stroke-width:1px"/><path d="M280 800 L280 1000" style="stroke:#000;stroke-width:1px"/><path d="M310 800 L310 1200" style="stroke:#000;stroke-width:1px"/><path d="M340 600 L280 800" style="stroke:#000;stroke-width:1px"/><path d="M340 600 L310 800" style="stroke:#000;stroke-width:1px"/><path d="M370 1000 L40 1200" style="stroke:#000;stroke-width:1px"/><path d="M340 800 L370 1000" style="stroke:#000;stroke-width:1px"/><path d="M340 800 L400 1000" style="stroke:#000;stroke-width:1px"/><path d="M340 800 L280 1000" style="stroke:#000;stroke-width:1px"/><path d="M370 800 L340 1200" style="stroke:#000;stroke-width:1px"/><path d="M370 600 L340 800" style="stroke:#000;stroke-width:1px"/><path d="M370 600 L370 800" style="stroke:#000;stroke-width:1px"/><path d="M400 600 L310 600" style="stroke:#000;stroke-width:1px"/><path d="M400 600 L340 600" style="stroke:#000;stroke-width:1px"/><path d="M400 600 L370 600" style="stroke:#000;stroke-width:1px"/><path d="M160 400 L400 600" style="stroke:#000;stroke-width:1px"/><path d="M190 400 L100 400" style="stroke:#000;stroke-width:1px"/><path d="M190 400 L130 400" style="stroke:#000;stroke-width:1px"/><path d="M190 400 L160 400" style="stroke:#000;stroke-width:1px"/><path d="M70 200 L190 400" style="stroke:#000;stroke-width:1px"/><path d="M70 200 L40 1000" style="stroke:#000;stroke-width:1px"/><path d="M430 1000 L220 1400" style="stroke:#000;stroke-width:1px"/><path d="M400 1200 L250 1400" style="stroke:#000;stroke-width:1px"/><path d="M460 1000 L370 1200" style="stroke:#000;stroke-width:1px"/><path d="M460 1000 L400 1200" style="stroke:#000;stroke-width:1px"/><path d="M400 800 L430 1000" style="stroke:#000;stroke-width:1px"/><path d="M400 800 L460 1000" style="stroke:#000;stroke-width:1px"/><path d="M430 600 L400 800" style="stroke:#000;stroke-width:1px"/><path d="M430 800 L190 1200" style="stroke:#000;stroke-width:1px"/><path d="M430 1200 L220 1400" style="stroke:#000;stroke-width:1px"/><path d="M310 1400 L250 1400" style="stroke:#000;stroke-width:1px"/><path d="M460 1200 L280 1400" style="stroke:#000;stroke-width:1px"/><path d="M460 1200 L310 1400" style="stroke:#000;stroke-width:1px"/><path d="M490 1000 L430 1200" style="stroke:#000;stroke-width:1px"/><path d="M490 1000 L460 1200" style="stroke:#000;stroke-width:1px"/><path d="M460 800 L490 1000" style="stroke:#000;stroke-width:1px"/><path d="M460 600 L430 800" style="stroke:#000;stroke-width:1px"/><path d="M460 600 L460 800" style="stroke:#000;stroke-width:1px"/><path d="M520 600 L430 600" style="stroke:#000;stroke-width:1px"/><path d="M520 600 L460 600" style="stroke:#000;stroke-width:1px"/><path d="M520 600 L490 600" style="stroke:#000;stroke-width:1px"/><path d="M220 400 L520 600" style="stroke:#000;stroke-width:1px"/><path d="M520 1000 L340 1400" style="stroke:#000;stroke-width:1px"/><path d="M490 800 L520 1000" style="stroke:#000;stroke-width:1px"/><path d="M490 800 L550 1000" style="stroke:#000;stroke-width:1px"/><path d="M550 600 L490 800" style="stroke:#000;stroke-width:1px"/><path d="M520 800 L490 1200" style="stroke:#000;stroke-width:1px"/><path d="M580 600 L520 800" style="stroke:#000;stroke-width:1px"/><path d="M580 600 L550 800" style="stroke:#000;stroke-width:1px"/><path d="M610 600 L550 600" style="stroke:#000;stroke-width:1px"/><path d="M610 600 L580 600" style="stroke:#000;stroke-width:1px"/><path d="M250 400 L610 600" style="stroke:#000;stroke-width:1px"/><path d="M640 600 L580 1000" style="stroke:#000;stroke-width:1px"/><path d="M670 600 L640 600" style="stroke:#000;stroke-width:1px"/><path d="M280 400 L670 600" style="stroke:#000;stroke-width:1px"/><path d="M310 400 L220 400" style="stroke:#000;stroke-width:1px"/><path d="M310 400 L250 400" style="stroke:#000;stroke-width:1px"/><path d="M310 400 L280 400" style="stroke:#000;stroke-width:1px"/><path d="M100 200 L310 400" style="stroke:#000;stroke-width:1px"/><path d="M100 200 L280 1200" style="stroke:#000;stroke-width:1px"/><path d="M610 1000 L220 1400" style="stroke:#000;stroke-width:1px"/><path d="M550 1200 L250 1400" style="stroke:#000;stroke-width:1px"/><path d="M640 1000 L520 1200" style="stroke:#000;stroke-width:1px"/><path d="M640 1000 L550 1200" style="stroke:#000;stroke-width:1px"/><path d="M580 800 L610 1000" style="stroke:#000;stroke-width:1px"/><path d="M580 800 L640 1000" style="stroke:#000;stroke-width:1px"/><path d="M700 600 L580 800" style="stroke:#000;stroke-width:1px"/><path d="M610 800 L190 1200" style="stroke:#000;stroke-width:1px"/><path d="M580 1200 L220 1400" style="stroke:#000;stroke-width:1px"/><path d="M400 1400 L250 1400" style="stroke:#000;stroke-width:1px"/><path d="M610 1200 L370 1400" style="stroke:#000;stroke-width:1px"/><path d="M610 1200 L400 1400" style="stroke:#000;stroke-width:1px"/><path d="M670 1000 L580 1200" style="stroke:#000;stroke-width:1px"/><path d="M670 1000 L610 1200" style="stroke:#000;stroke-width:1px"/><path d="M640 800 L670 1000" style="stroke:#000;stroke-width:1px"/><path d="M730 600 L610 800" style="stroke:#000;stroke-width:1px"/><path d="M730 600 L640 800" style="stroke:#000;stroke-width:1px"/><path d="M790 600 L700 600" style="stroke:#000;stroke-width:1px"/><path d="M790 600 L730 600" style="stroke:#000;stroke-width:1px"/><path d="M790 600 L760 600" style="stroke:#000;stroke-width:1px"/><path d="M340 400 L790 600" style="stroke:#000;stroke-width:1px"/><path d="M700 1000 L340 1400" style="stroke:#000;stroke-width:1px"/><path d="M670 800 L700 1000" style="stroke:#000;stroke-width:1px"/><path d="M670 800 L730 1000" style="stroke:#000;stroke-width:1px"/><path d="M820 600 L670 800" style="stroke:#000;stroke-width:1px"/><path d="M700 800 L490 1200" style="stroke:#000;stroke-width:1px"/><path d="M850 600 L700 800" style="stroke:#000;stroke-width:1px"/><path d="M850 600 L730 800" style="stroke:#000;stroke-width:1px"/><path d="M880 600 L820 600" style="stroke:#000;stroke-width:1px"/><path d="M880 600 L850 600" style="stroke:#000;stroke-width:1px"/><path d="M370 400 L880 600" style="stroke:#000;stroke-width:1px"/><path d="M910 600 L580 1000" style="stroke:#000;stroke-width:1px"/><path d="M940 600 L910 600" style="stroke:#000;stroke-width:1px"/><path d="M400 400 L940 600" style="stroke:#000;stroke-width:1px"/><path d="M430 400 L340 400" style="stroke:#000;stroke-width:1px"/><path d="M430 400 L370 400" style="stroke:#000;stroke-width:1px"/><path d="M430 400 L400 400" style="stroke:#000;stroke-width:1px"/><path d="M130 200 L430 400" style="stroke:#000;stroke-width:1px"/><path d="M130 200 L310 1200" style="stroke:#000;stroke-width:1px"/><path d="M760 1000 L220 1400" style="stroke:#000;stroke-width:1px"/><path d="M670 1200 L250 1400" style="stroke:#000;stroke-width:1px"/><path d="M790 1000 L640 1200" style="stroke:#000;stroke-width:1px"/><path d="M790 1000 L670 1200" style="stroke:#000;stroke-width:1px"/><path d="M760 800 L760 1000" style="stroke:#000;stroke-width:1px"/><path d="M760 800 L790 1000" style="stroke:#000;stroke-width:1px"/><path d="M970 600 L760 800" style="stroke:#000;stroke-width:1px"/><path d="M790 800 L190 1200" style="stroke:#000;stroke-width:1px"/><path d="M700 1200 L220 1400" style="stroke:#000;stroke-width:1px"/><path d="M460 1400 L250 1400" style="stroke:#000;stroke-width:1px"/><path d="M730 1200 L430 1400" style="stroke:#000;stroke-width:1px"/><path d="M730 1200 L460 1400" style="stroke:#000;stroke-width:1px"/><path d="M820 1000 L700 1200" style="stroke:#000;stroke-width:1px"/><path d="M820 1000 L730 1200" style="stroke:#000;stroke-width:1px"/><path d="M820 800 L820 1000" style="stroke:#000;stroke-width:1px"/><path d="M1000 600 L790 800" style="stroke:#000;stroke-width:1px"/><path d="M1000 600 L820 800" style="stroke:#000;stroke-width:1px"/><path d="M1060 600 L970 600" style="stroke:#000;stroke-width:1px"/><path d="M1060 600 L1000 600" style="stroke:#000;stroke-width:1px"/><path d="M1060 600 L1030 600" style="stroke:#000;stroke-width:1px"/><path d="M460 400 L1060 600" style="stroke:#000;stroke-width:1px"/><path d="M850 1000 L340 1400" style="stroke:#000;stroke-width:1px"/><path d="M850 800 L850 1000" style="stroke:#000;stroke-width:1px"/><path d="M850 800 L880 1000" style="stroke:#000;stroke-width:1px"/><path d="M1090 600 L850 800" style="stroke:#000;stroke-width:1px"/><path d="M880 800 L490 1200" style="stroke:#000;stroke-width:1px"/><path d="M1120 600 L880 800" style="stroke:#000;stroke-width:1px"/><path d="M1120 600 L910 800" style="stroke:#000;stroke-width:1px"/><path d="M1150 600 L1090 600" style="stroke:#000;stroke-width:1px"/><path d="M1150 600 L1120 600" style="stroke:#000;stroke-width:1px"/><path d="M490 400 L1150 600" style="stroke:#000;stroke-width:1px"/><path d="M1180 600 L580 1000" style="stroke:#000;stroke-width:1px"/><path d="M1210 600 L1180 600" style="stroke:#000;stroke-width:1px"/><path d="M520 400 L1210 600" style="stroke:#000;stroke-width:1px"/><path d="M550 400 L460 400" style="stroke:#000;stroke-width:1px"/><path d="M550 400 L490 400" style="stroke:#000;stroke-width:1px"/><path d="M550 400 L520 400" style="stroke:#000;stroke-width:1px"/><path d="M160 200 L550 400" style="stroke:#000;stroke-width:1px"/><path d="M160 200 L340 1200" style="stroke:#000;stroke-width:1px"/><path d="M910 1000 L70 1400" style="stroke:#000;stroke-width:1px"/><path d="M940 1000 L760 1200" style="stroke:#000;stroke-width:1px"/><path d="M940 1000 L790 1200" style="stroke:#000;stroke-width:1px"/><path d="M940 1000 L820 1200" style="stroke:#000;stroke-width:1px"/><path d="M940 1000 L850 1200" style="stroke:#000;stroke-width:1px"/><path d="M940 800 L910 1000" style="stroke:#000;stroke-width:1px"/><path d="M940 800 L940 1000" style="stroke:#000;stroke-width:1px"/><path d="M1240 600 L940 800" style="stroke:#000;stroke-width:1px"/><path d="M970 800 L190 1200" style="stroke:#000;stroke-width:1px"/><path d="M1270 600 L970 800" style="stroke:#000;stroke-width:1px"/><path d="M1270 600 L1000 800" style="stroke:#000;stroke-width:1px"/><path d="M1300 600 L1240 600" style="stroke:#000;stroke-width:1px"/><path d="M1300 600 L1270 600" style="stroke:#000;stroke-width:1px"/><path d="M580 400 L1300 600" style="stroke:#000;stroke-width:1px"/><path d="M970 1000 L70 1400" style="stroke:#000;stroke-width:1px"/><path d="M1000 1000 L880 1200" style="stroke:#000;stroke-width:1px"/><path d="M1000 1000 L910 1200" style="stroke:#000;stroke-width:1px"/><path d="M1000 1000 L940 1200" style="stroke:#000;stroke-width:1px"/><path d="M1000 1000 L970 1200" style="stroke:#000;stroke-width:1px"/><path d="M1030 800 L970 1000" style="stroke:#000;stroke-width:1px"/><path d="M1030 800 L1000 1000" style="stroke:#000;stroke-width:1px"/><path d="M1330 600 L1030 800" style="stroke:#000;stroke-width:1px"/><path d="M1060 800 L190 1200" style="stroke:#000;stroke-width:1px"/><path d="M1360 600 L1060 800" style="stroke:#000;stroke-width:1px"/><path d="M1360 600 L1090 800" style="stroke:#000;stroke-width:1px"/><path d="M1390 600 L1330 600" style="stroke:#000;stroke-width:1px"/><path d="M1390 600 L1360 600" style="stroke:#000;stroke-width:1px"/><path d="M610 400 L1390 600" style="stroke:#000;stroke-width:1px"/><path d="M1030 1000 L490 1400" style="stroke:#000;stroke-width:1px"/><path d="M1120 800 L1030 1000" style="stroke:#000;stroke-width:1px"/><path d="M1120 800 L1060 1000" style="stroke:#000;stroke-width:1px"/><path d="M1420 600 L1120 800" style="stroke:#000;stroke-width:1px"/><path d="M1150 800 L490 1200" style="stroke:#000;stroke-width:1px"/><path d="M1000 1200 L40 1600" style="stroke:#000;stroke-width:1px"/><path d="M1090 1000 L1000 1200" style="stroke:#000;stroke-width:1px"/><path d="M1090 1000 L1030 1200" style="stroke:#000;stroke-width:1px"/><path d="M1180 800 L1090 1000" style="stroke:#000;stroke-width:1px"/><path d="M1450 600 L1150 800" style="stroke:#000;stroke-width:1px"/><path d="M1450 600 L1180 800" style="stroke:#000;stroke-width:1px"/><path d="M1510 600 L1420 600" style="stroke:#000;stroke-width:1px"/><path d="M1510 600 L1450 600" style="stroke:#000;stroke-width:1px"/><path d="M1510 600 L1480 600" style="stroke:#000;stroke-width:1px"/><path d="M640 400 L1510 600" style="stroke:#000;stroke-width:1px"/><path d="M1120 1000 L70 1400" style="stroke:#000;stroke-width:1px"/><path d="M1150 1000 L1060 1200" style="stroke:#000;stroke-width:1px"/><path d="M1150 1000 L1090 1200" style="stroke:#000;stroke-width:1px"/><path d="M1150 1000 L1120 1200" style="stroke:#000;stroke-width:1px"/><path d="M1150 1000 L1150 1200" style="stroke:#000;stroke-width:1px"/><path d="M1210 800 L1120 1000" style="stroke:#000;stroke-width:1px"/><path d="M1210 800 L1150 1000" style="stroke:#000;stroke-width:1px"/><path d="M1540 600 L1210 800" style="stroke:#000;stroke-width:1px"/><path d="M1240 800 L190 1200" style="stroke:#000;stroke-width:1px"/><path d="M1180 1200 L70 1400" style="stroke:#000;stroke-width:1px"/><path d="M1210 1200 L520 1400" style="stroke:#000;stroke-width:1px"/><path d="M1210 1200 L550 1400" style="stroke:#000;stroke-width:1px"/><path d="M1210 1200 L580 1400" style="stroke:#000;stroke-width:1px"/><path d="M1210 1200 L610 1400" style="stroke:#000;stroke-width:1px"/><path d="M1180 1000 L1180 1200" style="stroke:#000;stroke-width:1px"/><path d="M1180 1000 L1210 1200" style="stroke:#000;stroke-width:1px"/><path d="M1270 800 L1180 1000" style="stroke:#000;stroke-width:1px"/><path d="M1570 600 L1240 800" style="stroke:#000;stroke-width:1px"/><path d="M1570 600 L1270 800" style="stroke:#000;stroke-width:1px"/><path d="M1600 600 L1210 1000" style="stroke:#000;stroke-width:1px"/><path d="M1630 600 L1540 600" style="stroke:#000;stroke-width:1px"/><path d="M1630 600 L1570 600" style="stroke:#000;stroke-width:1px"/><path d="M1630 600 L1600 600" style="stroke:#000;stroke-width:1px"/><path d="M670 400 L1630 600" style="stroke:#000;stroke-width:1px"/><path d="M700 400 L580 400" style="stroke:#000;stroke-width:1px"/><path d="M700 400 L610 400" style="stroke:#000;stroke-width:1px"/><path d="M700 400 L640 400" style="stroke:#000;stroke-width:1px"/><path d="M700 400 L670 400" style="stroke:#000;stroke-width:1px"/><path d="M190 200 L700 400" style="stroke:#000;stroke-width:1px"/><path d="M190 200 L580 1000" style="stroke:#000;stroke-width:1px"/><path d="M1240 1000 L70 1400" style="stroke:#000;stroke-width:1px"/><path d="M1270 1000 L1240 1200" style="stroke:#000;stroke-width:1px"/><path d="M1270 1000 L1270 1200" style="stroke:#000;stroke-width:1px"/><path d="M1270 1000 L1300 1200" style="stroke:#000;stroke-width:1px"/><path d="M1270 1000 L1330 1200" style="stroke:#000;stroke-width:1px"/><path d="M1300 800 L1240 1000" style="stroke:#000;stroke-width:1px"/><path d="M1300 800 L1270 1000" style="stroke:#000;stroke-width:1px"/><path d="M1660 600 L1300 800" style="stroke:#000;stroke-width:1px"/><path d="M1300 1000 L640 1400" style="stroke:#000;stroke-width:1px"/><path d="M1330 800 L1300 1000" style="stroke:#000;stroke-width:1px"/><path d="M1330 800 L1330 1000" style="stroke:#000;stroke-width:1px"/><path d="M1690 600 L1330 800" style="stroke:#000;stroke-width:1px"/><path d="M1720 600 L1660 600" style="stroke:#000;stroke-width:1px"/><path d="M1720 600 L1690 600" style="stroke:#000;stroke-width:1px"/><path d="M730 400 L1720 600" style="stroke:#000;stroke-width:1px"/><path d="M760 400 L730 400" style="stroke:#000;stroke-width:1px"/><path d="M220 200 L760 400" style="stroke:#000;stroke-width:1px"/><path d="M220 200 L1210 1000" style="stroke:#000;stroke-width:1px"/><path d="M40 0 L40 200" style="stroke:#000;stroke-width:1px"/><path d="M40 0 L70 200" style="stroke:#000;stroke-width:1px"/><path d="M40 0 L100 200" style="stroke:#000;stroke-width:1px"/><path d="M40 0 L130 200" style="stroke:#000;stroke-width:1px"/><path d="M40 0 L160 200" style="stroke:#000;stroke-width:1px"/><path d="M40 0 L190 200" style="stroke:#000;stroke-width:1px"/><path d="M40 0 L220 200" style="stroke:#000;stroke-width:1px"/><ellipse cx="40" cy="1000" rx="10" ry="10" style="fill:#6BF178"/><ellipse cx="40" cy="600" rx="10" ry="10" style="fill:#0a2472"/><ellipse cx="40" cy="800" rx="10" ry="10" style="fill:#6BF178"/><ellipse cx="70" cy="600" rx="10" ry="10" style="fill:#a6e1fa"/><ellipse cx="40" cy="400" rx="10" ry="10" style="fill:#0e6ba8"/><ellipse cx="70" cy="400" rx="10" ry="10" style="fill:#0e6ba8"/><ellipse cx="40" cy="200" rx="10" ry="10" style="fill:#001c55"/><ellipse cx="40" cy="1200" rx="10" ry="10" style="fill:#6BF178"/><ellipse cx="70" cy="800" rx="10" ry="10" style="fill:#da4167"/><ellipse cx="40" cy="1400" rx="10" ry="10" style="fill:#6BF178"/><ellipse cx="70" cy="1000" rx="10" ry="10" style="fill:#da4167"/><ellipse cx="100" cy="1000" rx="10" ry="10" style="fill:#000000"/><ellipse cx="100" cy="800" rx="10" ry="10" style="fill:#ceb992"/><ellipse cx="100" cy="600" rx="10" ry="10" style="fill:#00072d"/><ellipse cx="130" cy="600" rx="10" ry="10" style="fill:#ff01fb"/><ellipse cx="160" cy="600" rx="10" ry="10" style="fill:#a6e1fa"/><ellipse cx="100" cy="400" rx="10" ry="10" style="fill:#0e6ba8"/><ellipse cx="70" cy="1400" rx="10" ry="10" style="fill:#6BF178"/><ellipse cx="130" cy="1000" rx="10" ry="10" style="fill:#da4167"/><ellipse cx="70" cy="1200" rx="10" ry="10" style="fill:#832161"/><ellipse cx="100" cy="1200" rx="10" ry="10" style="fill:#832161"/><ellipse cx="130" cy="1200" rx="10" ry="10" style="fill:#832161"/><ellipse cx="160" cy="1200" rx="10" ry="10" style="fill:#832161"/><ellipse cx="160" cy="1000" rx="10" ry="10" style="fill:#000000"/><ellipse cx="130" cy="800" rx="10" ry="10" style="fill:#ceb992"/><ellipse cx="190" cy="600" rx="10" ry="10" style="fill:#b00b31"/><ellipse cx="190" cy="1200" rx="10" ry="10" style="fill:#6BF178"/><ellipse cx="160" cy="800" rx="10" ry="10" style="fill:#02a9ea"/><ellipse cx="220" cy="1200" rx="10" ry="10" style="fill:#da4167"/><ellipse cx="100" cy="1400" rx="10" ry="10" style="fill:#832161"/><ellipse cx="130" cy="1400" rx="10" ry="10" style="fill:#832161"/><ellipse cx="160" cy="1400" rx="10" ry="10" style="fill:#832161"/><ellipse cx="190" cy="1400" rx="10" ry="10" style="fill:#832161"/><ellipse cx="250" cy="1200" rx="10" ry="10" style="fill:#000000"/><ellipse cx="190" cy="1000" rx="10" ry="10" style="fill:#ceb992"/><ellipse cx="190" cy="800" rx="10" ry="10" style="fill:#b00b31"/><ellipse cx="220" cy="600" rx="10" ry="10" style="fill:#b55300"/><ellipse cx="250" cy="600" rx="10" ry="10" style="fill:#ff01fb"/><ellipse cx="280" cy="600" rx="10" ry="10" style="fill:#a6e1fa"/><ellipse cx="130" cy="400" rx="10" ry="10" style="fill:#0e6ba8"/><ellipse cx="220" cy="1000" rx="10" ry="10" style="fill:#da4167"/><ellipse cx="250" cy="1000" rx="10" ry="10" style="fill:#832161"/><ellipse cx="280" cy="1000" rx="10" ry="10" style="fill:#6BF178"/><ellipse cx="220" cy="800" rx="10" ry="10" style="fill:#f6511d"/><ellipse cx="280" cy="1200" rx="10" ry="10" style="fill:#6BF178"/><ellipse cx="250" cy="800" rx="10" ry="10" style="fill:#0a2472"/><ellipse cx="310" cy="600" rx="10" ry="10" style="fill:#99ddc8"/><ellipse cx="310" cy="1000" rx="10" ry="10" style="fill:#da4167"/><ellipse cx="340" cy="1000" rx="10" ry="10" style="fill:#832161"/><ellipse cx="280" cy="800" rx="10" ry="10" style="fill:#f6511d"/><ellipse cx="310" cy="1200" rx="10" ry="10" style="fill:#6BF178"/><ellipse cx="310" cy="800" rx="10" ry="10" style="fill:#0a2472"/><ellipse cx="340" cy="600" rx="10" ry="10" style="fill:#99ddc8"/><ellipse cx="370" cy="1000" rx="10" ry="10" style="fill:#da4167"/><ellipse cx="400" cy="1000" rx="10" ry="10" style="fill:#832161"/><ellipse cx="340" cy="800" rx="10" ry="10" style="fill:#f6511d"/><ellipse cx="340" cy="1200" rx="10" ry="10" style="fill:#6BF178"/><ellipse cx="370" cy="800" rx="10" ry="10" style="fill:#0a2472"/><ellipse cx="370" cy="600" rx="10" ry="10" style="fill:#99ddc8"/><ellipse cx="400" cy="600" rx="10" ry="10" style="fill:#a6e1fa"/><ellipse cx="160" cy="400" rx="10" ry="10" style="fill:#0e6ba8"/><ellipse cx="190" cy="400" rx="10" ry="10" style="fill:#0e6ba8"/><ellipse cx="70" cy="200" rx="10" ry="10" style="fill:#001c55"/><ellipse cx="220" cy="1400" rx="10" ry="10" style="fill:#6BF178"/><ellipse cx="430" cy="1000" rx="10" ry="10" style="fill:#da4167"/><ellipse cx="370" cy="1200" rx="10" ry="10" style="fill:#832161"/><ellipse cx="250" cy="1400" rx="10" ry="10" style="fill:#6BF178"/><ellipse cx="400" cy="1200" rx="10" ry="10" style="fill:#3d2645"/><ellipse cx="460" cy="1000" rx="10" ry="10" style="fill:#000000"/><ellipse cx="400" cy="800" rx="10" ry="10" style="fill:#ceb992"/><ellipse cx="430" cy="600" rx="10" ry="10" style="fill:#b00b31"/><ellipse cx="430" cy="800" rx="10" ry="10" style="fill:#02a9ea"/><ellipse cx="430" cy="1200" rx="10" ry="10" style="fill:#da4167"/><ellipse cx="280" cy="1400" rx="10" ry="10" style="fill:#832161"/><ellipse cx="310" cy="1400" rx="10" ry="10" style="fill:#3d2645"/><ellipse cx="460" cy="1200" rx="10" ry="10" style="fill:#000000"/><ellipse cx="490" cy="1000" rx="10" ry="10" style="fill:#ceb992"/><ellipse cx="460" cy="800" rx="10" ry="10" style="fill:#b00b31"/><ellipse cx="460" cy="600" rx="10" ry="10" style="fill:#b55300"/><ellipse cx="490" cy="600" rx="10" ry="10" style="fill:#ff01fb"/><ellipse cx="520" cy="600" rx="10" ry="10" style="fill:#a6e1fa"/><ellipse cx="220" cy="400" rx="10" ry="10" style="fill:#0e6ba8"/><ellipse cx="340" cy="1400" rx="10" ry="10" style="fill:#6BF178"/><ellipse cx="520" cy="1000" rx="10" ry="10" style="fill:#da4167"/><ellipse cx="550" cy="1000" rx="10" ry="10" style="fill:#000000"/><ellipse cx="490" cy="800" rx="10" ry="10" style="fill:#ceb992"/><ellipse cx="550" cy="600" rx="10" ry="10" style="fill:#b00b31"/><ellipse cx="490" cy="1200" rx="10" ry="10" style="fill:#6BF178"/><ellipse cx="520" cy="800" rx="10" ry="10" style="fill:#02a9ea"/><ellipse cx="550" cy="800" rx="10" ry="10" style="fill:#ff01fb"/><ellipse cx="580" cy="600" rx="10" ry="10" style="fill:#b55300"/><ellipse cx="610" cy="600" rx="10" ry="10" style="fill:#a6e1fa"/><ellipse cx="250" cy="400" rx="10" ry="10" style="fill:#0e6ba8"/><ellipse cx="580" cy="1000" rx="10" ry="10" style="fill:#6BF178"/><ellipse cx="640" cy="600" rx="10" ry="10" style="fill:#0a2472"/><ellipse cx="670" cy="600" rx="10" ry="10" style="fill:#a6e1fa"/><ellipse cx="280" cy="400" rx="10" ry="10" style="fill:#0e6ba8"/><ellipse cx="310" cy="400" rx="10" ry="10" style="fill:#0e6ba8"/><ellipse cx="100" cy="200" rx="10" ry="10" style="fill:#001c55"/><ellipse cx="610" cy="1000" rx="10" ry="10" style="fill:#da4167"/><ellipse cx="520" cy="1200" rx="10" ry="10" style="fill:#832161"/><ellipse cx="550" cy="1200" rx="10" ry="10" style="fill:#3d2645"/><ellipse cx="640" cy="1000" rx="10" ry="10" style="fill:#000000"/><ellipse cx="580" cy="800" rx="10" ry="10" style="fill:#ceb992"/><ellipse cx="700" cy="600" rx="10" ry="10" style="fill:#b00b31"/><ellipse cx="610" cy="800" rx="10" ry="10" style="fill:#02a9ea"/><ellipse cx="580" cy="1200" rx="10" ry="10" style="fill:#da4167"/><ellipse cx="370" cy="1400" rx="10" ry="10" style="fill:#832161"/><ellipse cx="400" cy="1400" rx="10" ry="10" style="fill:#3d2645"/><ellipse cx="610" cy="1200" rx="10" ry="10" style="fill:#000000"/><ellipse cx="670" cy="1000" rx="10" ry="10" style="fill:#ceb992"/><ellipse cx="640" cy="800" rx="10" ry="10" style="fill:#b00b31"/><ellipse cx="730" cy="600" rx="10" ry="10" style="fill:#b55300"/><ellipse cx="760" cy="600" rx="10" ry="10" style="fill:#ff01fb"/><ellipse cx="790" cy="600" rx="10" ry="10" style="fill:#a6e1fa"/><ellipse cx="340" cy="400" rx="10" ry="10" style="fill:#0e6ba8"/><ellipse cx="700" cy="1000" rx="10" ry="10" style="fill:#da4167"/><ellipse cx="730" cy="1000" rx="10" ry="10" style="fill:#000000"/><ellipse cx="670" cy="800" rx="10" ry="10" style="fill:#ceb992"/><ellipse cx="820" cy="600" rx="10" ry="10" style="fill:#b00b31"/><ellipse cx="700" cy="800" rx="10" ry="10" style="fill:#02a9ea"/><ellipse cx="730" cy="800" rx="10" ry="10" style="fill:#ff01fb"/><ellipse cx="850" cy="600" rx="10" ry="10" style="fill:#b55300"/><ellipse cx="880" cy="600" rx="10" ry="10" style="fill:#a6e1fa"/><ellipse cx="370" cy="400" rx="10" ry="10" style="fill:#0e6ba8"/><ellipse cx="910" cy="600" rx="10" ry="10" style="fill:#0a2472"/><ellipse cx="940" cy="600" rx="10" ry="10" style="fill:#a6e1fa"/><ellipse cx="400" cy="400" rx="10" ry="10" style="fill:#0e6ba8"/><ellipse cx="430" cy="400" rx="10" ry="10" style="fill:#0e6ba8"/><ellipse cx="130" cy="200" rx="10" ry="10" style="fill:#001c55"/><ellipse cx="760" cy="1000" rx="10" ry="10" style="fill:#da4167"/><ellipse cx="640" cy="1200" rx="10" ry="10" style="fill:#832161"/><ellipse cx="670" cy="1200" rx="10" ry="10" style="fill:#3d2645"/><ellipse cx="790" cy="1000" rx="10" ry="10" style="fill:#000000"/><ellipse cx="760" cy="800" rx="10" ry="10" style="fill:#ceb992"/><ellipse cx="970" cy="600" rx="10" ry="10" style="fill:#b00b31"/><ellipse cx="790" cy="800" rx="10" ry="10" style="fill:#02a9ea"/><ellipse cx="700" cy="1200" rx="10" ry="10" style="fill:#da4167"/><ellipse cx="430" cy="1400" rx="10" ry="10" style="fill:#832161"/><ellipse cx="460" cy="1400" rx="10" ry="10" style="fill:#3d2645"/><ellipse cx="730" cy="1200" rx="10" ry="10" style="fill:#000000"/><ellipse cx="820" cy="1000" rx="10" ry="10" style="fill:#ceb992"/><ellipse cx="820" cy="800" rx="10" ry="10" style="fill:#b00b31"/><ellipse cx="1000" cy="600" rx="10" ry="10" style="fill:#b55300"/><ellipse cx="1030" cy="600" rx="10" ry="10" style="fill:#ff01fb"/><ellipse cx="1060" cy="600" rx="10" ry="10" style="fill:#a6e1fa"/><ellipse cx="460" cy="400" rx="10" ry="10" style="fill:#0e6ba8"/><ellipse cx="850" cy="1000" rx="10" ry="10" style="fill:#da4167"/><ellipse cx="880" cy="1000" rx="10" ry="10" style="fill:#000000"/><ellipse cx="850" cy="800" rx="10" ry="10" style="fill:#ceb992"/><ellipse cx="1090" cy="600" rx="10" ry="10" style="fill:#b00b31"/><ellipse cx="880" cy="800" rx="10" ry="10" style="fill:#02a9ea"/><ellipse cx="910" cy="800" rx="10" ry="10" style="fill:#ff01fb"/><ellipse cx="1120" cy="600" rx="10" ry="10" style="fill:#b55300"/><ellipse cx="1150" cy="600" rx="10" ry="10" style="fill:#a6e1fa"/><ellipse cx="490" cy="400" rx="10" ry="10" style="fill:#0e6ba8"/><ellipse cx="1180" cy="600" rx="10" ry="10" style="fill:#0a2472"/><ellipse cx="1210" cy="600" rx="10" ry="10" style="fill:#a6e1fa"/><ellipse cx="520" cy="400" rx="10" ry="10" style="fill:#0e6ba8"/><ellipse cx="550" cy="400" rx="10" ry="10" style="fill:#0e6ba8"/><ellipse cx="160" cy="200" rx="10" ry="10" style="fill:#001c55"/><ellipse cx="910" cy="1000" rx="10" ry="10" style="fill:#da4167"/><ellipse cx="760" cy="1200" rx="10" ry="10" style="fill:#832161"/><ellipse cx="790" cy="1200" rx="10" ry="10" style="fill:#832161"/><ellipse cx="820" cy="1200" rx="10" ry="10" style="fill:#832161"/><ellipse cx="850" cy="1200" rx="10" ry="10" style="fill:#832161"/><ellipse cx="940" cy="1000" rx="10" ry="10" style="fill:#000000"/><ellipse cx="940" cy="800" rx="10" ry="10" style="fill:#ceb992"/><ellipse cx="1240" cy="600" rx="10" ry="10" style="fill:#b00b31"/><ellipse cx="970" cy="800" rx="10" ry="10" style="fill:#02a9ea"/><ellipse cx="1000" cy="800" rx="10" ry="10" style="fill:#ff01fb"/><ellipse cx="1270" cy="600" rx="10" ry="10" style="fill:#b55300"/><ellipse cx="1300" cy="600" rx="10" ry="10" style="fill:#a6e1fa"/><ellipse cx="580" cy="400" rx="10" ry="10" style="fill:#0e6ba8"/><ellipse cx="970" cy="1000" rx="10" ry="10" style="fill:#da4167"/><ellipse cx="880" cy="1200" rx="10" ry="10" style="fill:#832161"/><ellipse cx="910" cy="1200" rx="10" ry="10" style="fill:#832161"/><ellipse cx="940" cy="1200" rx="10" ry="10" style="fill:#832161"/><ellipse cx="970" cy="1200" rx="10" ry="10" style="fill:#832161"/><ellipse cx="1000" cy="1000" rx="10" ry="10" style="fill:#000000"/><ellipse cx="1030" cy="800" rx="10" ry="10" style="fill:#ceb992"/><ellipse cx="1330" cy="600" rx="10" ry="10" style="fill:#b00b31"/><ellipse cx="1060" cy="800" rx="10" ry="10" style="fill:#02a9ea"/><ellipse cx="1090" cy="800" rx="10" ry="10" style="fill:#ff01fb"/><ellipse cx="1360" cy="600" rx="10" ry="10" style="fill:#b55300"/><ellipse cx="1390" cy="600" rx="10" ry="10" style="fill:#a6e1fa"/><ellipse cx="610" cy="400" rx="10" ry="10" style="fill:#0e6ba8"/><ellipse cx="490" cy="1400" rx="10" ry="10" style="fill:#6BF178"/><ellipse cx="1030" cy="1000" rx="10" ry="10" style="fill:#da4167"/><ellipse cx="1060" cy="1000" rx="10" ry="10" style="fill:#000000"/><ellipse cx="1120" cy="800" rx="10" ry="10" style="fill:#ceb992"/><ellipse cx="1420" cy="600" rx="10" ry="10" style="fill:#b00b31"/><ellipse cx="1150" cy="800" rx="10" ry="10" style="fill:#02a9ea"/><ellipse cx="40" cy="1600" rx="10" ry="10" style="fill:#6BF178"/><ellipse cx="1000" cy="1200" rx="10" ry="10" style="fill:#da4167"/><ellipse cx="1030" cy="1200" rx="10" ry="10" style="fill:#000000"/><ellipse cx="1090" cy="1000" rx="10" ry="10" style="fill:#ceb992"/><ellipse cx="1180" cy="800" rx="10" ry="10" style="fill:#b00b31"/><ellipse cx="1450" cy="600" rx="10" ry="10" style="fill:#b55300"/><ellipse cx="1480" cy="600" rx="10" ry="10" style="fill:#ff01fb"/><ellipse cx="1510" cy="600" rx="10" ry="10" style="fill:#a6e1fa"/><ellipse cx="640" cy="400" rx="10" ry="10" style="fill:#0e6ba8"/><ellipse cx="1120" cy="1000" rx="10" ry="10" style="fill:#da4167"/><ellipse cx="1060" cy="1200" rx="10" ry="10" style="fill:#832161"/><ellipse cx="1090" cy="1200" rx="10" ry="10" style="fill:#832161"/><ellipse cx="1120" cy="1200" rx="10" ry="10" style="fill:#832161"/><ellipse cx="1150" cy="1200" rx="10" ry="10" style="fill:#832161"/><ellipse cx="1150" cy="1000" rx="10" ry="10" style="fill:#000000"/><ellipse cx="1210" cy="800" rx="10" ry="10" style="fill:#ceb992"/><ellipse cx="1540" cy="600" rx="10" ry="10" style="fill:#b00b31"/><ellipse cx="1240" cy="800" rx="10" ry="10" style="fill:#02a9ea"/><ellipse cx="1180" cy="1200" rx="10" ry="10" style="fill:#da4167"/><ellipse cx="520" cy="1400" rx="10" ry="10" style="fill:#832161"/><ellipse cx="550" cy="1400" rx="10" ry="10" style="fill:#832161"/><ellipse cx="580" cy="1400" rx="10" ry="10" style="fill:#832161"/><ellipse cx="610" cy="1400" rx="10" ry="10" style="fill:#832161"/><ellipse cx="1210" cy="1200" rx="10" ry="10" style="fill:#000000"/><ellipse cx="1180" cy="1000" rx="10" ry="10" style="fill:#ceb992"/><ellipse cx="1270" cy="800" rx="10" ry="10" style="fill:#b00b31"/><ellipse cx="1570" cy="600" rx="10" ry="10" style="fill:#b55300"/><ellipse cx="1210" cy="1000" rx="10" ry="10" style="fill:#6BF178"/><ellipse cx="1600" cy="600" rx="10" ry="10" style="fill:#0a2472"/><ellipse cx="1630" cy="600" rx="10" ry="10" style="fill:#a6e1fa"/><ellipse cx="670" cy="400" rx="10" ry="10" style="fill:#0e6ba8"/><ellipse cx="700" cy="400" rx="10" ry="10" style="fill:#0e6ba8"/><ellipse cx="190" cy="200" rx="10" ry="10" style="fill:#001c55"/><ellipse cx="1240" cy="1000" rx="10" ry="10" style="fill:#da4167"/><ellipse cx="1240" cy="1200" rx="10" ry="10" style="fill:#832161"/><ellipse cx="1270" cy="1200" rx="10" ry="10" style="fill:#832161"/><ellipse cx="1300" cy="1200" rx="10" ry="10" style="fill:#832161"/><ellipse cx="1330" cy="1200" rx="10" ry="10" style="fill:#832161"/><ellipse cx="1270" cy="1000" rx="10" ry="10" style="fill:#000000"/><ellipse cx="1300" cy="800" rx="10" ry="10" style="fill:#ceb992"/><ellipse cx="1660" cy="600" rx="10" ry="10" style="fill:#b00b31"/><ellipse cx="640" cy="1400" rx="10" ry="10" style="fill:#6BF178"/><ellipse cx="1300" cy="1000" rx="10" ry="10" style="fill:#da4167"/><ellipse cx="1330" cy="1000" rx="10" ry="10" style="fill:#000000"/><ellipse cx="1330" cy="800" rx="10" ry="10" style="fill:#ceb992"/><ellipse cx="1690" cy="600" rx="10" ry="10" style="fill:#b00b31"/><ellipse cx="1720" cy="600" rx="10" ry="10" style="fill:#a6e1fa"/><ellipse cx="730" cy="400" rx="10" ry="10" style="fill:#0e6ba8"/><ellipse cx="760" cy="400" rx="10" ry="10" style="fill:#0e6ba8"/><ellipse cx="220" cy="200" rx="10" ry="10" style="fill:#001c55"/><ellipse cx="40" cy="0" rx="10" ry="10" style="fill:#ce8147"/></svg>