<svg width="2164" height="1985" xmlns="http://www.w3.org/2000/svg"><path d="M10 10 L22 211" style="stroke:#000;stroke-width:1px"/><path d="M22 211 L34 412" style="stroke:#000;stroke-width:1px"/><path d="M34 412 L46 613" style="stroke:#000;stroke-width:1px"/><ellipse cx="46" cy="613" rx="5" ry="5" style="fill:#b55300"/><ellipse cx="34" cy="412" rx="5" ry="5" style="fill:#ff01fb"/><ellipse cx="22" cy="211" rx="5" ry="5" style="fill:#a6e1fa"/><path d="M10 10 L58 211" style="stroke:#000;stroke-width:1px"/><path d="M58 211 L70 412" style="stroke:#000;stroke-width:1px"/><path d="M70 412 L82 613" style="stroke:#000;stroke-width:1px"/><path d="M82 613 L94 814" style="stroke:#000;stroke-width:1px"/><ellipse cx="94" cy="814" rx="5" ry="5" style="fill:#0e6ba8"/><path d="M82 613 L106 814" style="stroke:#000;stroke-width:1px"/><path d="M106 814 L118 1015" style="stroke:#000;stroke-width:1px"/><ellipse cx="118" cy="1015" rx="5" ry="5" style="fill:#832161"/><ellipse cx="106" cy="814" rx="5" ry="5" style="fill:#3d2645"/><ellipse cx="82" cy="613" rx="5" ry="5" style="fill:#0a2472"/><path d="M70 412 L130 613" style="stroke:#000;stroke-width:1px"/><ellipse cx="130" cy="613" rx="5" ry="5" style="fill:#b00b31"/><ellipse cx="70" cy="412" rx="5" ry="5" style="fill:#ff01fb"/><path d="M58 211 L142 412" style="stroke:#000;stroke-width:1px"/><path d="M142 412 L154 613" style="stroke:#000;stroke-width:1px"/><path d="M154 613 L166 814" style="stroke:#000;stroke-width:1px"/><path d="M166 814 L178 1015" style="stroke:#000;stroke-width:1px"/><path d="M178 1015 L190 1216" style="stroke:#000;stroke-width:1px"/><ellipse cx="190" cy="1216" rx="5" ry="5" style="fill:#da4167"/><path d="M178 1015 L202 1216" style="stroke:#000;stroke-width:1px"/><ellipse cx="202" cy="1216" rx="5" ry="5" style="fill:#da4167"/><path d="M178 1015 L214 1216" style="stroke:#000;stroke-width:1px"/><ellipse cx="214" cy="1216" rx="5" ry="5" style="fill:#da4167"/><path d="M178 1015 L226 1216" style="stroke:#000;stroke-width:1px"/><ellipse cx="226" cy="1216" rx="5" ry="5" style="fill:#da4167"/><ellipse cx="178" cy="1015" rx="5" ry="5" style="fill:#832161"/><ellipse cx="166" cy="814" rx="5" ry="5" style="fill:#3d2645"/><ellipse cx="154" cy="613" rx="5" ry="5" style="fill:#000000"/><path d="M142 412 L238 613" style="stroke:#000;stroke-width:1px"/><path d="M238 613 L250 814" style="stroke:#000;stroke-width:1px"/><ellipse cx="250" cy="814" rx="5" ry="5" style="fill:#ceb992"/><path d="M238 613 L262 814" style="stroke:#000;stroke-width:1px"/><path d="M262 814 L274 1015" style="stroke:#000;stroke-width:1px"/><path d="M274 1015 L286 1216" style="stroke:#000;stroke-width:1px"/><path d="M286 1216 L298 1417" style="stroke:#000;stroke-width:1px"/><ellipse cx="298" cy="1417" rx="5" ry="5" style="fill:#da4167"/><path d="M286 1216 L310 1417" style="stroke:#000;stroke-width:1px"/><ellipse cx="310" cy="1417" rx="5" ry="5" style="fill:#da4167"/><path d="M286 1216 L322 1417" style="stroke:#000;stroke-width:1px"/><ellipse cx="322" cy="1417" rx="5" ry="5" style="fill:#da4167"/><path d="M286 1216 L334 1417" style="stroke:#000;stroke-width:1px"/><ellipse cx="334" cy="1417" rx="5" ry="5" style="fill:#da4167"/><ellipse cx="286" cy="1216" rx="5" ry="5" style="fill:#832161"/><ellipse cx="274" cy="1015" rx="5" ry="5" style="fill:#3d2645"/><ellipse cx="262" cy="814" rx="5" ry="5" style="fill:#000000"/><ellipse cx="238" cy="613" rx="5" ry="5" style="fill:#02a9ea"/><path d="M142 412 L346 613" style="stroke:#000;stroke-width:1px"/><ellipse cx="346" cy="613" rx="5" ry="5" style="fill:#b00b31"/><ellipse cx="142" cy="412" rx="5" ry="5" style="fill:#ff01fb"/><path d="M58 211 L358 412" style="stroke:#000;stroke-width:1px"/><path d="M358 412 L370 613" style="stroke:#000;stroke-width:1px"/><path d="M370 613 L382 814" style="stroke:#000;stroke-width:1px"/><path d="M382 814 L394 1015" style="stroke:#000;stroke-width:1px"/><ellipse cx="394" cy="1015" rx="5" ry="5" style="fill:#0e6ba8"/><path d="M382 814 L406 1015" style="stroke:#000;stroke-width:1px"/><ellipse cx="406" cy="1015" rx="5" ry="5" style="fill:#da4167"/><ellipse cx="382" cy="814" rx="5" ry="5" style="fill:#001c55"/><path d="M370 613 L418 814" style="stroke:#000;stroke-width:1px"/><ellipse cx="418" cy="814" rx="5" ry="5" style="fill:#b55300"/><ellipse cx="370" cy="613" rx="5" ry="5" style="fill:#00072d"/><path d="M358 412 L430 613" style="stroke:#000;stroke-width:1px"/><path d="M430 613 L442 814" style="stroke:#000;stroke-width:1px"/><path d="M442 814 L454 1015" style="stroke:#000;stroke-width:1px"/><ellipse cx="454" cy="1015" rx="5" ry="5" style="fill:#0e6ba8"/><path d="M442 814 L466 1015" style="stroke:#000;stroke-width:1px"/><ellipse cx="466" cy="1015" rx="5" ry="5" style="fill:#da4167"/><ellipse cx="442" cy="814" rx="5" ry="5" style="fill:#001c55"/><path d="M430 613 L478 814" style="stroke:#000;stroke-width:1px"/><ellipse cx="478" cy="814" rx="5" ry="5" style="fill:#b55300"/><ellipse cx="430" cy="613" rx="5" ry="5" style="fill:#00072d"/><path d="M358 412 L490 613" style="stroke:#000;stroke-width:1px"/><path d="M490 613 L502 814" style="stroke:#000;stroke-width:1px"/><path d="M502 814 L514 1015" style="stroke:#000;stroke-width:1px"/><ellipse cx="514" cy="1015" rx="5" ry="5" style="fill:#0e6ba8"/><path d="M502 814 L526 1015" style="stroke:#000;stroke-width:1px"/><ellipse cx="526" cy="1015" rx="5" ry="5" style="fill:#da4167"/><ellipse cx="502" cy="814" rx="5" ry="5" style="fill:#001c55"/><path d="M490 613 L538 814" style="stroke:#000;stroke-width:1px"/><ellipse cx="538" cy="814" rx="5" ry="5" style="fill:#b55300"/><ellipse cx="490" cy="613" rx="5" ry="5" style="fill:#00072d"/><ellipse cx="358" cy="412" rx="5" ry="5" style="fill:#ff01fb"/><ellipse cx="58" cy="211" rx="5" ry="5" style="fill:#a6e1fa"/><path d="M10 10 L550 211" style="stroke:#000;stroke-width:1px"/><path d="M550 211 L562 412" style="stroke:#000;stroke-width:1px"/><path d="M562 412 L574 613" style="stroke:#000;stroke-width:1px"/><path d="M574 613 L586 814" style="stroke:#000;stroke-width:1px"/><path d="M586 814 L598 1015" style="stroke:#000;stroke-width:1px"/><path d="M598 1015 L610 1216" style="stroke:#000;stroke-width:1px"/><ellipse cx="610" cy="1216" rx="5" ry="5" style="fill:#6BF178"/><path d="M598 1015 L622 1216" style="stroke:#000;stroke-width:1px"/><ellipse cx="622" cy="1216" rx="5" ry="5" style="fill:#da4167"/><ellipse cx="598" cy="1015" rx="5" ry="5" style="fill:#832161"/><ellipse cx="586" cy="814" rx="5" ry="5" style="fill:#3d2645"/><ellipse cx="574" cy="613" rx="5" ry="5" style="fill:#000000"/><path d="M562 412 L634 613" style="stroke:#000;stroke-width:1px"/><path d="M634 613 L646 814" style="stroke:#000;stroke-width:1px"/><ellipse cx="646" cy="814" rx="5" ry="5" style="fill:#ceb992"/><path d="M634 613 L658 814" style="stroke:#000;stroke-width:1px"/><path d="M658 814 L670 1015" style="stroke:#000;stroke-width:1px"/><path d="M670 1015 L682 1216" style="stroke:#000;stroke-width:1px"/><path d="M682 1216 L694 1417" style="stroke:#000;stroke-width:1px"/><ellipse cx="694" cy="1417" rx="5" ry="5" style="fill:#6BF178"/><path d="M682 1216 L706 1417" style="stroke:#000;stroke-width:1px"/><ellipse cx="706" cy="1417" rx="5" ry="5" style="fill:#da4167"/><ellipse cx="682" cy="1216" rx="5" ry="5" style="fill:#832161"/><ellipse cx="670" cy="1015" rx="5" ry="5" style="fill:#3d2645"/><ellipse cx="658" cy="814" rx="5" ry="5" style="fill:#000000"/><ellipse cx="634" cy="613" rx="5" ry="5" style="fill:#02a9ea"/><path d="M562 412 L718 613" style="stroke:#000;stroke-width:1px"/><ellipse cx="718" cy="613" rx="5" ry="5" style="fill:#b00b31"/><ellipse cx="562" cy="412" rx="5" ry="5" style="fill:#ff01fb"/><path d="M550 211 L730 412" style="stroke:#000;stroke-width:1px"/><path d="M730 412 L742 613" style="stroke:#000;stroke-width:1px"/><path d="M742 613 L754 814" style="stroke:#000;stroke-width:1px"/><path d="M754 814 L766 1015" style="stroke:#000;stroke-width:1px"/><ellipse cx="766" cy="1015" rx="5" ry="5" style="fill:#832161"/><ellipse cx="754" cy="814" rx="5" ry="5" style="fill:#3d2645"/><ellipse cx="742" cy="613" rx="5" ry="5" style="fill:#000000"/><path d="M730 412 L778 613" style="stroke:#000;stroke-width:1px"/><path d="M778 613 L790 814" style="stroke:#000;stroke-width:1px"/><ellipse cx="790" cy="814" rx="5" ry="5" style="fill:#ceb992"/><path d="M778 613 L802 814" style="stroke:#000;stroke-width:1px"/><ellipse cx="802" cy="814" rx="5" ry="5" style="fill:#b00b31"/><ellipse cx="778" cy="613" rx="5" ry="5" style="fill:#02a9ea"/><ellipse cx="730" cy="412" rx="5" ry="5" style="fill:#ff01fb"/><path d="M550 211 L814 412" style="stroke:#000;stroke-width:1px"/><path d="M814 412 L826 613" style="stroke:#000;stroke-width:1px"/><ellipse cx="826" cy="613" rx="5" ry="5" style="fill:#b55300"/><ellipse cx="814" cy="412" rx="5" ry="5" style="fill:#ff01fb"/><ellipse cx="550" cy="211" rx="5" ry="5" style="fill:#a6e1fa"/><path d="M10 10 L838 211" style="stroke:#000;stroke-width:1px"/><path d="M838 211 L850 412" style="stroke:#000;stroke-width:1px"/><path d="M850 412 L862 613" style="stroke:#000;stroke-width:1px"/><path d="M862 613 L874 814" style="stroke:#000;stroke-width:1px"/><path d="M874 814 L886 1015" style="stroke:#000;stroke-width:1px"/><path d="M886 1015 L898 1216" style="stroke:#000;stroke-width:1px"/><ellipse cx="898" cy="1216" rx="5" ry="5" style="fill:#6BF178"/><path d="M886 1015 L910 1216" style="stroke:#000;stroke-width:1px"/><ellipse cx="910" cy="1216" rx="5" ry="5" style="fill:#da4167"/><ellipse cx="886" cy="1015" rx="5" ry="5" style="fill:#832161"/><ellipse cx="874" cy="814" rx="5" ry="5" style="fill:#3d2645"/><ellipse cx="862" cy="613" rx="5" ry="5" style="fill:#000000"/><path d="M850 412 L922 613" style="stroke:#000;stroke-width:1px"/><path d="M922 613 L934 814" style="stroke:#000;stroke-width:1px"/><ellipse cx="934" cy="814" rx="5" ry="5" style="fill:#ceb992"/><path d="M922 613 L946 814" style="stroke:#000;stroke-width:1px"/><path d="M946 814 L958 1015" style="stroke:#000;stroke-width:1px"/><path d="M958 1015 L970 1216" style="stroke:#000;stroke-width:1px"/><path d="M970 1216 L982 1417" style="stroke:#000;stroke-width:1px"/><ellipse cx="982" cy="1417" rx="5" ry="5" style="fill:#6BF178"/><path d="M970 1216 L994 1417" style="stroke:#000;stroke-width:1px"/><ellipse cx="994" cy="1417" rx="5" ry="5" style="fill:#da4167"/><ellipse cx="970" cy="1216" rx="5" ry="5" style="fill:#832161"/><ellipse cx="958" cy="1015" rx="5" ry="5" style="fill:#3d2645"/><ellipse cx="946" cy="814" rx="5" ry="5" style="fill:#000000"/><ellipse cx="922" cy="613" rx="5" ry="5" style="fill:#02a9ea"/><path d="M850 412 L1006 613" style="stroke:#000;stroke-width:1px"/><ellipse cx="1006" cy="613" rx="5" ry="5" style="fill:#b00b31"/><ellipse cx="850" cy="412" rx="5" ry="5" style="fill:#ff01fb"/><path d="M838 211 L1018 412" style="stroke:#000;stroke-width:1px"/><path d="M1018 412 L1030 613" style="stroke:#000;stroke-width:1px"/><path d="M1030 613 L1042 814" style="stroke:#000;stroke-width:1px"/><path d="M1042 814 L1054 1015" style="stroke:#000;stroke-width:1px"/><ellipse cx="1054" cy="1015" rx="5" ry="5" style="fill:#832161"/><ellipse cx="1042" cy="814" rx="5" ry="5" style="fill:#3d2645"/><ellipse cx="1030" cy="613" rx="5" ry="5" style="fill:#000000"/><path d="M1018 412 L1066 613" style="stroke:#000;stroke-width:1px"/><path d="M1066 613 L1078 814" style="stroke:#000;stroke-width:1px"/><ellipse cx="1078" cy="814" rx="5" ry="5" style="fill:#ceb992"/><path d="M1066 613 L1090 814" style="stroke:#000;stroke-width:1px"/><ellipse cx="1090" cy="814" rx="5" ry="5" style="fill:#b00b31"/><ellipse cx="1066" cy="613" rx="5" ry="5" style="fill:#02a9ea"/><ellipse cx="1018" cy="412" rx="5" ry="5" style="fill:#ff01fb"/><path d="M838 211 L1102 412" style="stroke:#000;stroke-width:1px"/><path d="M1102 412 L1114 613" style="stroke:#000;stroke-width:1px"/><ellipse cx="1114" cy="613" rx="5" ry="5" style="fill:#b55300"/><ellipse cx="1102" cy="412" rx="5" ry="5" style="fill:#ff01fb"/><ellipse cx="838" cy="211" rx="5" ry="5" style="fill:#a6e1fa"/><path d="M10 10 L1126 211" style="stroke:#000;stroke-width:1px"/><path d="M1126 211 L1138 412" style="stroke:#000;stroke-width:1px"/><path d="M1138 412 L1150 613" style="stroke:#000;stroke-width:1px"/><path d="M1150 613 L1162 814" style="stroke:#000;stroke-width:1px"/><path d="M1162 814 L1174 1015" style="stroke:#000;stroke-width:1px"/><path d="M1174 1015 L1186 1216" style="stroke:#000;stroke-width:1px"/><ellipse cx="1186" cy="1216" rx="5" ry="5" style="fill:#6BF178"/><path d="M1174 1015 L1198 1216" style="stroke:#000;stroke-width:1px"/><ellipse cx="1198" cy="1216" rx="5" ry="5" style="fill:#da4167"/><ellipse cx="1174" cy="1015" rx="5" ry="5" style="fill:#832161"/><ellipse cx="1162" cy="814" rx="5" ry="5" style="fill:#3d2645"/><ellipse cx="1150" cy="613" rx="5" ry="5" style="fill:#000000"/><path d="M1138 412 L1210 613" style="stroke:#000;stroke-width:1px"/><path d="M1210 613 L1222 814" style="stroke:#000;stroke-width:1px"/><ellipse cx="1222" cy="814" rx="5" ry="5" style="fill:#ceb992"/><path d="M1210 613 L1234 814" style="stroke:#000;stroke-width:1px"/><path d="M1234 814 L1246 1015" style="stroke:#000;stroke-width:1px"/><path d="M1246 1015 L1258 1216" style="stroke:#000;stroke-width:1px"/><path d="M1258 1216 L1270 1417" style="stroke:#000;stroke-width:1px"/><ellipse cx="1270" cy="1417" rx="5" ry="5" style="fill:#6BF178"/><path d="M1258 1216 L1282 1417" style="stroke:#000;stroke-width:1px"/><ellipse cx="1282" cy="1417" rx="5" ry="5" style="fill:#da4167"/><ellipse cx="1258" cy="1216" rx="5" ry="5" style="fill:#832161"/><ellipse cx="1246" cy="1015" rx="5" ry="5" style="fill:#3d2645"/><ellipse cx="1234" cy="814" rx="5" ry="5" style="fill:#000000"/><ellipse cx="1210" cy="613" rx="5" ry="5" style="fill:#02a9ea"/><path d="M1138 412 L1294 613" style="stroke:#000;stroke-width:1px"/><ellipse cx="1294" cy="613" rx="5" ry="5" style="fill:#b00b31"/><ellipse cx="1138" cy="412" rx="5" ry="5" style="fill:#ff01fb"/><path d="M1126 211 L1306 412" style="stroke:#000;stroke-width:1px"/><path d="M1306 412 L1318 613" style="stroke:#000;stroke-width:1px"/><path d="M1318 613 L1330 814" style="stroke:#000;stroke-width:1px"/><path d="M1330 814 L1342 1015" style="stroke:#000;stroke-width:1px"/><ellipse cx="1342" cy="1015" rx="5" ry="5" style="fill:#832161"/><ellipse cx="1330" cy="814" rx="5" ry="5" style="fill:#3d2645"/><ellipse cx="1318" cy="613" rx="5" ry="5" style="fill:#000000"/><path d="M1306 412 L1354 613" style="stroke:#000;stroke-width:1px"/><path d="M1354 613 L1366 814" style="stroke:#000;stroke-width:1px"/><ellipse cx="1366" cy="814" rx="5" ry="5" style="fill:#ceb992"/><path d="M1354 613 L1378 814" style="stroke:#000;stroke-width:1px"/><ellipse cx="1378" cy="814" rx="5" ry="5" style="fill:#b00b31"/><ellipse cx="1354" cy="613" rx="5" ry="5" style="fill:#02a9ea"/><ellipse cx="1306" cy="412" rx="5" ry="5" style="fill:#ff01fb"/><path d="M1126 211 L1390 412" style="stroke:#000;stroke-width:1px"/><path d="M1390 412 L1402 613" style="stroke:#000;stroke-width:1px"/><ellipse cx="1402" cy="613" rx="5" ry="5" style="fill:#b55300"/><ellipse cx="1390" cy="412" rx="5" ry="5" style="fill:#ff01fb"/><ellipse cx="1126" cy="211" rx="5" ry="5" style="fill:#a6e1fa"/><path d="M10 10 L1414 211" style="stroke:#000;stroke-width:1px"/><path d="M1414 211 L1426 412" style="stroke:#000;stroke-width:1px"/><path d="M1426 412 L1438 613" style="stroke:#000;stroke-width:1px"/><path d="M1438 613 L1450 814" style="stroke:#000;stroke-width:1px"/><path d="M1450 814 L1462 1015" style="stroke:#000;stroke-width:1px"/><path d="M1462 1015 L1474 1216" style="stroke:#000;stroke-width:1px"/><ellipse cx="1474" cy="1216" rx="5" ry="5" style="fill:#da4167"/><path d="M1462 1015 L1486 1216" style="stroke:#000;stroke-width:1px"/><ellipse cx="1486" cy="1216" rx="5" ry="5" style="fill:#da4167"/><path d="M1462 1015 L1498 1216" style="stroke:#000;stroke-width:1px"/><ellipse cx="1498" cy="1216" rx="5" ry="5" style="fill:#da4167"/><path d="M1462 1015 L1510 1216" style="stroke:#000;stroke-width:1px"/><ellipse cx="1510" cy="1216" rx="5" ry="5" style="fill:#da4167"/><ellipse cx="1462" cy="1015" rx="5" ry="5" style="fill:#832161"/><ellipse cx="1450" cy="814" rx="5" ry="5" style="fill:#3d2645"/><ellipse cx="1438" cy="613" rx="5" ry="5" style="fill:#000000"/><path d="M1426 412 L1522 613" style="stroke:#000;stroke-width:1px"/><path d="M1522 613 L1534 814" style="stroke:#000;stroke-width:1px"/><ellipse cx="1534" cy="814" rx="5" ry="5" style="fill:#ceb992"/><path d="M1522 613 L1546 814" style="stroke:#000;stroke-width:1px"/><ellipse cx="1546" cy="814" rx="5" ry="5" style="fill:#b00b31"/><ellipse cx="1522" cy="613" rx="5" ry="5" style="fill:#02a9ea"/><ellipse cx="1426" cy="412" rx="5" ry="5" style="fill:#ff01fb"/><path d="M1414 211 L1558 412" style="stroke:#000;stroke-width:1px"/><path d="M1558 412 L1570 613" style="stroke:#000;stroke-width:1px"/><path d="M1570 613 L1582 814" style="stroke:#000;stroke-width:1px"/><path d="M1582 814 L1594 1015" style="stroke:#000;stroke-width:1px"/><path d="M1594 1015 L1606 1216" style="stroke:#000;stroke-width:1px"/><ellipse cx="1606" cy="1216" rx="5" ry="5" style="fill:#da4167"/><path d="M1594 1015 L1618 1216" style="stroke:#000;stroke-width:1px"/><ellipse cx="1618" cy="1216" rx="5" ry="5" style="fill:#da4167"/><path d="M1594 1015 L1630 1216" style="stroke:#000;stroke-width:1px"/><ellipse cx="1630" cy="1216" rx="5" ry="5" style="fill:#da4167"/><path d="M1594 1015 L1642 1216" style="stroke:#000;stroke-width:1px"/><ellipse cx="1642" cy="1216" rx="5" ry="5" style="fill:#da4167"/><ellipse cx="1594" cy="1015" rx="5" ry="5" style="fill:#832161"/><ellipse cx="1582" cy="814" rx="5" ry="5" style="fill:#3d2645"/><ellipse cx="1570" cy="613" rx="5" ry="5" style="fill:#000000"/><path d="M1558 412 L1654 613" style="stroke:#000;stroke-width:1px"/><path d="M1654 613 L1666 814" style="stroke:#000;stroke-width:1px"/><ellipse cx="1666" cy="814" rx="5" ry="5" style="fill:#ceb992"/><path d="M1654 613 L1678 814" style="stroke:#000;stroke-width:1px"/><ellipse cx="1678" cy="814" rx="5" ry="5" style="fill:#b00b31"/><ellipse cx="1654" cy="613" rx="5" ry="5" style="fill:#02a9ea"/><ellipse cx="1558" cy="412" rx="5" ry="5" style="fill:#ff01fb"/><path d="M1414 211 L1690 412" style="stroke:#000;stroke-width:1px"/><path d="M1690 412 L1702 613" style="stroke:#000;stroke-width:1px"/><path d="M1702 613 L1714 814" style="stroke:#000;stroke-width:1px"/><path d="M1714 814 L1726 1015" style="stroke:#000;stroke-width:1px"/><ellipse cx="1726" cy="1015" rx="5" ry="5" style="fill:#832161"/><ellipse cx="1714" cy="814" rx="5" ry="5" style="fill:#3d2645"/><ellipse cx="1702" cy="613" rx="5" ry="5" style="fill:#000000"/><path d="M1690 412 L1738 613" style="stroke:#000;stroke-width:1px"/><path d="M1738 613 L1750 814" style="stroke:#000;stroke-width:1px"/><ellipse cx="1750" cy="814" rx="5" ry="5" style="fill:#ceb992"/><path d="M1738 613 L1762 814" style="stroke:#000;stroke-width:1px"/><path d="M1762 814 L1774 1015" style="stroke:#000;stroke-width:1px"/><path d="M1774 1015 L1786 1216" style="stroke:#000;stroke-width:1px"/><ellipse cx="1786" cy="1216" rx="5" ry="5" style="fill:#832161"/><ellipse cx="1774" cy="1015" rx="5" ry="5" style="fill:#3d2645"/><ellipse cx="1762" cy="814" rx="5" ry="5" style="fill:#000000"/><ellipse cx="1738" cy="613" rx="5" ry="5" style="fill:#02a9ea"/><path d="M1690 412 L1798 613" style="stroke:#000;stroke-width:1px"/><ellipse cx="1798" cy="613" rx="5" ry="5" style="fill:#b00b31"/><ellipse cx="1690" cy="412" rx="5" ry="5" style="fill:#ff01fb"/><path d="M1414 211 L1810 412" style="stroke:#000;stroke-width:1px"/><path d="M1810 412 L1822 613" style="stroke:#000;stroke-width:1px"/><path d="M1822 613 L1834 814" style="stroke:#000;stroke-width:1px"/><path d="M1834 814 L1846 1015" style="stroke:#000;stroke-width:1px"/><path d="M1846 1015 L1858 1216" style="stroke:#000;stroke-width:1px"/><ellipse cx="1858" cy="1216" rx="5" ry="5" style="fill:#da4167"/><path d="M1846 1015 L1870 1216" style="stroke:#000;stroke-width:1px"/><ellipse cx="1870" cy="1216" rx="5" ry="5" style="fill:#da4167"/><path d="M1846 1015 L1882 1216" style="stroke:#000;stroke-width:1px"/><ellipse cx="1882" cy="1216" rx="5" ry="5" style="fill:#da4167"/><path d="M1846 1015 L1894 1216" style="stroke:#000;stroke-width:1px"/><ellipse cx="1894" cy="1216" rx="5" ry="5" style="fill:#da4167"/><ellipse cx="1846" cy="1015" rx="5" ry="5" style="fill:#832161"/><ellipse cx="1834" cy="814" rx="5" ry="5" style="fill:#3d2645"/><ellipse cx="1822" cy="613" rx="5" ry="5" style="fill:#000000"/><path d="M1810 412 L1906 613" style="stroke:#000;stroke-width:1px"/><path d="M1906 613 L1918 814" style="stroke:#000;stroke-width:1px"/><ellipse cx="1918" cy="814" rx="5" ry="5" style="fill:#ceb992"/><path d="M1906 613 L1930 814" style="stroke:#000;stroke-width:1px"/><path d="M1930 814 L1942 1015" style="stroke:#000;stroke-width:1px"/><path d="M1942 1015 L1954 1216" style="stroke:#000;stroke-width:1px"/><path d="M1954 1216 L1966 1417" style="stroke:#000;stroke-width:1px"/><ellipse cx="1966" cy="1417" rx="5" ry="5" style="fill:#da4167"/><path d="M1954 1216 L1978 1417" style="stroke:#000;stroke-width:1px"/><ellipse cx="1978" cy="1417" rx="5" ry="5" style="fill:#da4167"/><path d="M1954 1216 L1990 1417" style="stroke:#000;stroke-width:1px"/><ellipse cx="1990" cy="1417" rx="5" ry="5" style="fill:#da4167"/><path d="M1954 1216 L2002 1417" style="stroke:#000;stroke-width:1px"/><ellipse cx="2002" cy="1417" rx="5" ry="5" style="fill:#da4167"/><ellipse cx="1954" cy="1216" rx="5" ry="5" style="fill:#832161"/><ellipse cx="1942" cy="1015" rx="5" ry="5" style="fill:#3d2645"/><ellipse cx="1930" cy="814" rx="5" ry="5" style="fill:#000000"/><ellipse cx="1906" cy="613" rx="5" ry="5" style="fill:#02a9ea"/><path d="M1810 412 L2014 613" style="stroke:#000;stroke-width:1px"/><ellipse cx="2014" cy="613" rx="5" ry="5" style="fill:#b55300"/><ellipse cx="1810" cy="412" rx="5" ry="5" style="fill:#ff01fb"/><ellipse cx="1414" cy="211" rx="5" ry="5" style="fill:#a6e1fa"/><path d="M10 10 L2026 211" style="stroke:#000;stroke-width:1px"/><path d="M2026 211 L2038 412" style="stroke:#000;stroke-width:1px"/><path d="M2038 412 L2050 613" style="stroke:#000;stroke-width:1px"/><path d="M2050 613 L2062 814" style="stroke:#000;stroke-width:1px"/><path d="M2062 814 L2074 1015" style="stroke:#000;stroke-width:1px"/><path d="M2074 1015 L2086 1216" style="stroke:#000;stroke-width:1px"/><ellipse cx="2086" cy="1216" rx="5" ry="5" style="fill:#da4167"/><path d="M2074 1015 L2098 1216" style="stroke:#000;stroke-width:1px"/><ellipse cx="2098" cy="1216" rx="5" ry="5" style="fill:#da4167"/><path d="M2074 1015 L2110 1216" style="stroke:#000;stroke-width:1px"/><ellipse cx="2110" cy="1216" rx="5" ry="5" style="fill:#da4167"/><path d="M2074 1015 L2122 1216" style="stroke:#000;stroke-width:1px"/><ellipse cx="2122" cy="1216" rx="5" ry="5" style="fill:#da4167"/><ellipse cx="2074" cy="1015" rx="5" ry="5" style="fill:#832161"/><ellipse cx="2062" cy="814" rx="5" ry="5" style="fill:#3d2645"/><ellipse cx="2050" cy="613" rx="5" ry="5" style="fill:#000000"/><path d="M2038 412 L2134 613" style="stroke:#000;stroke-width:1px"/><path d="M2134 613 L2146 814" style="stroke:#000;stroke-width:1px"/><path d="M2146 814 L2158 1015" style="stroke:#000;stroke-width:1px"/><ellipse cx="2158" cy="1015" rx="5" ry="5" style="fill:#832161"/><ellipse cx="2146" cy="814" rx="5" ry="5" style="fill:#3d2645"/><ellipse cx="2134" cy="613" rx="5" ry="5" style="fill:#000000"/><ellipse cx="2038" cy="412" rx="5" ry="5" style="fill:#ff01fb"/><ellipse cx="2026" cy="211" rx="5" ry="5" style="fill:#a6e1fa"/><ellipse cx="10" cy="10" rx="5" ry="5" style="fill:#f6511d"/><ellipse cx="10" cy="1782" rx="10" ry="10" style="fill:#f6511d"/><ellipse cx="31" cy="1782" rx="10" ry="10" style="fill:#a6e1fa"/><ellipse cx="52" cy="1782" rx="10" ry="10" style="fill:#ff01fb"/><ellipse cx="73" cy="1782" rx="10" ry="10" style="fill:#b55300"/><ellipse cx="94" cy="1782" rx="10" ry="10" style="fill:#a6e1fa"/><ellipse cx="115" cy="1782" rx="10" ry="10" style="fill:#ff01fb"/><ellipse cx="136" cy="1782" rx="10" ry="10" style="fill:#0a2472"/><ellipse cx="157" cy="1782" rx="10" ry="10" style="fill:#0e6ba8"/><ellipse cx="178" cy="1782" rx="10" ry="10" style="fill:#3d2645"/><ellipse cx="199" cy="1782" rx="10" ry="10" style="fill:#832161"/><ellipse cx="220" cy="1782" rx="10" ry="10" style="fill:#b00b31"/><ellipse cx="241" cy="1782" rx="10" ry="10" style="fill:#ff01fb"/><ellipse cx="262" cy="1782" rx="10" ry="10" style="fill:#000000"/><ellipse cx="283" cy="1782" rx="10" ry="10" style="fill:#3d2645"/><ellipse cx="304" cy="1782" rx="10" ry="10" style="fill:#832161"/><ellipse cx="325" cy="1782" rx="10" ry="10" style="fill:#da4167"/><ellipse cx="346" cy="1782" rx="10" ry="10" style="fill:#da4167"/><ellipse cx="367" cy="1782" rx="10" ry="10" style="fill:#da4167"/><ellipse cx="388" cy="1782" rx="10" ry="10" style="fill:#da4167"/><ellipse cx="409" cy="1782" rx="10" ry="10" style="fill:#02a9ea"/><ellipse cx="430" cy="1782" rx="10" ry="10" style="fill:#ceb992"/><ellipse cx="451" cy="1782" rx="10" ry="10" style="fill:#000000"/><ellipse cx="472" cy="1782" rx="10" ry="10" style="fill:#3d2645"/><ellipse cx="493" cy="1782" rx="10" ry="10" style="fill:#832161"/><ellipse cx="514" cy="1782" rx="10" ry="10" style="fill:#da4167"/><ellipse cx="535" cy="1782" rx="10" ry="10" style="fill:#da4167"/><ellipse cx="556" cy="1782" rx="10" ry="10" style="fill:#da4167"/><ellipse cx="577" cy="1782" rx="10" ry="10" style="fill:#da4167"/><ellipse cx="598" cy="1782" rx="10" ry="10" style="fill:#b00b31"/><ellipse cx="619" cy="1782" rx="10" ry="10" style="fill:#ff01fb"/><ellipse cx="640" cy="1782" rx="10" ry="10" style="fill:#00072d"/><ellipse cx="661" cy="1782" rx="10" ry="10" style="fill:#001c55"/><ellipse cx="682" cy="1782" rx="10" ry="10" style="fill:#0e6ba8"/><ellipse cx="703" cy="1782" rx="10" ry="10" style="fill:#da4167"/><ellipse cx="724" cy="1782" rx="10" ry="10" style="fill:#b55300"/><ellipse cx="745" cy="1782" rx="10" ry="10" style="fill:#00072d"/><ellipse cx="766" cy="1782" rx="10" ry="10" style="fill:#001c55"/><ellipse cx="787" cy="1782" rx="10" ry="10" style="fill:#0e6ba8"/><ellipse cx="808" cy="1782" rx="10" ry="10" style="fill:#da4167"/><ellipse cx="829" cy="1782" rx="10" ry="10" style="fill:#b55300"/><ellipse cx="850" cy="1782" rx="10" ry="10" style="fill:#00072d"/><ellipse cx="871" cy="1782" rx="10" ry="10" style="fill:#001c55"/><ellipse cx="892" cy="1782" rx="10" ry="10" style="fill:#0e6ba8"/><ellipse cx="913" cy="1782" rx="10" ry="10" style="fill:#da4167"/><ellipse cx="934" cy="1782" rx="10" ry="10" style="fill:#b55300"/><ellipse cx="955" cy="1782" rx="10" ry="10" style="fill:#a6e1fa"/><ellipse cx="976" cy="1782" rx="10" ry="10" style="fill:#ff01fb"/><ellipse cx="997" cy="1782" rx="10" ry="10" style="fill:#000000"/><ellipse cx="1018" cy="1782" rx="10" ry="10" style="fill:#3d2645"/><ellipse cx="1039" cy="1782" rx="10" ry="10" style="fill:#832161"/><ellipse cx="1060" cy="1782" rx="10" ry="10" style="fill:#6BF178"/><ellipse cx="1081" cy="1782" rx="10" ry="10" style="fill:#da4167"/><ellipse cx="1102" cy="1782" rx="10" ry="10" style="fill:#02a9ea"/><ellipse cx="1123" cy="1782" rx="10" ry="10" style="fill:#ceb992"/><ellipse cx="1144" cy="1782" rx="10" ry="10" style="fill:#000000"/><ellipse cx="1165" cy="1782" rx="10" ry="10" style="fill:#3d2645"/><ellipse cx="1186" cy="1782" rx="10" ry="10" style="fill:#832161"/><ellipse cx="1207" cy="1782" rx="10" ry="10" style="fill:#6BF178"/><ellipse cx="1228" cy="1782" rx="10" ry="10" style="fill:#da4167"/><ellipse cx="1249" cy="1782" rx="10" ry="10" style="fill:#b00b31"/><ellipse cx="1270" cy="1782" rx="10" ry="10" style="fill:#ff01fb"/><ellipse cx="1291" cy="1782" rx="10" ry="10" style="fill:#000000"/><ellipse cx="1312" cy="1782" rx="10" ry="10" style="fill:#3d2645"/><ellipse cx="1333" cy="1782" rx="10" ry="10" style="fill:#832161"/><ellipse cx="1354" cy="1782" rx="10" ry="10" style="fill:#02a9ea"/><ellipse cx="1375" cy="1782" rx="10" ry="10" style="fill:#ceb992"/><ellipse cx="1396" cy="1782" rx="10" ry="10" style="fill:#b00b31"/><ellipse cx="1417" cy="1782" rx="10" ry="10" style="fill:#ff01fb"/><ellipse cx="1438" cy="1782" rx="10" ry="10" style="fill:#b55300"/><ellipse cx="1459" cy="1782" rx="10" ry="10" style="fill:#a6e1fa"/><ellipse cx="1480" cy="1782" rx="10" ry="10" style="fill:#ff01fb"/><ellipse cx="1501" cy="1782" rx="10" ry="10" style="fill:#000000"/><ellipse cx="1522" cy="1782" rx="10" ry="10" style="fill:#3d2645"/><ellipse cx="1543" cy="1782" rx="10" ry="10" style="fill:#832161"/><ellipse cx="1564" cy="1782" rx="10" ry="10" style="fill:#6BF178"/><ellipse cx="1585" cy="1782" rx="10" ry="10" style="fill:#da4167"/><ellipse cx="1606" cy="1782" rx="10" ry="10" style="fill:#02a9ea"/><ellipse cx="1627" cy="1782" rx="10" ry="10" style="fill:#ceb992"/><ellipse cx="1648" cy="1782" rx="10" ry="10" style="fill:#000000"/><ellipse cx="1669" cy="1782" rx="10" ry="10" style="fill:#3d2645"/><ellipse cx="1690" cy="1782" rx="10" ry="10" style="fill:#832161"/><ellipse cx="1711" cy="1782" rx="10" ry="10" style="fill:#6BF178"/><ellipse cx="1732" cy="1782" rx="10" ry="10" style="fill:#da4167"/><ellipse cx="1753" cy="1782" rx="10" ry="10" style="fill:#b00b31"/><ellipse cx="1774" cy="1782" rx="10" ry="10" style="fill:#ff01fb"/><ellipse cx="1795" cy="1782" rx="10" ry="10" style="fill:#000000"/><ellipse cx="1816" cy="1782" rx="10" ry="10" style="fill:#3d2645"/><ellipse cx="1837" cy="1782" rx="10" ry="10" style="fill:#832161"/><ellipse cx="1858" cy="1782" rx="10" ry="10" style="fill:#02a9ea"/><ellipse cx="1879" cy="1782" rx="10" ry="10" style="fill:#ceb992"/><ellipse cx="1900" cy="1782" rx="10" ry="10" style="fill:#b00b31"/><ellipse cx="1921" cy="1782" rx="10" ry="10" style="fill:#ff01fb"/><ellipse cx="1942" cy="1782" rx="10" ry="10" style="fill:#b55300"/><ellipse cx="1963" cy="1782" rx="10" ry="10" style="fill:#a6e1fa"/><ellipse cx="1984" cy="1782" rx="10" ry="10" style="fill:#ff01fb"/><ellipse cx="2005" cy="1782" rx="10" ry="10" style="fill:#000000"/><ellipse cx="2026" cy="1782" rx="10" ry="10" style="fill:#3d2645"/><ellipse cx="2047" cy="1782" rx="10" ry="10" style="fill:#832161"/><ellipse cx="2068" cy="1782" rx="10" ry="10" style="fill:#6BF178"/><ellipse cx="2089" cy="1782" rx="10" ry="10" style="fill:#da4167"/><ellipse cx="2110" cy="1782" rx="10" ry="10" style="fill:#02a9ea"/><ellipse cx="2131" cy="1782" rx="10" ry="10" style="fill:#ceb992"/><ellipse cx="10" cy="1803" rx="10" ry="10" style="fill:#000000"/><ellipse cx="31" cy="1803" rx="10" ry="10" style="fill:#3d2645"/><ellipse cx="52" cy="1803" rx="10" ry="10" style="fill:#832161"/><ellipse cx="73" cy="1803" rx="10" ry="10" style="fill:#6BF178"/><ellipse cx="94" cy="1803" rx="10" ry="10" style="fill:#da4167"/><ellipse cx="115" cy="1803" rx="10" ry="10" style="fill:#b00b31"/><ellipse cx="136" cy="1803" rx="10" ry="10" style="fill:#ff01fb"/><ellipse cx="157" cy="1803" rx="10" ry="10" style="fill:#000000"/><ellipse cx="178" cy="1803" rx="10" ry="10" style="fill:#3d2645"/><ellipse cx="199" cy="1803" rx="10" ry="10" style="fill:#832161"/><ellipse cx="220" cy="1803" rx="10" ry="10" style="fill:#02a9ea"/><ellipse cx="241" cy="1803" rx="10" ry="10" style="fill:#ceb992"/><ellipse cx="262" cy="1803" rx="10" ry="10" style="fill:#b00b31"/><ellipse cx="283" cy="1803" rx="10" ry="10" style="fill:#ff01fb"/><ellipse cx="304" cy="1803" rx="10" ry="10" style="fill:#b55300"/><ellipse cx="325" cy="1803" rx="10" ry="10" style="fill:#a6e1fa"/><ellipse cx="346" cy="1803" rx="10" ry="10" style="fill:#ff01fb"/><ellipse cx="367" cy="1803" rx="10" ry="10" style="fill:#000000"/><ellipse cx="388" cy="1803" rx="10" ry="10" style="fill:#3d2645"/><ellipse cx="409" cy="1803" rx="10" ry="10" style="fill:#832161"/><ellipse cx="430" cy="1803" rx="10" ry="10" style="fill:#da4167"/><ellipse cx="451" cy="1803" rx="10" ry="10" style="fill:#da4167"/><ellipse cx="472" cy="1803" rx="10" ry="10" style="fill:#da4167"/><ellipse cx="493" cy="1803" rx="10" ry="10" style="fill:#da4167"/><ellipse cx="514" cy="1803" rx="10" ry="10" style="fill:#02a9ea"/><ellipse cx="535" cy="1803" rx="10" ry="10" style="fill:#ceb992"/><ellipse cx="556" cy="1803" rx="10" ry="10" style="fill:#b00b31"/><ellipse cx="577" cy="1803" rx="10" ry="10" style="fill:#ff01fb"/><ellipse cx="598" cy="1803" rx="10" ry="10" style="fill:#000000"/><ellipse cx="619" cy="1803" rx="10" ry="10" style="fill:#3d2645"/><ellipse cx="640" cy="1803" rx="10" ry="10" style="fill:#832161"/><ellipse cx="661" cy="1803" rx="10" ry="10" style="fill:#da4167"/><ellipse cx="682" cy="1803" rx="10" ry="10" style="fill:#da4167"/><ellipse cx="703" cy="1803" rx="10" ry="10" style="fill:#da4167"/><ellipse cx="724" cy="1803" rx="10" ry="10" style="fill:#da4167"/><ellipse cx="745" cy="1803" rx="10" ry="10" style="fill:#02a9ea"/><ellipse cx="766" cy="1803" rx="10" ry="10" style="fill:#ceb992"/><ellipse cx="787" cy="1803" rx="10" ry="10" style="fill:#b00b31"/><ellipse cx="808" cy="1803" rx="10" ry="10" style="fill:#ff01fb"/><ellipse cx="829" cy="1803" rx="10" ry="10" style="fill:#000000"/><ellipse cx="850" cy="1803" rx="10" ry="10" style="fill:#3d2645"/><ellipse cx="871" cy="1803" rx="10" ry="10" style="fill:#832161"/><ellipse cx="892" cy="1803" rx="10" ry="10" style="fill:#02a9ea"/><ellipse cx="913" cy="1803" rx="10" ry="10" style="fill:#ceb992"/><ellipse cx="934" cy="1803" rx="10" ry="10" style="fill:#000000"/><ellipse cx="955" cy="1803" rx="10" ry="10" style="fill:#3d2645"/><ellipse cx="976" cy="1803" rx="10" ry="10" style="fill:#832161"/><ellipse cx="997" cy="1803" rx="10" ry="10" style="fill:#b00b31"/><ellipse cx="1018" cy="1803" rx="10" ry="10" style="fill:#ff01fb"/><ellipse cx="1039" cy="1803" rx="10" ry="10" style="fill:#000000"/><ellipse cx="1060" cy="1803" rx="10" ry="10" style="fill:#3d2645"/><ellipse cx="1081" cy="1803" rx="10" ry="10" style="fill:#832161"/><ellipse cx="1102" cy="1803" rx="10" ry="10" style="fill:#da4167"/><ellipse cx="1123" cy="1803" rx="10" ry="10" style="fill:#da4167"/><ellipse cx="1144" cy="1803" rx="10" ry="10" style="fill:#da4167"/><ellipse cx="1165" cy="1803" rx="10" ry="10" style="fill:#da4167"/><ellipse cx="1186" cy="1803" rx="10" ry="10" style="fill:#02a9ea"/><ellipse cx="1207" cy="1803" rx="10" ry="10" style="fill:#ceb992"/><ellipse cx="1228" cy="1803" rx="10" ry="10" style="fill:#000000"/><ellipse cx="1249" cy="1803" rx="10" ry="10" style="fill:#3d2645"/><ellipse cx="1270" cy="1803" rx="10" ry="10" style="fill:#832161"/><ellipse cx="1291" cy="1803" rx="10" ry="10" style="fill:#da4167"/><ellipse cx="1312" cy="1803" rx="10" ry="10" style="fill:#da4167"/><ellipse cx="1333" cy="1803" rx="10" ry="10" style="fill:#da4167"/><ellipse cx="1354" cy="1803" rx="10" ry="10" style="fill:#da4167"/><ellipse cx="1375" cy="1803" rx="10" ry="10" style="fill:#b55300"/><ellipse cx="1396" cy="1803" rx="10" ry="10" style="fill:#a6e1fa"/><ellipse cx="1417" cy="1803" rx="10" ry="10" style="fill:#ff01fb"/><ellipse cx="1438" cy="1803" rx="10" ry="10" style="fill:#000000"/><ellipse cx="1459" cy="1803" rx="10" ry="10" style="fill:#3d2645"/><ellipse cx="1480" cy="1803" rx="10" ry="10" style="fill:#832161"/><ellipse cx="1501" cy="1803" rx="10" ry="10" style="fill:#da4167"/><ellipse cx="1522" cy="1803" rx="10" ry="10" style="fill:#da4167"/><ellipse cx="1543" cy="1803" rx="10" ry="10" style="fill:#da4167"/><ellipse cx="1564" cy="1803" rx="10" ry="10" style="fill:#da4167"/><ellipse cx="1585" cy="1803" rx="10" ry="10" style="fill:#000000"/><ellipse cx="1606" cy="1803" rx="10" ry="10" style="fill:#3d2645"/><ellipse cx="1627" cy="1803" rx="10" ry="10" style="fill:#832161"/><ellipse cx="10" cy="1881" rx="10" ry="10" style="fill:#f6511d"/><ellipse cx="31" cy="1881" rx="10" ry="10" style="fill:#832161"/><ellipse cx="52" cy="1881" rx="10" ry="10" style="fill:#832161"/><ellipse cx="73" cy="1881" rx="10" ry="10" style="fill:#832161"/><ellipse cx="94" cy="1881" rx="10" ry="10" style="fill:#832161"/><ellipse cx="115" cy="1881" rx="10" ry="10" style="fill:#832161"/><ellipse cx="136" cy="1881" rx="10" ry="10" style="fill:#832161"/><ellipse cx="157" cy="1881" rx="10" ry="10" style="fill:#832161"/><ellipse cx="178" cy="1881" rx="10" ry="10" style="fill:#832161"/><ellipse cx="199" cy="1881" rx="10" ry="10" style="fill:#832161"/><ellipse cx="220" cy="1881" rx="10" ry="10" style="fill:#832161"/><ellipse cx="241" cy="1881" rx="10" ry="10" style="fill:#832161"/><ellipse cx="262" cy="1881" rx="10" ry="10" style="fill:#832161"/><ellipse cx="283" cy="1881" rx="10" ry="10" style="fill:#832161"/><ellipse cx="304" cy="1881" rx="10" ry="10" style="fill:#832161"/><ellipse cx="325" cy="1881" rx="10" ry="10" style="fill:#832161"/><ellipse cx="346" cy="1881" rx="10" ry="10" style="fill:#832161"/><ellipse cx="367" cy="1881" rx="10" ry="10" style="fill:#832161"/><ellipse cx="388" cy="1881" rx="10" ry="10" style="fill:#832161"/><ellipse cx="409" cy="1881" rx="10" ry="10" style="fill:#832161"/><ellipse cx="430" cy="1881" rx="10" ry="10" style="fill:#832161"/><ellipse cx="451" cy="1881" rx="10" ry="10" style="fill:#ff01fb"/><ellipse cx="472" cy="1881" rx="10" ry="10" style="fill:#ff01fb"/><ellipse cx="493" cy="1881" rx="10" ry="10" style="fill:#ff01fb"/><ellipse cx="514" cy="1881" rx="10" ry="10" style="fill:#ff01fb"/><ellipse cx="535" cy="1881" rx="10" ry="10" style="fill:#ff01fb"/><ellipse cx="556" cy="1881" rx="10" ry="10" style="fill:#ff01fb"/><ellipse cx="577" cy="1881" rx="10" ry="10" style="fill:#ff01fb"/><ellipse cx="598" cy="1881" rx="10" ry="10" style="fill:#ff01fb"/><ellipse cx="619" cy="1881" rx="10" ry="10" style="fill:#ff01fb"/><ellipse cx="640" cy="1881" rx="10" ry="10" style="fill:#ff01fb"/><ellipse cx="661" cy="1881" rx="10" ry="10" style="fill:#ff01fb"/><ellipse cx="682" cy="1881" rx="10" ry="10" style="fill:#ff01fb"/><ellipse cx="703" cy="1881" rx="10" ry="10" style="fill:#ff01fb"/><ellipse cx="724" cy="1881" rx="10" ry="10" style="fill:#ff01fb"/><ellipse cx="745" cy="1881" rx="10" ry="10" style="fill:#ff01fb"/><ellipse cx="766" cy="1881" rx="10" ry="10" style="fill:#ff01fb"/><ellipse cx="787" cy="1881" rx="10" ry="10" style="fill:#ff01fb"/><ellipse cx="808" cy="1881" rx="10" ry="10" style="fill:#ff01fb"/><ellipse cx="829" cy="1881" rx="10" ry="10" style="fill:#da4167"/><ellipse cx="850" cy="1881" rx="10" ry="10" style="fill:#da4167"/><ellipse cx="871" cy="1881" rx="10" ry="10" style="fill:#da4167"/><ellipse cx="892" cy="1881" rx="10" ry="10" style="fill:#da4167"/><ellipse cx="913" cy="1881" rx="10" ry="10" style="fill:#da4167"/><ellipse cx="934" cy="1881" rx="10" ry="10" style="fill:#da4167"/><ellipse cx="955" cy="1881" rx="10" ry="10" style="fill:#da4167"/><ellipse cx="976" cy="1881" rx="10" ry="10" style="fill:#da4167"/><ellipse cx="997" cy="1881" rx="10" ry="10" style="fill:#da4167"/><ellipse cx="1018" cy="1881" rx="10" ry="10" style="fill:#da4167"/><ellipse cx="1039" cy="1881" rx="10" ry="10" style="fill:#da4167"/><ellipse cx="1060" cy="1881" rx="10" ry="10" style="fill:#da4167"/><ellipse cx="1081" cy="1881" rx="10" ry="10" style="fill:#da4167"/><ellipse cx="1102" cy="1881" rx="10" ry="10" style="fill:#da4167"/><ellipse cx="1123" cy="1881" rx="10" ry="10" style="fill:#da4167"/><ellipse cx="1144" cy="1881" rx="10" ry="10" style="fill:#da4167"/><ellipse cx="1165" cy="1881" rx="10" ry="10" style="fill:#da4167"/><ellipse cx="1186" cy="1881" rx="10" ry="10" style="fill:#da4167"/><ellipse cx="1207" cy="1881" rx="10" ry="10" style="fill:#da4167"/><ellipse cx="1228" cy="1881" rx="10" ry="10" style="fill:#da4167"/><ellipse cx="1249" cy="1881" rx="10" ry="10" style="fill:#da4167"/><ellipse cx="1270" cy="1881" rx="10" ry="10" style="fill:#da4167"/><ellipse cx="1291" cy="1881" rx="10" ry="10" style="fill:#da4167"/><ellipse cx="1312" cy="1881" rx="10" ry="10" style="fill:#da4167"/><ellipse cx="1333" cy="1881" rx="10" ry="10" style="fill:#da4167"/><ellipse cx="1354" cy="1881" rx="10" ry="10" style="fill:#da4167"/><ellipse cx="1375" cy="1881" rx="10" ry="10" style="fill:#da4167"/><ellipse cx="1396" cy="1881" rx="10" ry="10" style="fill:#da4167"/><ellipse cx="1417" cy="1881" rx="10" ry="10" style="fill:#da4167"/><ellipse cx="1438" cy="1881" rx="10" ry="10" style="fill:#da4167"/><ellipse cx="1459" cy="1881" rx="10" ry="10" style="fill:#da4167"/><ellipse cx="1480" cy="1881" rx="10" ry="10" style="fill:#da4167"/><ellipse cx="1501" cy="1881" rx="10" ry="10" style="fill:#da4167"/><ellipse cx="1522" cy="1881" rx="10" ry="10" style="fill:#da4167"/><ellipse cx="1543" cy="1881" rx="10" ry="10" style="fill:#da4167"/><ellipse cx="1564" cy="1881" rx="10" ry="10" style="fill:#da4167"/><ellipse cx="1585" cy="1881" rx="10" ry="10" style="fill:#da4167"/><ellipse cx="1606" cy="1881" rx="10" ry="10" style="fill:#0a2472"/><ellipse cx="1627" cy="1881" rx="10" ry="10" style="fill:#ceb992"/><ellipse cx="1648" cy="1881" rx="10" ry="10" style="fill:#ceb992"/><ellipse cx="1669" cy="1881" rx="10" ry="10" style="fill:#ceb992"/><ellipse cx="1690" cy="1881" rx="10" ry="10" style="fill:#ceb992"/><ellipse cx="1711" cy="1881" rx="10" ry="10" style="fill:#ceb992"/><ellipse cx="1732" cy="1881" rx="10" ry="10" style="fill:#ceb992"/><ellipse cx="1753" cy="1881" rx="10" ry="10" style="fill:#ceb992"/><ellipse cx="1774" cy="1881" rx="10" ry="10" style="fill:#ceb992"/><ellipse cx="1795" cy="1881" rx="10" ry="10" style="fill:#ceb992"/><ellipse cx="1816" cy="1881" rx="10" ry="10" style="fill:#ceb992"/><ellipse cx="1837" cy="1881" rx="10" ry="10" style="fill:#ceb992"/><ellipse cx="1858" cy="1881" rx="10" ry="10" style="fill:#000000"/><ellipse cx="1879" cy="1881" rx="10" ry="10" style="fill:#000000"/><ellipse cx="1900" cy="1881" rx="10" ry="10" style="fill:#000000"/><ellipse cx="1921" cy="1881" rx="10" ry="10" style="fill:#000000"/><ellipse cx="1942" cy="1881" rx="10" ry="10" style="fill:#000000"/><ellipse cx="1963" cy="1881" rx="10" ry="10" style="fill:#000000"/><ellipse cx="1984" cy="1881" rx="10" ry="10" style="fill:#000000"/><ellipse cx="2005" cy="1881" rx="10" ry="10" style="fill:#000000"/><ellipse cx="2026" cy="1881" rx="10" ry="10" style="fill:#000000"/><ellipse cx="2047" cy="1881" rx="10" ry="10" style="fill:#000000"/><ellipse cx="2068" cy="1881" rx="10" ry="10" style="fill:#000000"/><ellipse cx="2089" cy="1881" rx="10" ry="10" style="fill:#000000"/><ellipse cx="2110" cy="1881" rx="10" ry="10" style="fill:#000000"/><ellipse cx="2131" cy="1881" rx="10" ry="10" style="fill:#000000"/><ellipse cx="10" cy="1902" rx="10" ry="10" style="fill:#000000"/><ellipse cx="31" cy="1902" rx="10" ry="10" style="fill:#000000"/><ellipse cx="52" cy="1902" rx="10" ry="10" style="fill:#000000"/><ellipse cx="73" cy="1902" rx="10" ry="10" style="fill:#000000"/><ellipse cx="94" cy="1902" rx="10" ry="10" style="fill:#000000"/><ellipse cx="115" cy="1902" rx="10" ry="10" style="fill:#b55300"/><ellipse cx="136" cy="1902" rx="10" ry="10" style="fill:#b55300"/><ellipse cx="157" cy="1902" rx="10" ry="10" style="fill:#b55300"/><ellipse cx="178" cy="1902" rx="10" ry="10" style="fill:#b55300"/><ellipse cx="199" cy="1902" rx="10" ry="10" style="fill:#b55300"/><ellipse cx="220" cy="1902" rx="10" ry="10" style="fill:#b55300"/><ellipse cx="241" cy="1902" rx="10" ry="10" style="fill:#b55300"/><ellipse cx="262" cy="1902" rx="10" ry="10" style="fill:#b55300"/><ellipse cx="283" cy="1902" rx="10" ry="10" style="fill:#0e6ba8"/><ellipse cx="304" cy="1902" rx="10" ry="10" style="fill:#0e6ba8"/><ellipse cx="325" cy="1902" rx="10" ry="10" style="fill:#0e6ba8"/><ellipse cx="346" cy="1902" rx="10" ry="10" style="fill:#0e6ba8"/><ellipse cx="367" cy="1902" rx="10" ry="10" style="fill:#00072d"/><ellipse cx="388" cy="1902" rx="10" ry="10" style="fill:#00072d"/><ellipse cx="409" cy="1902" rx="10" ry="10" style="fill:#00072d"/><ellipse cx="430" cy="1902" rx="10" ry="10" style="fill:#3d2645"/><ellipse cx="451" cy="1902" rx="10" ry="10" style="fill:#3d2645"/><ellipse cx="472" cy="1902" rx="10" ry="10" style="fill:#3d2645"/><ellipse cx="493" cy="1902" rx="10" ry="10" style="fill:#3d2645"/><ellipse cx="514" cy="1902" rx="10" ry="10" style="fill:#3d2645"/><ellipse cx="535" cy="1902" rx="10" ry="10" style="fill:#3d2645"/><ellipse cx="556" cy="1902" rx="10" ry="10" style="fill:#3d2645"/><ellipse cx="577" cy="1902" rx="10" ry="10" style="fill:#3d2645"/><ellipse cx="598" cy="1902" rx="10" ry="10" style="fill:#3d2645"/><ellipse cx="619" cy="1902" rx="10" ry="10" style="fill:#3d2645"/><ellipse cx="640" cy="1902" rx="10" ry="10" style="fill:#3d2645"/><ellipse cx="661" cy="1902" rx="10" ry="10" style="fill:#3d2645"/><ellipse cx="682" cy="1902" rx="10" ry="10" style="fill:#3d2645"/><ellipse cx="703" cy="1902" rx="10" ry="10" style="fill:#3d2645"/><ellipse cx="724" cy="1902" rx="10" ry="10" style="fill:#3d2645"/><ellipse cx="745" cy="1902" rx="10" ry="10" style="fill:#3d2645"/><ellipse cx="766" cy="1902" rx="10" ry="10" style="fill:#3d2645"/><ellipse cx="787" cy="1902" rx="10" ry="10" style="fill:#3d2645"/><ellipse cx="808" cy="1902" rx="10" ry="10" style="fill:#3d2645"/><ellipse cx="829" cy="1902" rx="10" ry="10" style="fill:#3d2645"/><ellipse cx="850" cy="1902" rx="10" ry="10" style="fill:#b00b31"/><ellipse cx="871" cy="1902" rx="10" ry="10" style="fill:#b00b31"/><ellipse cx="892" cy="1902" rx="10" ry="10" style="fill:#b00b31"/><ellipse cx="913" cy="1902" rx="10" ry="10" style="fill:#b00b31"/><ellipse cx="934" cy="1902" rx="10" ry="10" style="fill:#b00b31"/><ellipse cx="955" cy="1902" rx="10" ry="10" style="fill:#b00b31"/><ellipse cx="976" cy="1902" rx="10" ry="10" style="fill:#b00b31"/><ellipse cx="997" cy="1902" rx="10" ry="10" style="fill:#b00b31"/><ellipse cx="1018" cy="1902" rx="10" ry="10" style="fill:#b00b31"/><ellipse cx="1039" cy="1902" rx="10" ry="10" style="fill:#b00b31"/><ellipse cx="1060" cy="1902" rx="10" ry="10" style="fill:#b00b31"/><ellipse cx="1081" cy="1902" rx="10" ry="10" style="fill:#a6e1fa"/><ellipse cx="1102" cy="1902" rx="10" ry="10" style="fill:#a6e1fa"/><ellipse cx="1123" cy="1902" rx="10" ry="10" style="fill:#a6e1fa"/><ellipse cx="1144" cy="1902" rx="10" ry="10" style="fill:#a6e1fa"/><ellipse cx="1165" cy="1902" rx="10" ry="10" style="fill:#a6e1fa"/><ellipse cx="1186" cy="1902" rx="10" ry="10" style="fill:#a6e1fa"/><ellipse cx="1207" cy="1902" rx="10" ry="10" style="fill:#a6e1fa"/><ellipse cx="1228" cy="1902" rx="10" ry="10" style="fill:#001c55"/><ellipse cx="1249" cy="1902" rx="10" ry="10" style="fill:#001c55"/><ellipse cx="1270" cy="1902" rx="10" ry="10" style="fill:#001c55"/><ellipse cx="1291" cy="1902" rx="10" ry="10" style="fill:#6BF178"/><ellipse cx="1312" cy="1902" rx="10" ry="10" style="fill:#6BF178"/><ellipse cx="1333" cy="1902" rx="10" ry="10" style="fill:#6BF178"/><ellipse cx="1354" cy="1902" rx="10" ry="10" style="fill:#6BF178"/><ellipse cx="1375" cy="1902" rx="10" ry="10" style="fill:#6BF178"/><ellipse cx="1396" cy="1902" rx="10" ry="10" style="fill:#6BF178"/><ellipse cx="1417" cy="1902" rx="10" ry="10" style="fill:#02a9ea"/><ellipse cx="1438" cy="1902" rx="10" ry="10" style="fill:#02a9ea"/><ellipse cx="1459" cy="1902" rx="10" ry="10" style="fill:#02a9ea"/><ellipse cx="1480" cy="1902" rx="10" ry="10" style="fill:#02a9ea"/><ellipse cx="1501" cy="1902" rx="10" ry="10" style="fill:#02a9ea"/><ellipse cx="1522" cy="1902" rx="10" ry="10" style="fill:#02a9ea"/><ellipse cx="1543" cy="1902" rx="10" ry="10" style="fill:#02a9ea"/><ellipse cx="1564" cy="1902" rx="10" ry="10" style="fill:#02a9ea"/><ellipse cx="1585" cy="1902" rx="10" ry="10" style="fill:#02a9ea"/><ellipse cx="1606" cy="1902" rx="10" ry="10" style="fill:#02a9ea"/><ellipse cx="1627" cy="1902" rx="10" ry="10" style="fill:#02a9ea"/></svg>