<svg width="1084" height="995" xmlns="http://www.w3.org/2000/svg"><path d="M10 10 L22 211" style="stroke:#000;stroke-width:1px"/><path d="M22 211 L34 412" style="stroke:#000;stroke-width:1px"/><path d="M34 412 L46 613" style="stroke:#000;stroke-width:1px"/><path d="M46 613 L58 814" style="stroke:#000;stroke-width:1px"/><ellipse cx="58" cy="814" rx="5" ry="5" style="fill:#0e6ba8"/><path d="M46 613 L70 814" style="stroke:#000;stroke-width:1px"/><ellipse cx="70" cy="814" rx="5" ry="5" style="fill:#da4167"/><ellipse cx="46" cy="613" rx="5" ry="5" style="fill:#0a2472"/><ellipse cx="34" cy="412" rx="5" ry="5" style="fill:#ff01fb"/><ellipse cx="22" cy="211" rx="5" ry="5" style="fill:#a6e1fa"/><path d="M10 10 L82 211" style="stroke:#000;stroke-width:1px"/><path d="M82 211 L94 412" style="stroke:#000;stroke-width:1px"/><path d="M94 412 L106 613" style="stroke:#000;stroke-width:1px"/><path d="M106 613 L118 814" style="stroke:#000;stroke-width:1px"/><ellipse cx="118" cy="814" rx="5" ry="5" style="fill:#0e6ba8"/><path d="M106 613 L130 814" style="stroke:#000;stroke-width:1px"/><ellipse cx="130" cy="814" rx="5" ry="5" style="fill:#da4167"/><ellipse cx="106" cy="613" rx="5" ry="5" style="fill:#0a2472"/><ellipse cx="94" cy="412" rx="5" ry="5" style="fill:#ff01fb"/><ellipse cx="82" cy="211" rx="5" ry="5" style="fill:#a6e1fa"/><path d="M10 10 L142 211" style="stroke:#000;stroke-width:1px"/><path d="M142 211 L154 412" style="stroke:#000;stroke-width:1px"/><path d="M154 412 L166 613" style="stroke:#000;stroke-width:1px"/><path d="M166 613 L178 814" style="stroke:#000;stroke-width:1px"/><ellipse cx="178" cy="814" rx="5" ry="5" style="fill:#0e6ba8"/><path d="M166 613 L190 814" style="stroke:#000;stroke-width:1px"/><path d="M190 814 L202 1015" style="stroke:#000;stroke-width:1px"/><ellipse cx="202" cy="1015" rx="5" ry="5" style="fill:#0e6ba8"/><path d="M190 814 L214 1015" style="stroke:#000;stroke-width:1px"/><ellipse cx="214" cy="1015" rx="5" ry="5" style="fill:#da4167"/><ellipse cx="190" cy="814" rx="5" ry="5" style="fill:#561d25"/><ellipse cx="166" cy="613" rx="5" ry="5" style="fill:#0a2472"/><path d="M154 412 L226 613" style="stroke:#000;stroke-width:1px"/><path d="M226 613 L238 814" style="stroke:#000;stroke-width:1px"/><ellipse cx="238" cy="814" rx="5" ry="5" style="fill:#ceb992"/><path d="M226 613 L250 814" style="stroke:#000;stroke-width:1px"/><ellipse cx="250" cy="814" rx="5" ry="5" style="fill:#b00b31"/><ellipse cx="226" cy="613" rx="5" ry="5" style="fill:#02a9ea"/><ellipse cx="154" cy="412" rx="5" ry="5" style="fill:#ff01fb"/><path d="M142 211 L262 412" style="stroke:#000;stroke-width:1px"/><path d="M262 412 L274 613" style="stroke:#000;stroke-width:1px"/><path d="M274 613 L286 814" style="stroke:#000;stroke-width:1px"/><path d="M286 814 L298 1015" style="stroke:#000;stroke-width:1px"/><path d="M298 1015 L310 1216" style="stroke:#000;stroke-width:1px"/><ellipse cx="310" cy="1216" rx="5" ry="5" style="fill:#0e6ba8"/><ellipse cx="298" cy="1015" rx="5" ry="5" style="fill:#832161"/><ellipse cx="286" cy="814" rx="5" ry="5" style="fill:#3d2645"/><ellipse cx="274" cy="613" rx="5" ry="5" style="fill:#000000"/><path d="M262 412 L322 613" style="stroke:#000;stroke-width:1px"/><path d="M322 613 L334 814" style="stroke:#000;stroke-width:1px"/><ellipse cx="334" cy="814" rx="5" ry="5" style="fill:#ceb992"/><path d="M322 613 L346 814" style="stroke:#000;stroke-width:1px"/><ellipse cx="346" cy="814" rx="5" ry="5" style="fill:#b00b31"/><ellipse cx="322" cy="613" rx="5" ry="5" style="fill:#02a9ea"/><ellipse cx="262" cy="412" rx="5" ry="5" style="fill:#ff01fb"/><path d="M142 211 L358 412" style="stroke:#000;stroke-width:1px"/><path d="M358 412 L370 613" style="stroke:#000;stroke-width:1px"/><path d="M370 613 L382 814" style="stroke:#000;stroke-width:1px"/><ellipse cx="382" cy="814" rx="5" ry="5" style="fill:#0e6ba8"/><path d="M370 613 L394 814" style="stroke:#000;stroke-width:1px"/><path d="M394 814 L406 1015" style="stroke:#000;stroke-width:1px"/><ellipse cx="406" cy="1015" rx="5" ry="5" style="fill:#0e6ba8"/><path d="M394 814 L418 1015" style="stroke:#000;stroke-width:1px"/><ellipse cx="418" cy="1015" rx="5" ry="5" style="fill:#da4167"/><ellipse cx="394" cy="814" rx="5" ry="5" style="fill:#561d25"/><ellipse cx="370" cy="613" rx="5" ry="5" style="fill:#0a2472"/><path d="M358 412 L430 613" style="stroke:#000;stroke-width:1px"/><ellipse cx="430" cy="613" rx="5" ry="5" style="fill:#b00b31"/><ellipse cx="358" cy="412" rx="5" ry="5" style="fill:#ff01fb"/><path d="M142 211 L442 412" style="stroke:#000;stroke-width:1px"/><path d="M442 412 L454 613" style="stroke:#000;stroke-width:1px"/><path d="M454 613 L466 814" style="stroke:#000;stroke-width:1px"/><path d="M466 814 L478 1015" style="stroke:#000;stroke-width:1px"/><path d="M478 1015 L490 1216" style="stroke:#000;stroke-width:1px"/><path d="M490 1216 L502 1417" style="stroke:#000;stroke-width:1px"/><ellipse cx="502" cy="1417" rx="5" ry="5" style="fill:#6BF178"/><path d="M490 1216 L514 1417" style="stroke:#000;stroke-width:1px"/><ellipse cx="514" cy="1417" rx="5" ry="5" style="fill:#0e6ba8"/><ellipse cx="490" cy="1216" rx="5" ry="5" style="fill:#561d25"/><ellipse cx="478" cy="1015" rx="5" ry="5" style="fill:#832161"/><ellipse cx="466" cy="814" rx="5" ry="5" style="fill:#3d2645"/><ellipse cx="454" cy="613" rx="5" ry="5" style="fill:#000000"/><ellipse cx="442" cy="412" rx="5" ry="5" style="fill:#ff01fb"/><ellipse cx="142" cy="211" rx="5" ry="5" style="fill:#a6e1fa"/><path d="M10 10 L526 211" style="stroke:#000;stroke-width:1px"/><path d="M526 211 L538 412" style="stroke:#000;stroke-width:1px"/><path d="M538 412 L550 613" style="stroke:#000;stroke-width:1px"/><path d="M550 613 L562 814" style="stroke:#000;stroke-width:1px"/><path d="M562 814 L574 1015" style="stroke:#000;stroke-width:1px"/><path d="M574 1015 L586 1216" style="stroke:#000;stroke-width:1px"/><ellipse cx="586" cy="1216" rx="5" ry="5" style="fill:#da4167"/><path d="M574 1015 L598 1216" style="stroke:#000;stroke-width:1px"/><ellipse cx="598" cy="1216" rx="5" ry="5" style="fill:#da4167"/><path d="M574 1015 L610 1216" style="stroke:#000;stroke-width:1px"/><ellipse cx="610" cy="1216" rx="5" ry="5" style="fill:#da4167"/><path d="M574 1015 L622 1216" style="stroke:#000;stroke-width:1px"/><ellipse cx="622" cy="1216" rx="5" ry="5" style="fill:#da4167"/><ellipse cx="574" cy="1015" rx="5" ry="5" style="fill:#832161"/><ellipse cx="562" cy="814" rx="5" ry="5" style="fill:#3d2645"/><ellipse cx="550" cy="613" rx="5" ry="5" style="fill:#000000"/><path d="M538 412 L634 613" style="stroke:#000;stroke-width:1px"/><path d="M634 613 L646 814" style="stroke:#000;stroke-width:1px"/><ellipse cx="646" cy="814" rx="5" ry="5" style="fill:#ceb992"/><path d="M634 613 L658 814" style="stroke:#000;stroke-width:1px"/><ellipse cx="658" cy="814" rx="5" ry="5" style="fill:#b00b31"/><ellipse cx="634" cy="613" rx="5" ry="5" style="fill:#02a9ea"/><ellipse cx="538" cy="412" rx="5" ry="5" style="fill:#ff01fb"/><path d="M526 211 L670 412" style="stroke:#000;stroke-width:1px"/><path d="M670 412 L682 613" style="stroke:#000;stroke-width:1px"/><path d="M682 613 L694 814" style="stroke:#000;stroke-width:1px"/><path d="M694 814 L706 1015" style="stroke:#000;stroke-width:1px"/><path d="M706 1015 L718 1216" style="stroke:#000;stroke-width:1px"/><ellipse cx="718" cy="1216" rx="5" ry="5" style="fill:#da4167"/><path d="M706 1015 L730 1216" style="stroke:#000;stroke-width:1px"/><ellipse cx="730" cy="1216" rx="5" ry="5" style="fill:#da4167"/><path d="M706 1015 L742 1216" style="stroke:#000;stroke-width:1px"/><ellipse cx="742" cy="1216" rx="5" ry="5" style="fill:#da4167"/><path d="M706 1015 L754 1216" style="stroke:#000;stroke-width:1px"/><ellipse cx="754" cy="1216" rx="5" ry="5" style="fill:#da4167"/><ellipse cx="706" cy="1015" rx="5" ry="5" style="fill:#832161"/><ellipse cx="694" cy="814" rx="5" ry="5" style="fill:#3d2645"/><ellipse cx="682" cy="613" rx="5" ry="5" style="fill:#000000"/><path d="M670 412 L766 613" style="stroke:#000;stroke-width:1px"/><path d="M766 613 L778 814" style="stroke:#000;stroke-width:1px"/><ellipse cx="778" cy="814" rx="5" ry="5" style="fill:#ceb992"/><path d="M766 613 L790 814" style="stroke:#000;stroke-width:1px"/><ellipse cx="790" cy="814" rx="5" ry="5" style="fill:#b00b31"/><ellipse cx="766" cy="613" rx="5" ry="5" style="fill:#02a9ea"/><ellipse cx="670" cy="412" rx="5" ry="5" style="fill:#ff01fb"/><ellipse cx="526" cy="211" rx="5" ry="5" style="fill:#a6e1fa"/><path d="M10 10 L802 211" style="stroke:#000;stroke-width:1px"/><path d="M802 211 L814 412" style="stroke:#000;stroke-width:1px"/><path d="M814 412 L826 613" style="stroke:#000;stroke-width:1px"/><path d="M826 613 L838 814" style="stroke:#000;stroke-width:1px"/><path d="M838 814 L850 1015" style="stroke:#000;stroke-width:1px"/><path d="M850 1015 L862 1216" style="stroke:#000;stroke-width:1px"/><ellipse cx="862" cy="1216" rx="5" ry="5" style="fill:#da4167"/><path d="M850 1015 L874 1216" style="stroke:#000;stroke-width:1px"/><ellipse cx="874" cy="1216" rx="5" ry="5" style="fill:#da4167"/><path d="M850 1015 L886 1216" style="stroke:#000;stroke-width:1px"/><ellipse cx="886" cy="1216" rx="5" ry="5" style="fill:#da4167"/><path d="M850 1015 L898 1216" style="stroke:#000;stroke-width:1px"/><ellipse cx="898" cy="1216" rx="5" ry="5" style="fill:#da4167"/><ellipse cx="850" cy="1015" rx="5" ry="5" style="fill:#832161"/><ellipse cx="838" cy="814" rx="5" ry="5" style="fill:#3d2645"/><ellipse cx="826" cy="613" rx="5" ry="5" style="fill:#000000"/><path d="M814 412 L910 613" style="stroke:#000;stroke-width:1px"/><path d="M910 613 L922 814" style="stroke:#000;stroke-width:1px"/><path d="M922 814 L934 1015" style="stroke:#000;stroke-width:1px"/><path d="M934 1015 L946 1216" style="stroke:#000;stroke-width:1px"/><ellipse cx="946" cy="1216" rx="5" ry="5" style="fill:#0e6ba8"/><path d="M934 1015 L958 1216" style="stroke:#000;stroke-width:1px"/><ellipse cx="958" cy="1216" rx="5" ry="5" style="fill:#da4167"/><ellipse cx="934" cy="1015" rx="5" ry="5" style="fill:#832161"/><ellipse cx="922" cy="814" rx="5" ry="5" style="fill:#3d2645"/><ellipse cx="910" cy="613" rx="5" ry="5" style="fill:#000000"/><path d="M814 412 L970 613" style="stroke:#000;stroke-width:1px"/><path d="M970 613 L982 814" style="stroke:#000;stroke-width:1px"/><path d="M982 814 L994 1015" style="stroke:#000;stroke-width:1px"/><path d="M994 1015 L1006 1216" style="stroke:#000;stroke-width:1px"/><ellipse cx="1006" cy="1216" rx="5" ry="5" style="fill:#0e6ba8"/><path d="M994 1015 L1018 1216" style="stroke:#000;stroke-width:1px"/><ellipse cx="1018" cy="1216" rx="5" ry="5" style="fill:#da4167"/><ellipse cx="994" cy="1015" rx="5" ry="5" style="fill:#832161"/><ellipse cx="982" cy="814" rx="5" ry="5" style="fill:#3d2645"/><ellipse cx="970" cy="613" rx="5" ry="5" style="fill:#000000"/><path d="M814 412 L1030 613" style="stroke:#000;stroke-width:1px"/><path d="M1030 613 L1042 814" style="stroke:#000;stroke-width:1px"/><path d="M1042 814 L1054 1015" style="stroke:#000;stroke-width:1px"/><path d="M1054 1015 L1066 1216" style="stroke:#000;stroke-width:1px"/><ellipse cx="1066" cy="1216" rx="5" ry="5" style="fill:#0e6ba8"/><path d="M1054 1015 L1078 1216" style="stroke:#000;stroke-width:1px"/><ellipse cx="1078" cy="1216" rx="5" ry="5" style="fill:#da4167"/><ellipse cx="1054" cy="1015" rx="5" ry="5" style="fill:#832161"/><ellipse cx="1042" cy="814" rx="5" ry="5" style="fill:#3d2645"/><ellipse cx="1030" cy="613" rx="5" ry="5" style="fill:#000000"/><ellipse cx="814" cy="412" rx="5" ry="5" style="fill:#ff01fb"/><ellipse cx="802" cy="211" rx="5" ry="5" style="fill:#a6e1fa"/><ellipse cx="10" cy="10" rx="5" ry="5" style="fill:#f6511d"/><ellipse cx="10" cy="891" rx="10" ry="10" style="fill:#f6511d"/><ellipse cx="31" cy="891" rx="10" ry="10" style="fill:#a6e1fa"/><ellipse cx="52" cy="891" rx="10" ry="10" style="fill:#ff01fb"/><ellipse cx="73" cy="891" rx="10" ry="10" style="fill:#0a2472"/><ellipse cx="94" cy="891" rx="10" ry="10" style="fill:#0e6ba8"/><ellipse cx="115" cy="891" rx="10" ry="10" style="fill:#da4167"/><ellipse cx="136" cy="891" rx="10" ry="10" style="fill:#a6e1fa"/><ellipse cx="157" cy="891" rx="10" ry="10" style="fill:#ff01fb"/><ellipse cx="178" cy="891" rx="10" ry="10" style="fill:#0a2472"/><ellipse cx="199" cy="891" rx="10" ry="10" style="fill:#0e6ba8"/><ellipse cx="220" cy="891" rx="10" ry="10" style="fill:#da4167"/><ellipse cx="241" cy="891" rx="10" ry="10" style="fill:#a6e1fa"/><ellipse cx="262" cy="891" rx="10" ry="10" style="fill:#ff01fb"/><ellipse cx="283" cy="891" rx="10" ry="10" style="fill:#0a2472"/><ellipse cx="304" cy="891" rx="10" ry="10" style="fill:#0e6ba8"/><ellipse cx="325" cy="891" rx="10" ry="10" style="fill:#561d25"/><ellipse cx="346" cy="891" rx="10" ry="10" style="fill:#0e6ba8"/><ellipse cx="367" cy="891" rx="10" ry="10" style="fill:#da4167"/><ellipse cx="388" cy="891" rx="10" ry="10" style="fill:#02a9ea"/><ellipse cx="409" cy="891" rx="10" ry="10" style="fill:#ceb992"/><ellipse cx="430" cy="891" rx="10" ry="10" style="fill:#b00b31"/><ellipse cx="451" cy="891" rx="10" ry="10" style="fill:#ff01fb"/><ellipse cx="472" cy="891" rx="10" ry="10" style="fill:#000000"/><ellipse cx="493" cy="891" rx="10" ry="10" style="fill:#3d2645"/><ellipse cx="514" cy="891" rx="10" ry="10" style="fill:#832161"/><ellipse cx="535" cy="891" rx="10" ry="10" style="fill:#0e6ba8"/><ellipse cx="556" cy="891" rx="10" ry="10" style="fill:#02a9ea"/><ellipse cx="577" cy="891" rx="10" ry="10" style="fill:#ceb992"/><ellipse cx="598" cy="891" rx="10" ry="10" style="fill:#b00b31"/><ellipse cx="619" cy="891" rx="10" ry="10" style="fill:#ff01fb"/><ellipse cx="640" cy="891" rx="10" ry="10" style="fill:#0a2472"/><ellipse cx="661" cy="891" rx="10" ry="10" style="fill:#0e6ba8"/><ellipse cx="682" cy="891" rx="10" ry="10" style="fill:#561d25"/><ellipse cx="703" cy="891" rx="10" ry="10" style="fill:#0e6ba8"/><ellipse cx="724" cy="891" rx="10" ry="10" style="fill:#da4167"/><ellipse cx="745" cy="891" rx="10" ry="10" style="fill:#b00b31"/><ellipse cx="766" cy="891" rx="10" ry="10" style="fill:#ff01fb"/><ellipse cx="787" cy="891" rx="10" ry="10" style="fill:#000000"/><ellipse cx="808" cy="891" rx="10" ry="10" style="fill:#3d2645"/><ellipse cx="829" cy="891" rx="10" ry="10" style="fill:#832161"/><ellipse cx="850" cy="891" rx="10" ry="10" style="fill:#561d25"/><ellipse cx="871" cy="891" rx="10" ry="10" style="fill:#6BF178"/><ellipse cx="892" cy="891" rx="10" ry="10" style="fill:#0e6ba8"/><ellipse cx="913" cy="891" rx="10" ry="10" style="fill:#a6e1fa"/><ellipse cx="934" cy="891" rx="10" ry="10" style="fill:#ff01fb"/><ellipse cx="955" cy="891" rx="10" ry="10" style="fill:#000000"/><ellipse cx="976" cy="891" rx="10" ry="10" style="fill:#3d2645"/><ellipse cx="997" cy="891" rx="10" ry="10" style="fill:#832161"/><ellipse cx="1018" cy="891" rx="10" ry="10" style="fill:#da4167"/><ellipse cx="1039" cy="891" rx="10" ry="10" style="fill:#da4167"/><ellipse cx="1060" cy="891" rx="10" ry="10" style="fill:#da4167"/><ellipse cx="10" cy="912" rx="10" ry="10" style="fill:#da4167"/><ellipse cx="31" cy="912" rx="10" ry="10" style="fill:#02a9ea"/><ellipse cx="52" cy="912" rx="10" ry="10" style="fill:#ceb992"/><ellipse cx="73" cy="912" rx="10" ry="10" style="fill:#b00b31"/><ellipse cx="94" cy="912" rx="10" ry="10" style="fill:#ff01fb"/><ellipse cx="115" cy="912" rx="10" ry="10" style="fill:#000000"/><ellipse cx="136" cy="912" rx="10" ry="10" style="fill:#3d2645"/><ellipse cx="157" cy="912" rx="10" ry="10" style="fill:#832161"/><ellipse cx="178" cy="912" rx="10" ry="10" style="fill:#da4167"/><ellipse cx="199" cy="912" rx="10" ry="10" style="fill:#da4167"/><ellipse cx="220" cy="912" rx="10" ry="10" style="fill:#da4167"/><ellipse cx="241" cy="912" rx="10" ry="10" style="fill:#da4167"/><ellipse cx="262" cy="912" rx="10" ry="10" style="fill:#02a9ea"/><ellipse cx="283" cy="912" rx="10" ry="10" style="fill:#ceb992"/><ellipse cx="304" cy="912" rx="10" ry="10" style="fill:#b00b31"/><ellipse cx="325" cy="912" rx="10" ry="10" style="fill:#a6e1fa"/><ellipse cx="346" cy="912" rx="10" ry="10" style="fill:#ff01fb"/><ellipse cx="367" cy="912" rx="10" ry="10" style="fill:#000000"/><ellipse cx="388" cy="912" rx="10" ry="10" style="fill:#3d2645"/><ellipse cx="409" cy="912" rx="10" ry="10" style="fill:#832161"/><ellipse cx="430" cy="912" rx="10" ry="10" style="fill:#da4167"/><ellipse cx="451" cy="912" rx="10" ry="10" style="fill:#da4167"/><ellipse cx="472" cy="912" rx="10" ry="10" style="fill:#da4167"/><ellipse cx="493" cy="912" rx="10" ry="10" style="fill:#da4167"/><ellipse cx="514" cy="912" rx="10" ry="10" style="fill:#000000"/><ellipse cx="535" cy="912" rx="10" ry="10" style="fill:#3d2645"/><ellipse cx="556" cy="912" rx="10" ry="10" style="fill:#832161"/><ellipse cx="577" cy="912" rx="10" ry="10" style="fill:#0e6ba8"/><ellipse cx="598" cy="912" rx="10" ry="10" style="fill:#da4167"/><ellipse cx="619" cy="912" rx="10" ry="10" style="fill:#000000"/><ellipse cx="640" cy="912" rx="10" ry="10" style="fill:#3d2645"/><ellipse cx="661" cy="912" rx="10" ry="10" style="fill:#832161"/><ellipse cx="682" cy="912" rx="10" ry="10" style="fill:#0e6ba8"/><ellipse cx="703" cy="912" rx="10" ry="10" style="fill:#da4167"/><ellipse cx="724" cy="912" rx="10" ry="10" style="fill:#000000"/><ellipse cx="745" cy="912" rx="10" ry="10" style="fill:#3d2645"/><ellipse cx="766" cy="912" rx="10" ry="10" style="fill:#832161"/><ellipse cx="787" cy="912" rx="10" ry="10" style="fill:#0e6ba8"/><ellipse cx="808" cy="912" rx="10" ry="10" style="fill:#da4167"/><ellipse cx="10" cy="940.5" rx="10" ry="10" style="fill:#f6511d"/><ellipse cx="31" cy="940.5" rx="10" ry="10" style="fill:#832161"/><ellipse cx="52" cy="940.5" rx="10" ry="10" style="fill:#832161"/><ellipse cx="73" cy="940.5" rx="10" ry="10" style="fill:#832161"/><ellipse cx="94" cy="940.5" rx="10" ry="10" style="fill:#832161"/><ellipse cx="115" cy="940.5" rx="10" ry="10" style="fill:#832161"/><ellipse cx="136" cy="940.5" rx="10" ry="10" style="fill:#832161"/><ellipse cx="157" cy="940.5" rx="10" ry="10" style="fill:#832161"/><ellipse cx="178" cy="940.5" rx="10" ry="10" style="fill:#832161"/><ellipse cx="199" cy="940.5" rx="10" ry="10" style="fill:#ff01fb"/><ellipse cx="220" cy="940.5" rx="10" ry="10" style="fill:#ff01fb"/><ellipse cx="241" cy="940.5" rx="10" ry="10" style="fill:#ff01fb"/><ellipse cx="262" cy="940.5" rx="10" ry="10" style="fill:#ff01fb"/><ellipse cx="283" cy="940.5" rx="10" ry="10" style="fill:#ff01fb"/><ellipse cx="304" cy="940.5" rx="10" ry="10" style="fill:#ff01fb"/><ellipse cx="325" cy="940.5" rx="10" ry="10" style="fill:#ff01fb"/><ellipse cx="346" cy="940.5" rx="10" ry="10" style="fill:#ff01fb"/><ellipse cx="367" cy="940.5" rx="10" ry="10" style="fill:#ff01fb"/><ellipse cx="388" cy="940.5" rx="10" ry="10" style="fill:#da4167"/><ellipse cx="409" cy="940.5" rx="10" ry="10" style="fill:#da4167"/><ellipse cx="430" cy="940.5" rx="10" ry="10" style="fill:#da4167"/><ellipse cx="451" cy="940.5" rx="10" ry="10" style="fill:#da4167"/><ellipse cx="472" cy="940.5" rx="10" ry="10" style="fill:#da4167"/><ellipse cx="493" cy="940.5" rx="10" ry="10" style="fill:#da4167"/><ellipse cx="514" cy="940.5" rx="10" ry="10" style="fill:#da4167"/><ellipse cx="535" cy="940.5" rx="10" ry="10" style="fill:#da4167"/><ellipse cx="556" cy="940.5" rx="10" ry="10" style="fill:#da4167"/><ellipse cx="577" cy="940.5" rx="10" ry="10" style="fill:#da4167"/><ellipse cx="598" cy="940.5" rx="10" ry="10" style="fill:#da4167"/><ellipse cx="619" cy="940.5" rx="10" ry="10" style="fill:#da4167"/><ellipse cx="640" cy="940.5" rx="10" ry="10" style="fill:#da4167"/><ellipse cx="661" cy="940.5" rx="10" ry="10" style="fill:#da4167"/><ellipse cx="682" cy="940.5" rx="10" ry="10" style="fill:#da4167"/><ellipse cx="703" cy="940.5" rx="10" ry="10" style="fill:#da4167"/><ellipse cx="724" cy="940.5" rx="10" ry="10" style="fill:#da4167"/><ellipse cx="745" cy="940.5" rx="10" ry="10" style="fill:#da4167"/><ellipse cx="766" cy="940.5" rx="10" ry="10" style="fill:#da4167"/><ellipse cx="787" cy="940.5" rx="10" ry="10" style="fill:#0a2472"/><ellipse cx="808" cy="940.5" rx="10" ry="10" style="fill:#0a2472"/><ellipse cx="829" cy="940.5" rx="10" ry="10" style="fill:#0a2472"/><ellipse cx="850" cy="940.5" rx="10" ry="10" style="fill:#0a2472"/><ellipse cx="871" cy="940.5" rx="10" ry="10" style="fill:#ceb992"/><ellipse cx="892" cy="940.5" rx="10" ry="10" style="fill:#ceb992"/><ellipse cx="913" cy="940.5" rx="10" ry="10" style="fill:#ceb992"/><ellipse cx="934" cy="940.5" rx="10" ry="10" style="fill:#ceb992"/><ellipse cx="955" cy="940.5" rx="10" ry="10" style="fill:#000000"/><ellipse cx="976" cy="940.5" rx="10" ry="10" style="fill:#000000"/><ellipse cx="997" cy="940.5" rx="10" ry="10" style="fill:#000000"/><ellipse cx="1018" cy="940.5" rx="10" ry="10" style="fill:#000000"/><ellipse cx="1039" cy="940.5" rx="10" ry="10" style="fill:#000000"/><ellipse cx="1060" cy="940.5" rx="10" ry="10" style="fill:#000000"/><ellipse cx="10" cy="961.5" rx="10" ry="10" style="fill:#000000"/><ellipse cx="31" cy="961.5" rx="10" ry="10" style="fill:#000000"/><ellipse cx="52" cy="961.5" rx="10" ry="10" style="fill:#0e6ba8"/><ellipse cx="73" cy="961.5" rx="10" ry="10" style="fill:#0e6ba8"/><ellipse cx="94" cy="961.5" rx="10" ry="10" style="fill:#0e6ba8"/><ellipse cx="115" cy="961.5" rx="10" ry="10" style="fill:#0e6ba8"/><ellipse cx="136" cy="961.5" rx="10" ry="10" style="fill:#0e6ba8"/><ellipse cx="157" cy="961.5" rx="10" ry="10" style="fill:#0e6ba8"/><ellipse cx="178" cy="961.5" rx="10" ry="10" style="fill:#0e6ba8"/><ellipse cx="199" cy="961.5" rx="10" ry="10" style="fill:#0e6ba8"/><ellipse cx="220" cy="961.5" rx="10" ry="10" style="fill:#0e6ba8"/><ellipse cx="241" cy="961.5" rx="10" ry="10" style="fill:#0e6ba8"/><ellipse cx="262" cy="961.5" rx="10" ry="10" style="fill:#0e6ba8"/><ellipse cx="283" cy="961.5" rx="10" ry="10" style="fill:#3d2645"/><ellipse cx="304" cy="961.5" rx="10" ry="10" style="fill:#3d2645"/><ellipse cx="325" cy="961.5" rx="10" ry="10" style="fill:#3d2645"/><ellipse cx="346" cy="961.5" rx="10" ry="10" style="fill:#3d2645"/><ellipse cx="367" cy="961.5" rx="10" ry="10" style="fill:#3d2645"/><ellipse cx="388" cy="961.5" rx="10" ry="10" style="fill:#3d2645"/><ellipse cx="409" cy="961.5" rx="10" ry="10" style="fill:#3d2645"/><ellipse cx="430" cy="961.5" rx="10" ry="10" style="fill:#3d2645"/><ellipse cx="451" cy="961.5" rx="10" ry="10" style="fill:#b00b31"/><ellipse cx="472" cy="961.5" rx="10" ry="10" style="fill:#b00b31"/><ellipse cx="493" cy="961.5" rx="10" ry="10" style="fill:#b00b31"/><ellipse cx="514" cy="961.5" rx="10" ry="10" style="fill:#b00b31"/><ellipse cx="535" cy="961.5" rx="10" ry="10" style="fill:#b00b31"/><ellipse cx="556" cy="961.5" rx="10" ry="10" style="fill:#561d25"/><ellipse cx="577" cy="961.5" rx="10" ry="10" style="fill:#561d25"/><ellipse cx="598" cy="961.5" rx="10" ry="10" style="fill:#561d25"/><ellipse cx="619" cy="961.5" rx="10" ry="10" style="fill:#a6e1fa"/><ellipse cx="640" cy="961.5" rx="10" ry="10" style="fill:#a6e1fa"/><ellipse cx="661" cy="961.5" rx="10" ry="10" style="fill:#a6e1fa"/><ellipse cx="682" cy="961.5" rx="10" ry="10" style="fill:#a6e1fa"/><ellipse cx="703" cy="961.5" rx="10" ry="10" style="fill:#a6e1fa"/><ellipse cx="724" cy="961.5" rx="10" ry="10" style="fill:#6BF178"/><ellipse cx="745" cy="961.5" rx="10" ry="10" style="fill:#02a9ea"/><ellipse cx="766" cy="961.5" rx="10" ry="10" style="fill:#02a9ea"/><ellipse cx="787" cy="961.5" rx="10" ry="10" style="fill:#02a9ea"/><ellipse cx="808" cy="961.5" rx="10" ry="10" style="fill:#02a9ea"/></svg>