<svg width="790" height="1610" xmlns="http://www.w3.org/2000/svg"><path d="M40 800 L40 1200" style="stroke:#000;stroke-width:1px"/><path d="M40 600 L40 800" style="stroke:#000;stroke-width:1px"/><path d="M40 600 L70 800" style="stroke:#000;stroke-width:1px"/><path d="M70 600 L40 600" style="stroke:#000;stroke-width:1px"/><path d="M40 400 L70 600" style="stroke:#000;stroke-width:1px"/><path d="M70 400 L40 400" style="stroke:#000;stroke-width:1px"/><path d="M40 200 L70 400" style="stroke:#000;stroke-width:1px"/><path d="M40 200 L40 1000" style="stroke:#000;stroke-width:1px"/><path d="M100 800 L40 1200" style="stroke:#000;stroke-width:1px"/><path d="M100 600 L100 800" style="stroke:#000;stroke-width:1px"/><path d="M100 600 L130 800" style="stroke:#000;stroke-width:1px"/><path d="M130 600 L100 600" style="stroke:#000;stroke-width:1px"/><path d="M100 400 L130 600" style="stroke:#000;stroke-width:1px"/><path d="M130 400 L100 400" style="stroke:#000;stroke-width:1px"/><path d="M70 200 L130 400" style="stroke:#000;stroke-width:1px"/><path d="M70 200 L70 1000" style="stroke:#000;stroke-width:1px"/><path d="M160 800 L40 1200" style="stroke:#000;stroke-width:1px"/><path d="M130 1000 L40 1200" style="stroke:#000;stroke-width:1px"/><path d="M190 800 L130 1000" style="stroke:#000;stroke-width:1px"/><path d="M190 800 L190 1000" style="stroke:#000;stroke-width:1px"/><path d="M190 800 L160 1000" style="stroke:#000;stroke-width:1px"/><path d="M160 600 L160 800" style="stroke:#000;stroke-width:1px"/><path d="M160 600 L190 800" style="stroke:#000;stroke-width:1px"/><path d="M220 800 L70 1200" style="stroke:#000;stroke-width:1px"/><path d="M190 600 L220 800" style="stroke:#000;stroke-width:1px"/><path d="M190 600 L250 800" style="stroke:#000;stroke-width:1px"/><path d="M220 600 L160 600" style="stroke:#000;stroke-width:1px"/><path d="M220 600 L190 600" style="stroke:#000;stroke-width:1px"/><path d="M160 400 L220 600" style="stroke:#000;stroke-width:1px"/><path d="M220 1000 L40 1400" style="stroke:#000;stroke-width:1px"/><path d="M100 1200 L40 1200" style="stroke:#000;stroke-width:1px"/><path d="M250 1000 L100 1200" style="stroke:#000;stroke-width:1px"/><path d="M280 800 L220 1000" style="stroke:#000;stroke-width:1px"/><path d="M280 800 L250 1000" style="stroke:#000;stroke-width:1px"/><path d="M250 600 L280 800" style="stroke:#000;stroke-width:1px"/><path d="M310 800 L70 1200" style="stroke:#000;stroke-width:1px"/><path d="M280 600 L310 800" style="stroke:#000;stroke-width:1px"/><path d="M280 600 L340 800" style="stroke:#000;stroke-width:1px"/><path d="M310 600 L250 600" style="stroke:#000;stroke-width:1px"/><path d="M310 600 L280 600" style="stroke:#000;stroke-width:1px"/><path d="M190 400 L310 600" style="stroke:#000;stroke-width:1px"/><path d="M370 800 L40 1200" style="stroke:#000;stroke-width:1px"/><path d="M280 1000 L40 1200" style="stroke:#000;stroke-width:1px"/><path d="M400 800 L280 1000" style="stroke:#000;stroke-width:1px"/><path d="M400 800 L340 1000" style="stroke:#000;stroke-width:1px"/><path d="M400 800 L310 1000" style="stroke:#000;stroke-width:1px"/><path d="M340 600 L370 800" style="stroke:#000;stroke-width:1px"/><path d="M340 600 L400 800" style="stroke:#000;stroke-width:1px"/><path d="M400 600 L340 600" style="stroke:#000;stroke-width:1px"/><path d="M400 600 L370 600" style="stroke:#000;stroke-width:1px"/><path d="M220 400 L400 600" style="stroke:#000;stroke-width:1px"/><path d="M370 1000 L40 1400" style="stroke:#000;stroke-width:1px"/><path d="M70 1400 L40 1600" style="stroke:#000;stroke-width:1px"/><path d="M100 1400 L40 1200" style="stroke:#000;stroke-width:1px"/><path d="M130 1200 L70 1400" style="stroke:#000;stroke-width:1px"/><path d="M130 1200 L100 1400" style="stroke:#000;stroke-width:1px"/><path d="M130 1200 L160 1000" style="stroke:#000;stroke-width:1px"/><path d="M400 1000 L130 1200" style="stroke:#000;stroke-width:1px"/><path d="M430 800 L370 1000" style="stroke:#000;stroke-width:1px"/><path d="M430 800 L400 1000" style="stroke:#000;stroke-width:1px"/><path d="M430 600 L430 800" style="stroke:#000;stroke-width:1px"/><path d="M460 600 L430 600" style="stroke:#000;stroke-width:1px"/><path d="M250 400 L460 600" style="stroke:#000;stroke-width:1px"/><path d="M280 400 L160 400" style="stroke:#000;stroke-width:1px"/><path d="M280 400 L190 400" style="stroke:#000;stroke-width:1px"/><path d="M280 400 L220 400" style="stroke:#000;stroke-width:1px"/><path d="M280 400 L250 400" style="stroke:#000;stroke-width:1px"/><path d="M100 200 L280 400" style="stroke:#000;stroke-width:1px"/><path d="M100 200 L100 1000" style="stroke:#000;stroke-width:1px"/><path d="M430 1000 L130 1400" style="stroke:#000;stroke-width:1px"/><path d="M460 1000 L190 1200" style="stroke:#000;stroke-width:1px"/><path d="M460 1000 L220 1200" style="stroke:#000;stroke-width:1px"/><path d="M460 1000 L250 1200" style="stroke:#000;stroke-width:1px"/><path d="M460 1000 L280 1200" style="stroke:#000;stroke-width:1px"/><path d="M460 800 L430 1000" style="stroke:#000;stroke-width:1px"/><path d="M460 800 L460 1000" style="stroke:#000;stroke-width:1px"/><path d="M490 600 L460 800" style="stroke:#000;stroke-width:1px"/><path d="M490 800 L310 1200" style="stroke:#000;stroke-width:1px"/><path d="M520 600 L490 800" style="stroke:#000;stroke-width:1px"/><path d="M520 600 L520 800" style="stroke:#000;stroke-width:1px"/><path d="M550 600 L490 600" style="stroke:#000;stroke-width:1px"/><path d="M550 600 L520 600" style="stroke:#000;stroke-width:1px"/><path d="M310 400 L550 600" style="stroke:#000;stroke-width:1px"/><path d="M490 1000 L130 1400" style="stroke:#000;stroke-width:1px"/><path d="M520 1000 L340 1200" style="stroke:#000;stroke-width:1px"/><path d="M520 1000 L370 1200" style="stroke:#000;stroke-width:1px"/><path d="M520 1000 L400 1200" style="stroke:#000;stroke-width:1px"/><path d="M520 1000 L430 1200" style="stroke:#000;stroke-width:1px"/><path d="M550 800 L490 1000" style="stroke:#000;stroke-width:1px"/><path d="M550 800 L520 1000" style="stroke:#000;stroke-width:1px"/><path d="M580 600 L550 800" style="stroke:#000;stroke-width:1px"/><path d="M580 800 L310 1200" style="stroke:#000;stroke-width:1px"/><path d="M610 600 L580 800" style="stroke:#000;stroke-width:1px"/><path d="M610 600 L610 800" style="stroke:#000;stroke-width:1px"/><path d="M640 600 L580 600" style="stroke:#000;stroke-width:1px"/><path d="M640 600 L610 600" style="stroke:#000;stroke-width:1px"/><path d="M340 400 L640 600" style="stroke:#000;stroke-width:1px"/><path d="M370 400 L310 400" style="stroke:#000;stroke-width:1px"/><path d="M370 400 L340 400" style="stroke:#000;stroke-width:1px"/><path d="M130 200 L370 400" style="stroke:#000;stroke-width:1px"/><path d="M130 200 L160 1200" style="stroke:#000;stroke-width:1px"/><path d="M550 1000 L130 1400" style="stroke:#000;stroke-width:1px"/><path d="M580 1000 L490 1200" style="stroke:#000;stroke-width:1px"/><path d="M580 1000 L520 1200" style="stroke:#000;stroke-width:1px"/><path d="M580 1000 L550 1200" style="stroke:#000;stroke-width:1px"/><path d="M580 1000 L580 1200" style="stroke:#000;stroke-width:1px"/><path d="M640 800 L550 1000" style="stroke:#000;stroke-width:1px"/><path d="M640 800 L580 1000" style="stroke:#000;stroke-width:1px"/><path d="M670 600 L640 800" style="stroke:#000;stroke-width:1px"/><path d="M610 1000 L160 1400" style="stroke:#000;stroke-width:1px"/><path d="M640 1200 L70 1600" style="stroke:#000;stroke-width:1px"/><path d="M640 1000 L610 1200" style="stroke:#000;stroke-width:1px"/><path d="M640 1000 L640 1200" style="stroke:#000;stroke-width:1px"/><path d="M670 800 L610 1000" style="stroke:#000;stroke-width:1px"/><path d="M670 800 L640 1000" style="stroke:#000;stroke-width:1px"/><path d="M700 600 L670 800" style="stroke:#000;stroke-width:1px"/><path d="M670 1000 L190 1400" style="stroke:#000;stroke-width:1px"/><path d="M700 1200 L100 1600" style="stroke:#000;stroke-width:1px"/><path d="M700 1000 L670 1200" style="stroke:#000;stroke-width:1px"/><path d="M700 1000 L700 1200" style="stroke:#000;stroke-width:1px"/><path d="M700 800 L670 1000" style="stroke:#000;stroke-width:1px"/><path d="M700 800 L700 1000" style="stroke:#000;stroke-width:1px"/><path d="M730 600 L700 800" style="stroke:#000;stroke-width:1px"/><path d="M730 1000 L190 1400" style="stroke:#000;stroke-width:1px"/><path d="M760 1200 L130 1600" style="stroke:#000;stroke-width:1px"/><path d="M760 1000 L730 1200" style="stroke:#000;stroke-width:1px"/><path d="M760 1000 L760 1200" style="stroke:#000;stroke-width:1px"/><path d="M730 800 L730 1000" style="stroke:#000;stroke-width:1px"/><path d="M730 800 L760 1000" style="stroke:#000;stroke-width:1px"/><path d="M760 600 L730 800" style="stroke:#000;stroke-width:1px"/><path d="M790 600 L670 600" style="stroke:#000;stroke-width:1px"/><path d="M790 600 L700 600" style="stroke:#000;stroke-width:1px"/><path d="M790 600 L730 600" style="stroke:#000;stroke-width:1px"/><path d="M790 600 L760 600" style="stroke:#000;stroke-width:1px"/><path d="M400 400 L790 600" style="stroke:#000;stroke-width:1px"/><path d="M430 400 L400 400" style="stroke:#000;stroke-width:1px"/><path d="M160 200 L430 400" style="stroke:#000;stroke-width:1px"/><path d="M160 200 L460 1200" style="stroke:#000;stroke-width:1px"/><path d="M40 0 L40 200" style="stroke:#000;stroke-width:1px"/><path d="M40 0 L70 200" style="stroke:#000;stroke-width:1px"/><path d="M40 0 L100 200" style="stroke:#000;stroke-width:1px"/><path d="M40 0 L130 200" style="stroke:#000;stroke-width:1px"/><path d="M40 0 L160 200" style="stroke:#000;stroke-width:1px"/><ellipse cx="40" cy="1200" rx="10" ry="10" style="fill:#6BF178"/><ellipse cx="40" cy="800" rx="10" ry="10" style="fill:#da4167"/><ellipse cx="40" cy="1000" rx="10" ry="10" style="fill:#6BF178"/><ellipse cx="70" cy="800" rx="10" ry="10" style="fill:#832161"/><ellipse cx="40" cy="600" rx="10" ry="10" style="fill:#00072d"/><ellipse cx="70" cy="600" rx="10" ry="10" style="fill:#a6e1fa"/><ellipse cx="40" cy="400" rx="10" ry="10" style="fill:#0e6ba8"/><ellipse cx="70" cy="400" rx="10" ry="10" style="fill:#0e6ba8"/><ellipse cx="40" cy="200" rx="10" ry="10" style="fill:#001c55"/><ellipse cx="100" cy="800" rx="10" ry="10" style="fill:#da4167"/><ellipse cx="70" cy="1000" rx="10" ry="10" style="fill:#6BF178"/><ellipse cx="130" cy="800" rx="10" ry="10" style="fill:#832161"/><ellipse cx="100" cy="600" rx="10" ry="10" style="fill:#00072d"/><ellipse cx="130" cy="600" rx="10" ry="10" style="fill:#a6e1fa"/><ellipse cx="100" cy="400" rx="10" ry="10" style="fill:#0e6ba8"/><ellipse cx="130" cy="400" rx="10" ry="10" style="fill:#0e6ba8"/><ellipse cx="70" cy="200" rx="10" ry="10" style="fill:#001c55"/><ellipse cx="160" cy="800" rx="10" ry="10" style="fill:#da4167"/><ellipse cx="100" cy="1000" rx="10" ry="10" style="fill:#6BF178"/><ellipse cx="130" cy="1000" rx="10" ry="10" style="fill:#da4167"/><ellipse cx="160" cy="1000" rx="10" ry="10" style="fill:#6BF178"/><ellipse cx="190" cy="1000" rx="10" ry="10" style="fill:#832161"/><ellipse cx="190" cy="800" rx="10" ry="10" style="fill:#ef2917"/><ellipse cx="160" cy="600" rx="10" ry="10" style="fill:#00072d"/><ellipse cx="70" cy="1200" rx="10" ry="10" style="fill:#6BF178"/><ellipse cx="220" cy="800" rx="10" ry="10" style="fill:#02a9ea"/><ellipse cx="250" cy="800" rx="10" ry="10" style="fill:#ff01fb"/><ellipse cx="190" cy="600" rx="10" ry="10" style="fill:#b55300"/><ellipse cx="220" cy="600" rx="10" ry="10" style="fill:#a6e1fa"/><ellipse cx="160" cy="400" rx="10" ry="10" style="fill:#0e6ba8"/><ellipse cx="40" cy="1400" rx="10" ry="10" style="fill:#6BF178"/><ellipse cx="220" cy="1000" rx="10" ry="10" style="fill:#da4167"/><ellipse cx="100" cy="1200" rx="10" ry="10" style="fill:#da4167"/><ellipse cx="250" cy="1000" rx="10" ry="10" style="fill:#000000"/><ellipse cx="280" cy="800" rx="10" ry="10" style="fill:#ceb992"/><ellipse cx="250" cy="600" rx="10" ry="10" style="fill:#b00b31"/><ellipse cx="310" cy="800" rx="10" ry="10" style="fill:#02a9ea"/><ellipse cx="340" cy="800" rx="10" ry="10" style="fill:#ff01fb"/><ellipse cx="280" cy="600" rx="10" ry="10" style="fill:#b55300"/><ellipse cx="310" cy="600" rx="10" ry="10" style="fill:#a6e1fa"/><ellipse cx="190" cy="400" rx="10" ry="10" style="fill:#0e6ba8"/><ellipse cx="370" cy="800" rx="10" ry="10" style="fill:#da4167"/><ellipse cx="280" cy="1000" rx="10" ry="10" style="fill:#da4167"/><ellipse cx="310" cy="1000" rx="10" ry="10" style="fill:#6BF178"/><ellipse cx="340" cy="1000" rx="10" ry="10" style="fill:#832161"/><ellipse cx="400" cy="800" rx="10" ry="10" style="fill:#ef2917"/><ellipse cx="340" cy="600" rx="10" ry="10" style="fill:#00072d"/><ellipse cx="370" cy="600" rx="10" ry="10" style="fill:#ff01fb"/><ellipse cx="400" cy="600" rx="10" ry="10" style="fill:#a6e1fa"/><ellipse cx="220" cy="400" rx="10" ry="10" style="fill:#0e6ba8"/><ellipse cx="370" cy="1000" rx="10" ry="10" style="fill:#da4167"/><ellipse cx="40" cy="1600" rx="10" ry="10" style="fill:#6BF178"/><ellipse cx="70" cy="1400" rx="10" ry="10" style="fill:#3d2645"/><ellipse cx="100" cy="1400" rx="10" ry="10" style="fill:#da4167"/><ellipse cx="130" cy="1200" rx="10" ry="10" style="fill:#ef2917"/><ellipse cx="400" cy="1000" rx="10" ry="10" style="fill:#000000"/><ellipse cx="430" cy="800" rx="10" ry="10" style="fill:#ceb992"/><ellipse cx="430" cy="600" rx="10" ry="10" style="fill:#b00b31"/><ellipse cx="460" cy="600" rx="10" ry="10" style="fill:#a6e1fa"/><ellipse cx="250" cy="400" rx="10" ry="10" style="fill:#0e6ba8"/><ellipse cx="280" cy="400" rx="10" ry="10" style="fill:#0e6ba8"/><ellipse cx="100" cy="200" rx="10" ry="10" style="fill:#001c55"/><ellipse cx="130" cy="1400" rx="10" ry="10" style="fill:#6BF178"/><ellipse cx="430" cy="1000" rx="10" ry="10" style="fill:#da4167"/><ellipse cx="160" cy="1200" rx="10" ry="10" style="fill:#6BF178"/><ellipse cx="190" cy="1200" rx="10" ry="10" style="fill:#832161"/><ellipse cx="220" cy="1200" rx="10" ry="10" style="fill:#832161"/><ellipse cx="250" cy="1200" rx="10" ry="10" style="fill:#832161"/><ellipse cx="280" cy="1200" rx="10" ry="10" style="fill:#832161"/><ellipse cx="460" cy="1000" rx="10" ry="10" style="fill:#000000"/><ellipse cx="460" cy="800" rx="10" ry="10" style="fill:#ceb992"/><ellipse cx="490" cy="600" rx="10" ry="10" style="fill:#b00b31"/><ellipse cx="310" cy="1200" rx="10" ry="10" style="fill:#6BF178"/><ellipse cx="490" cy="800" rx="10" ry="10" style="fill:#02a9ea"/><ellipse cx="520" cy="800" rx="10" ry="10" style="fill:#ff01fb"/><ellipse cx="520" cy="600" rx="10" ry="10" style="fill:#b55300"/><ellipse cx="550" cy="600" rx="10" ry="10" style="fill:#a6e1fa"/><ellipse cx="310" cy="400" rx="10" ry="10" style="fill:#0e6ba8"/><ellipse cx="490" cy="1000" rx="10" ry="10" style="fill:#da4167"/><ellipse cx="340" cy="1200" rx="10" ry="10" style="fill:#832161"/><ellipse cx="370" cy="1200" rx="10" ry="10" style="fill:#832161"/><ellipse cx="400" cy="1200" rx="10" ry="10" style="fill:#832161"/><ellipse cx="430" cy="1200" rx="10" ry="10" style="fill:#832161"/><ellipse cx="520" cy="1000" rx="10" ry="10" style="fill:#000000"/><ellipse cx="550" cy="800" rx="10" ry="10" style="fill:#ceb992"/><ellipse cx="580" cy="600" rx="10" ry="10" style="fill:#b00b31"/><ellipse cx="580" cy="800" rx="10" ry="10" style="fill:#02a9ea"/><ellipse cx="610" cy="800" rx="10" ry="10" style="fill:#ff01fb"/><ellipse cx="610" cy="600" rx="10" ry="10" style="fill:#b55300"/><ellipse cx="640" cy="600" rx="10" ry="10" style="fill:#a6e1fa"/><ellipse cx="340" cy="400" rx="10" ry="10" style="fill:#0e6ba8"/><ellipse cx="370" cy="400" rx="10" ry="10" style="fill:#0e6ba8"/><ellipse cx="130" cy="200" rx="10" ry="10" style="fill:#001c55"/><ellipse cx="550" cy="1000" rx="10" ry="10" style="fill:#da4167"/><ellipse cx="460" cy="1200" rx="10" ry="10" style="fill:#6BF178"/><ellipse cx="490" cy="1200" rx="10" ry="10" style="fill:#832161"/><ellipse cx="520" cy="1200" rx="10" ry="10" style="fill:#832161"/><ellipse cx="550" cy="1200" rx="10" ry="10" style="fill:#832161"/><ellipse cx="580" cy="1200" rx="10" ry="10" style="fill:#832161"/><ellipse cx="580" cy="1000" rx="10" ry="10" style="fill:#000000"/><ellipse cx="640" cy="800" rx="10" ry="10" style="fill:#ceb992"/><ellipse cx="670" cy="600" rx="10" ry="10" style="fill:#b00b31"/><ellipse cx="160" cy="1400" rx="10" ry="10" style="fill:#6BF178"/><ellipse cx="610" cy="1000" rx="10" ry="10" style="fill:#da4167"/><ellipse cx="610" cy="1200" rx="10" ry="10" style="fill:#832161"/><ellipse cx="70" cy="1600" rx="10" ry="10" style="fill:#6BF178"/><ellipse cx="640" cy="1200" rx="10" ry="10" style="fill:#da4167"/><ellipse cx="640" cy="1000" rx="10" ry="10" style="fill:#000000"/><ellipse cx="670" cy="800" rx="10" ry="10" style="fill:#ceb992"/><ellipse cx="700" cy="600" rx="10" ry="10" style="fill:#b00b31"/><ellipse cx="190" cy="1400" rx="10" ry="10" style="fill:#6BF178"/><ellipse cx="670" cy="1000" rx="10" ry="10" style="fill:#da4167"/><ellipse cx="670" cy="1200" rx="10" ry="10" style="fill:#832161"/><ellipse cx="100" cy="1600" rx="10" ry="10" style="fill:#6BF178"/><ellipse cx="700" cy="1200" rx="10" ry="10" style="fill:#da4167"/><ellipse cx="700" cy="1000" rx="10" ry="10" style="fill:#000000"/><ellipse cx="700" cy="800" rx="10" ry="10" style="fill:#ceb992"/><ellipse cx="730" cy="600" rx="10" ry="10" style="fill:#b00b31"/><ellipse cx="730" cy="1000" rx="10" ry="10" style="fill:#da4167"/><ellipse cx="730" cy="1200" rx="10" ry="10" style="fill:#832161"/><ellipse cx="130" cy="1600" rx="10" ry="10" style="fill:#6BF178"/><ellipse cx="760" cy="1200" rx="10" ry="10" style="fill:#da4167"/><ellipse cx="760" cy="1000" rx="10" ry="10" style="fill:#000000"/><ellipse cx="730" cy="800" rx="10" ry="10" style="fill:#ceb992"/><ellipse cx="760" cy="600" rx="10" ry="10" style="fill:#b00b31"/><ellipse cx="790" cy="600" rx="10" ry="10" style="fill:#a6e1fa"/><ellipse cx="400" cy="400" rx="10" ry="10" style="fill:#0e6ba8"/><ellipse cx="430" cy="400" rx="10" ry="10" style="fill:#0e6ba8"/><ellipse cx="160" cy="200" rx="10" ry="10" style="fill:#001c55"/><ellipse cx="40" cy="0" rx="10" ry="10" style="fill:#ce8147"/></svg>