<svg width="70" height="1410" xmlns="http://www.w3.org/2000/svg"><path d="M40 1000 L40 1400" style="stroke:#000;stroke-width:1px"/><path d="M70 1000 L70 1200" style="stroke:#000;stroke-width:1px"/><path d="M40 800 L40 1000" style="stroke:#000;stroke-width:1px"/><path d="M40 800 L70 1000" style="stroke:#000;stroke-width:1px"/><path d="M40 600 L40 800" style="stroke:#000;stroke-width:1px"/><path d="M70 600 L40 600" style="stroke:#000;stroke-width:1px"/><path d="M40 400 L70 600" style="stroke:#000;stroke-width:1px"/><path d="M70 400 L40 400" style="stroke:#000;stroke-width:1px"/><path d="M40 200 L70 400" style="stroke:#000;stroke-width:1px"/><path d="M40 200 L40 1200" style="stroke:#000;stroke-width:1px"/><path d="M40 0 L40 200" style="stroke:#000;stroke-width:1px"/><ellipse cx="40" cy="1400" rx="10" ry="10" style="fill:#6BF178"/><ellipse cx="40" cy="1000" rx="10" ry="10" style="fill:#da4167"/><ellipse cx="40" cy="1200" rx="10" ry="10" style="fill:#6BF178"/><ellipse cx="70" cy="1200" rx="10" ry="10" style="fill:#832161"/><ellipse cx="70" cy="1000" rx="10" ry="10" style="fill:#000000"/><ellipse cx="40" cy="800" rx="10" ry="10" style="fill:#ceb992"/><ellipse cx="40" cy="600" rx="10" ry="10" style="fill:#b00b31"/><ellipse cx="70" cy="600" rx="10" ry="10" style="fill:#a6e1fa"/><ellipse cx="40" cy="400" rx="10" ry="10" style="fill:#0e6ba8"/><ellipse cx="70" cy="400" rx="10" ry="10" style="fill:#0e6ba8"/><ellipse cx="40" cy="200" rx="10" ry="10" style="fill:#001c55"/><ellipse cx="40" cy="0" rx="10" ry="10" style="fill:#ce8147"/></svg>