<svg width="88" height="82" xmlns="http://www.w3.org/2000/svg"><path d="M10 10 L22 211" style="stroke:#000;stroke-width:1px"/><path d="M22 211 L34 412" style="stroke:#000;stroke-width:1px"/><path d="M34 412 L46 613" style="stroke:#000;stroke-width:1px"/><path d="M46 613 L58 814" style="stroke:#000;stroke-width:1px"/><path d="M58 814 L70 1015" style="stroke:#000;stroke-width:1px"/><path d="M70 1015 L82 1216" style="stroke:#000;stroke-width:1px"/><ellipse cx="82" cy="1216" rx="5" ry="5" style="fill:#da4167"/><ellipse cx="70" cy="1015" rx="5" ry="5" style="fill:#832161"/><ellipse cx="58" cy="814" rx="5" ry="5" style="fill:#3d2645"/><ellipse cx="46" cy="613" rx="5" ry="5" style="fill:#000000"/><ellipse cx="34" cy="412" rx="5" ry="5" style="fill:#ff01fb"/><ellipse cx="22" cy="211" rx="5" ry="5" style="fill:#a6e1fa"/><ellipse cx="10" cy="10" rx="5" ry="5" style="fill:#f6511d"/><ellipse cx="10" cy="69.3" rx="10" ry="10" style="fill:#f6511d"/><ellipse cx="31" cy="69.3" rx="10" ry="10" style="fill:#a6e1fa"/><ellipse cx="52" cy="69.3" rx="10" ry="10" style="fill:#ff01fb"/><ellipse cx="10" cy="90.3" rx="10" ry="10" style="fill:#000000"/><ellipse cx="31" cy="90.3" rx="10" ry="10" style="fill:#3d2645"/><ellipse cx="52" cy="90.3" rx="10" ry="10" style="fill:#832161"/><ellipse cx="10" cy="111.3" rx="10" ry="10" style="fill:#da4167"/><ellipse cx="10" cy="73.14999999999999" rx="10" ry="10" style="fill:#f6511d"/><ellipse cx="31" cy="73.14999999999999" rx="10" ry="10" style="fill:#832161"/><ellipse cx="52" cy="73.14999999999999" rx="10" ry="10" style="fill:#ff01fb"/><ellipse cx="10" cy="94.14999999999999" rx="10" ry="10" style="fill:#da4167"/><ellipse cx="31" cy="94.14999999999999" rx="10" ry="10" style="fill:#000000"/><ellipse cx="52" cy="94.14999999999999" rx="10" ry="10" style="fill:#3d2645"/><ellipse cx="10" cy="115.14999999999999" rx="10" ry="10" style="fill:#a6e1fa"/></svg>