<svg xmlns="http://www.w3.org/2000/svg" viewBox="-5670 0 11340 2160"><ellipse fill="#44696e" rx="90" ry="90" cx="0" cy="0"/><text style="font-family:'JetBrains Mono';font-size:24px" x="0" y="144" text-anchor="middle">Barrett Dinger</text><ellipse fill="#416e73" rx="90" ry="90" cx="540" cy="0"/><text style="font-family:'JetBrains Mono';font-size:24px" x="540" y="144" text-anchor="middle">Jesse Ansekalt</text><path d="M0 0H540" class="marriage-line"/><g transform="translate(-5670 0)"><ellipse fill="#416e73" rx="90" ry="90" cx="1080" cy="540"/><text style="font-family:'JetBrains Mono';font-size:24px" x="1080" y="684" text-anchor="middle">Scarlet Ansekalt</text><path d="M1080 540H1620" class="marriage-line"/><g transform="translate(-270 0)"></g><ellipse fill="#416e73" rx="90" ry="90" cx="1620" cy="540"/><text style="font-family:'JetBrains Mono';font-size:24px" x="1620" y="684" text-anchor="middle">Ariya Ansekalt</text><path d="M1620 540H2160" class="marriage-line"/><g transform="translate(-270 0)"></g><ellipse fill="#416e73" rx="90" ry="90" cx="2160" cy="540"/><text style="font-family:'JetBrains Mono';font-size:24px" x="2160" y="684" text-anchor="middle">Coraline Ansekalt</text><ellipse fill="#546869" rx="90" ry="90" cx="2700" cy="540"/><text style="font-family:'JetBrains Mono';font-size:24px" x="2700" y="684" text-anchor="middle">Remington Thigermaner</text><path d="M2160 540H2700" class="marriage-line"/><g transform="translate(-2970 0)"><ellipse fill="#546869" rx="90" ry="90" cx="3240" cy="1080"/><text style="font-family:'JetBrains Mono';font-size:24px" x="3240" y="1224" text-anchor="middle">Violette Thigermaner</text><path d="M3240 1080H3780" class="marriage-line"/><g transform="translate(-270 0)"></g><ellipse fill="#546869" rx="90" ry="90" cx="3780" cy="1080"/><text style="font-family:'JetBrains Mono';font-size:24px" x="3780" y="1224" text-anchor="middle">Kye Thigermaner</text><ellipse fill="#416c6c" rx="90" ry="90" cx="4320" cy="1080"/><text style="font-family:'JetBrains Mono';font-size:24px" x="4320" y="1224" text-anchor="middle">Paxton Allmaner</text><path d="M3780 1080H4320" class="marriage-line"/><g transform="translate(-1080 0)"><ellipse fill="#416c6c" rx="90" ry="90" cx="4860" cy="1620"/><text style="font-family:'JetBrains Mono';font-size:24px" x="4860" y="1764" text-anchor="middle">Cassidy Allmaner</text><ellipse fill="#546869" rx="90" ry="90" cx="5400" cy="1620"/><text style="font-family:'JetBrains Mono';font-size:24px" x="5400" y="1764" text-anchor="middle">Samir Thigermaner</text><path d="M4860 1620H5400" class="marriage-line"/><g transform="translate(-540 0)"></g></g><ellipse fill="#546869" rx="90" ry="90" cx="5940" cy="1080"/><text style="font-family:'JetBrains Mono';font-size:24px" x="5940" y="1224" text-anchor="middle">Paul Thigermaner</text><path d="M5940 1080H6480" class="marriage-line"/><g transform="translate(-270 0)"></g><ellipse fill="#546869" rx="90" ry="90" cx="6480" cy="1080"/><text style="font-family:'JetBrains Mono';font-size:24px" x="6480" y="1224" text-anchor="middle">Lydia Thigermaner</text><path d="M6480 1080H7020" class="marriage-line"/><g transform="translate(-270 0)"></g><ellipse fill="#546869" rx="90" ry="90" cx="7020" cy="1080"/><text style="font-family:'JetBrains Mono';font-size:24px" x="7020" y="1224" text-anchor="middle">Colby Thigermaner</text><path d="M7020 1080H7560" class="marriage-line"/><g transform="translate(-270 0)"></g><ellipse fill="#546869" rx="90" ry="90" cx="7560" cy="1080"/><text style="font-family:'JetBrains Mono';font-size:24px" x="7560" y="1224" text-anchor="middle">Kadence Thigermaner</text><path d="M7560 1080H8100" class="marriage-line"/><g transform="translate(-270 0)"></g></g><ellipse fill="#416e73" rx="90" ry="90" cx="8100" cy="540"/><text style="font-family:'JetBrains Mono';font-size:24px" x="8100" y="684" text-anchor="middle">Bethany Ansekalt</text><path d="M8100 540H8640" class="marriage-line"/><g transform="translate(-270 0)"></g><ellipse fill="#416e73" rx="90" ry="90" cx="8640" cy="540"/><text style="font-family:'JetBrains Mono';font-size:24px" x="8640" y="684" text-anchor="middle">Porter Ansekalt</text><path d="M8640 540H9180" class="marriage-line"/><g transform="translate(-270 0)"></g><ellipse fill="#416e73" rx="90" ry="90" cx="9180" cy="540"/><text style="font-family:'JetBrains Mono';font-size:24px" x="9180" y="684" text-anchor="middle">Madeline Ansekalt</text><path d="M9180 540H9720" class="marriage-line"/><g transform="translate(-270 0)"></g><ellipse fill="#416e73" rx="90" ry="90" cx="9720" cy="540"/><text style="font-family:'JetBrains Mono';font-size:24px" x="9720" y="684" text-anchor="middle">Emilio Ansekalt</text><path d="M9720 540H10260" class="marriage-line"/><g transform="translate(-270 0)"></g><ellipse fill="#416e73" rx="90" ry="90" cx="10260" cy="540"/><text style="font-family:'JetBrains Mono';font-size:24px" x="10260" y="684" text-anchor="middle">Kyle Ansekalt</text><path d="M10260 540H10800" class="marriage-line"/><g transform="translate(-270 0)"></g><ellipse fill="#416e73" rx="90" ry="90" cx="10800" cy="540"/><text style="font-family:'JetBrains Mono';font-size:24px" x="10800" y="684" text-anchor="middle">Ramona Ansekalt</text><path d="M10800 540H11340" class="marriage-line"/><g transform="translate(-270 0)"></g></g></svg>